<svg xmlns="http://www.w3.org/2000/svg" viewBox="0 -0.5 487 321" shape-rendering="crispEdges">
<metadata>Made with Pixels to Svg https://codepen.io/shshaw/pen/XbxvNj</metadata>
<path stroke="#3f0a0c" d="M292 14h15M292 15h15M292 16h15M292 17h15M292 18h15" />
<path stroke="#6c0004" d="M307 14h10M307 15h10M307 16h10M307 17h10M307 18h10M292 19h10M292 20h10M292 21h10M292 22h10M292 23h10" />
<path stroke="#b31218" d="M317 14h15M317 15h15M317 16h15M317 17h15M317 18h15M97 39h5M107 39h15M127 39h15M97 40h5M107 40h15M127 40h15M97 41h5M107 41h15M127 41h15M97 42h5M107 42h15M127 42h15M97 43h5M107 43h15M127 43h15M97 44h5M107 44h5M117 44h5M127 44h5M137 44h5M97 45h5M107 45h5M117 45h5M127 45h5M137 45h5M97 46h5M107 46h5M117 46h5M127 46h5M137 46h5M97 47h5M107 47h5M117 47h5M127 47h5M137 47h5M97 48h5M107 48h5M117 48h5M127 48h5M137 48h5M97 49h5M107 49h5M117 49h5M127 49h15M97 50h5M107 50h5M117 50h5M127 50h15M97 51h5M107 51h5M117 51h5M127 51h15M97 52h5M107 52h5M117 52h5M127 52h15M97 53h5M107 53h5M117 53h5M127 53h15M97 54h5M132 54h5M97 55h5M132 55h5M97 56h5M132 56h5M97 57h5M132 57h5M97 58h5M132 58h5M137 59h5M137 60h5M137 61h5M137 62h5M137 63h5M92 64h5M92 65h5M92 66h5M92 67h5M92 68h5" />
<path stroke="#b9400b" d="M302 19h5M312 19h5M302 20h5M312 20h5M302 21h5M312 21h5M302 22h5M312 22h5M302 23h5M312 23h5" />
<path stroke="#bd2b31" d="M307 19h5M317 19h15M307 20h5M317 20h15M307 21h5M317 21h15M307 22h5M317 22h15M307 23h5M317 23h15" />
<path stroke="#b8797b" d="M292 24h5M322 24h10M292 25h5M322 25h10M292 26h5M322 26h10M292 27h5M322 27h10M292 28h5M322 28h10" />
<path stroke="#e39497" d="M297 24h25M297 25h25M297 26h25M297 27h25M297 28h25" />
<path stroke="#3fb03f" d="M207 29h5M207 30h5M207 31h5M207 32h5M207 33h5M207 34h15M207 35h15M207 36h15M207 37h15M207 38h15M207 39h5M207 40h5M207 41h5M207 42h5M207 43h5M177 59h5M177 60h5M177 61h5M177 62h5M177 63h5M172 64h10M172 65h10M172 66h10M172 67h10M172 68h10" />
<path stroke="#f7e56d" d="M292 29h10M327 29h5M292 30h10M327 30h5M292 31h10M327 31h5M292 32h10M327 32h5M292 33h10M327 33h5" />
<path stroke="#f7d142" d="M302 29h25M302 30h25M302 31h25M302 32h25M302 33h25" />
<path stroke="#0b0b0b" d="M87 34h60M87 35h60M87 36h60M87 37h60M87 38h60M87 39h10M102 39h5M122 39h5M142 39h5M387 39h25M87 40h10M102 40h5M122 40h5M142 40h5M387 40h25M87 41h10M102 41h5M122 41h5M142 41h5M387 41h25M87 42h10M102 42h5M122 42h5M142 42h5M387 42h25M87 43h10M102 43h5M122 43h5M142 43h5M387 43h25M87 44h10M102 44h5M112 44h5M122 44h5M132 44h5M142 44h5M282 44h10M387 44h30M87 45h10M102 45h5M112 45h5M122 45h5M132 45h5M142 45h5M282 45h10M387 45h30M87 46h10M102 46h5M112 46h5M122 46h5M132 46h5M142 46h5M282 46h10M387 46h30M87 47h10M102 47h5M112 47h5M122 47h5M132 47h5M142 47h5M282 47h10M387 47h30M87 48h10M102 48h5M112 48h5M122 48h5M132 48h5M142 48h5M282 48h10M387 48h30M87 49h10M102 49h5M112 49h5M122 49h5M142 49h5M282 49h15M302 49h20M387 49h35M87 50h10M102 50h5M112 50h5M122 50h5M142 50h5M282 50h15M302 50h20M387 50h35M87 51h10M102 51h5M112 51h5M122 51h5M142 51h5M282 51h15M302 51h20M387 51h35M87 52h10M102 52h5M112 52h5M122 52h5M142 52h5M282 52h15M302 52h20M387 52h35M87 53h10M102 53h5M112 53h5M122 53h5M142 53h5M282 53h15M302 53h20M387 53h35M87 54h10M127 54h5M137 54h10M387 54h40M87 55h10M127 55h5M137 55h10M387 55h40M87 56h10M127 56h5M137 56h10M387 56h40M87 57h10M127 57h5M137 57h10M387 57h40M87 58h10M127 58h5M137 58h10M387 58h40M87 59h10M132 59h5M142 59h5M382 59h50M87 60h10M132 60h5M142 60h5M382 60h50M87 61h10M132 61h5M142 61h5M382 61h50M87 62h10M132 62h5M142 62h5M382 62h50M87 63h10M132 63h5M142 63h5M382 63h50M87 64h5M102 64h5M112 64h5M132 64h15M87 65h5M102 65h5M112 65h5M132 65h15M87 66h5M102 66h5M112 66h5M132 66h15M87 67h5M102 67h5M112 67h5M132 67h15M87 68h5M102 68h5M112 68h5M132 68h15M87 69h10M132 69h15M87 70h10M132 70h15M87 71h10M132 71h15M87 72h10M132 72h15M87 73h10M132 73h15" />
<path stroke="#6ec46a" d="M292 34h40M292 35h40M292 36h40M292 37h40M292 38h40" />
<path stroke="#e58545" d="M202 39h5M212 39h10M202 40h5M212 40h10M202 41h5M212 41h10M202 42h5M212 42h10M202 43h5M212 43h10M197 44h30M197 45h30M197 46h30M197 47h30M197 48h30M197 49h30M197 50h30M197 51h30M197 52h30M197 53h30M197 54h30M197 55h30M197 56h30M197 57h30M197 58h30M202 59h20M202 60h20M202 61h20M202 62h20M202 63h20M172 69h20M172 70h20M172 71h20M172 72h20M172 73h20M167 74h30M167 75h30M167 76h30M167 77h30M167 78h30M167 79h30M167 80h30M167 81h30M167 82h30M167 83h30M167 84h30M167 85h30M167 86h30M167 87h30M167 88h30M172 89h20M172 90h20M172 91h20M172 92h20M172 93h20M52 159h5M67 159h5M52 160h5M67 160h5M52 161h5M67 161h5M52 162h5M67 162h5M52 163h5M67 163h5M52 164h5M67 164h5M52 165h5M67 165h5M52 166h5M67 166h5M52 167h5M67 167h5M52 168h5M67 168h5M52 169h5M67 169h5M52 170h5M67 170h5M52 171h5M67 171h5M52 172h5M67 172h5M52 173h5M67 173h5" />
<path stroke="#5b7b99" d="M292 39h5M307 39h10M292 40h5M307 40h10M292 41h5M307 41h10M292 42h5M307 42h10M292 43h5M307 43h10" />
<path stroke="#98bad6" d="M297 39h10M297 40h10M297 41h10M297 42h10M297 43h10" />
<path stroke="#165188" d="M317 39h15M317 40h15M317 41h15M317 42h15M317 43h15" />
<path stroke="#9c61d5" d="M292 44h5M317 44h15M292 45h5M317 45h15M292 46h5M317 46h15M292 47h5M317 47h15M292 48h5M317 48h15" />
<path stroke="#ffffff" d="M297 44h5M297 45h5M297 46h5M297 47h5M297 48h5M102 54h25M102 55h25M102 56h25M102 57h25M102 58h25M97 59h35M97 60h35M97 61h35M97 62h35M97 63h35M97 64h5M107 64h5M117 64h15M97 65h5M107 65h5M117 65h15M97 66h5M107 66h5M117 66h15M97 67h5M107 67h5M117 67h15M97 68h5M107 68h5M117 68h15M97 69h35M97 70h35M97 71h35M97 72h35M97 73h35M97 74h35M97 75h35M97 76h35M97 77h35M97 78h35M97 79h35M97 80h35M97 81h35M97 82h35M97 83h35M97 84h5M107 84h5M117 84h5M127 84h5M97 85h5M107 85h5M117 85h5M127 85h5M97 86h5M107 86h5M117 86h5M127 86h5M97 87h5M107 87h5M117 87h5M127 87h5M97 88h5M107 88h5M117 88h5M127 88h5M32 159h15M32 160h15M32 161h15M32 162h15M32 163h15M42 164h5M42 165h5M42 166h5M42 167h5M42 168h5M32 169h15M142 169h65M267 169h50M377 169h30M422 169h20M32 170h15M142 170h65M267 170h50M377 170h30M422 170h20M32 171h15M142 171h65M267 171h50M377 171h30M422 171h20M32 172h15M142 172h65M267 172h50M377 172h30M422 172h20M32 173h15M142 173h65M267 173h50M377 173h30M422 173h20M142 174h65M267 174h50M377 174h25M427 174h15M142 175h65M267 175h50M377 175h25M427 175h15M142 176h65M267 176h50M377 176h25M427 176h15M142 177h65M267 177h50M377 177h25M427 177h15M142 178h65M267 178h50M377 178h25M427 178h15M142 179h65M267 179h50M377 179h25M427 179h15M142 180h65M267 180h50M377 180h25M427 180h15M142 181h65M267 181h50M377 181h25M427 181h15M142 182h65M267 182h50M377 182h25M427 182h15M142 183h65M267 183h50M377 183h25M427 183h15M142 184h65M267 184h50M377 184h25M427 184h15M142 185h65M267 185h50M377 185h25M427 185h15M142 186h65M267 186h50M377 186h25M427 186h15M142 187h65M267 187h50M377 187h25M427 187h15M142 188h65M267 188h50M377 188h25M427 188h15M142 189h65M267 189h50M377 189h25M427 189h15M142 190h65M267 190h50M377 190h25M427 190h15M142 191h65M267 191h50M377 191h25M427 191h15M142 192h65M267 192h50M377 192h25M427 192h15M142 193h65M267 193h50M377 193h25M427 193h15M142 194h65M267 194h50M377 194h25M427 194h15M142 195h65M267 195h50M377 195h25M427 195h15M142 196h65M267 196h50M377 196h25M427 196h15M142 197h65M267 197h50M377 197h25M427 197h15M142 198h65M267 198h50M377 198h25M427 198h15M142 199h65M267 199h50M377 199h25M427 199h15M142 200h65M267 200h50M377 200h25M427 200h15M142 201h65M267 201h50M377 201h25M427 201h15M142 202h65M267 202h50M377 202h25M427 202h15M142 203h65M267 203h50M377 203h25M427 203h15M142 204h90M242 204h100M352 204h90M142 205h90M242 205h100M352 205h90M142 206h90M242 206h100M352 206h90M142 207h90M242 207h100M352 207h90M142 208h90M242 208h100M352 208h90M142 209h80M252 209h35M307 209h25M362 209h80M142 210h80M252 210h35M307 210h25M362 210h80M142 211h80M252 211h35M307 211h25M362 211h80M142 212h80M252 212h35M307 212h25M362 212h80M142 213h80M252 213h35M307 213h25M362 213h80M142 214h80M252 214h35M307 214h25M362 214h80M142 215h80M252 215h35M307 215h25M362 215h80M142 216h80M252 216h35M307 216h25M362 216h80M142 217h80M252 217h35M307 217h25M362 217h80M142 218h80M252 218h35M307 218h25M362 218h80M142 219h300M142 220h300M142 221h300M142 222h300M142 223h300M142 224h300M142 225h300M142 226h300M142 227h300M142 228h300M142 229h300M142 230h300M142 231h300M142 232h300M142 233h300M142 234h300M142 235h300M142 236h300M142 237h300M142 238h300M157 244h60M227 244h60M297 244h60M367 244h60M157 245h60M227 245h60M297 245h60M367 245h60M157 246h60M227 246h60M297 246h60M367 246h60M157 247h60M227 247h60M297 247h60M367 247h60M157 248h60M227 248h60M297 248h60M367 248h60M157 249h60M227 249h60M297 249h60M367 249h60M157 250h60M227 250h60M297 250h60M367 250h60M157 251h60M227 251h60M297 251h60M367 251h60M157 252h60M227 252h60M297 252h60M367 252h60M157 253h60M227 253h60M297 253h60M367 253h60M157 254h60M227 254h60M297 254h60M367 254h60M157 255h60M227 255h60M297 255h60M367 255h60M157 256h60M227 256h60M297 256h60M367 256h60M157 257h60M227 257h60M297 257h60M367 257h60M157 258h60M227 258h60M297 258h60M367 258h60M157 259h60M227 259h60M297 259h60M367 259h60M157 260h60M227 260h60M297 260h60M367 260h60M157 261h60M227 261h60M297 261h60M367 261h60M157 262h60M227 262h60M297 262h60M367 262h60M157 263h60M227 263h60M297 263h60M367 263h60M157 264h60M227 264h60M297 264h60M367 264h60M157 265h60M227 265h60M297 265h60M367 265h60M157 266h60M227 266h60M297 266h60M367 266h60M157 267h60M227 267h60M297 267h60M367 267h60M157 268h60M227 268h60M297 268h60M367 268h60" />
<path stroke="#c9a5ec" d="M302 44h15M302 45h15M302 46h15M302 47h15M302 48h15" />
<path stroke="#fcd384" d="M27 49h60M147 49h50M227 49h55M327 49h60M422 49h35M27 50h60M147 50h50M227 50h55M327 50h60M422 50h35M27 51h60M147 51h50M227 51h55M327 51h60M422 51h35M27 52h60M147 52h50M227 52h55M327 52h60M422 52h35M27 53h60M147 53h50M227 53h55M327 53h60M422 53h35M27 54h5M77 54h10M147 54h50M227 54h5M262 54h5M287 54h10M302 54h20M327 54h60M452 54h5M27 55h5M77 55h10M147 55h50M227 55h5M262 55h5M287 55h10M302 55h20M327 55h60M452 55h5M27 56h5M77 56h10M147 56h50M227 56h5M262 56h5M287 56h10M302 56h20M327 56h60M452 56h5M27 57h5M77 57h10M147 57h50M227 57h5M262 57h5M287 57h10M302 57h20M327 57h60M452 57h5M27 58h5M77 58h10M147 58h50M227 58h5M262 58h5M287 58h10M302 58h20M327 58h60M452 58h5M27 59h60M147 59h30M182 59h20M222 59h70M332 59h50M432 59h25M27 60h60M147 60h30M182 60h20M222 60h70M332 60h50M432 60h25M27 61h60M147 61h30M182 61h20M222 61h70M332 61h50M432 61h25M27 62h60M147 62h30M182 62h20M222 62h70M332 62h50M432 62h25M27 63h60M147 63h30M182 63h20M222 63h70M332 63h50M432 63h25M27 64h5M57 64h5M82 64h5M147 64h25M182 64h60M272 64h5M287 64h130M437 64h5M452 64h5M27 65h5M57 65h5M82 65h5M147 65h25M182 65h60M272 65h5M287 65h130M437 65h5M452 65h5M27 66h5M57 66h5M82 66h5M147 66h25M182 66h60M272 66h5M287 66h130M437 66h5M452 66h5M27 67h5M57 67h5M82 67h5M147 67h25M182 67h60M272 67h5M287 67h130M437 67h5M452 67h5M27 68h5M57 68h5M82 68h5M147 68h25M182 68h60M272 68h5M287 68h130M437 68h5M452 68h5M27 69h60M147 69h25M192 69h265M27 70h60M147 70h25M192 70h265M27 71h60M147 71h25M192 71h265M27 72h60M147 72h25M192 72h265M27 73h60M147 73h25M192 73h265M27 74h5M52 74h5M77 74h20M132 74h35M197 74h45M252 74h5M297 74h100M452 74h5M27 75h5M52 75h5M77 75h20M132 75h35M197 75h45M252 75h5M297 75h100M452 75h5M27 76h5M52 76h5M77 76h20M132 76h35M197 76h45M252 76h5M297 76h100M452 76h5M27 77h5M52 77h5M77 77h20M132 77h35M197 77h45M252 77h5M297 77h100M452 77h5M27 78h5M52 78h5M77 78h20M132 78h35M197 78h45M252 78h5M297 78h100M452 78h5M27 79h70M132 79h35M197 79h260M27 80h70M132 80h35M197 80h260M27 81h70M132 81h35M197 81h260M27 82h70M132 82h35M197 82h260M27 83h70M132 83h35M197 83h260M27 84h5M62 84h5M92 84h5M102 84h5M112 84h5M122 84h5M132 84h35M197 84h210M417 84h5M452 84h5M27 85h5M62 85h5M92 85h5M102 85h5M112 85h5M122 85h5M132 85h35M197 85h210M417 85h5M452 85h5M27 86h5M62 86h5M92 86h5M102 86h5M112 86h5M122 86h5M132 86h35M197 86h210M417 86h5M452 86h5M27 87h5M62 87h5M92 87h5M102 87h5M112 87h5M122 87h5M132 87h35M197 87h210M417 87h5M452 87h5M27 88h5M62 88h5M92 88h5M102 88h5M112 88h5M122 88h5M132 88h35M197 88h210M417 88h5M452 88h5M27 89h145M192 89h5M212 89h5M237 89h220M27 90h145M192 90h5M212 90h5M237 90h220M27 91h145M192 91h5M212 91h5M237 91h220M27 92h145M192 92h5M212 92h5M237 92h220M27 93h145M192 93h5M212 93h5M237 93h220M27 94h5M77 94h350M452 94h5M27 95h5M77 95h350M452 95h5M27 96h5M77 96h350M452 96h5M27 97h5M77 97h350M452 97h5M27 98h5M77 98h350M452 98h5M27 99h175M227 99h5M257 99h200M27 100h175M227 100h5M257 100h200M27 101h175M227 101h5M257 101h200M27 102h175M227 102h5M257 102h200M27 103h175M227 103h5M257 103h200M27 104h430M27 105h430M27 106h430M27 107h430M27 108h430M27 109h70M27 110h70M27 111h70M27 112h70M27 113h70M27 114h70M27 115h70M27 116h70M27 117h70M27 118h70M27 119h70M27 120h70M27 121h70M27 122h70M27 123h70M27 124h70M27 125h70M27 126h70M27 127h70M27 128h70M27 129h70M27 130h70M27 131h70M27 132h70M27 133h70M27 134h70M27 135h70M27 136h70M27 137h70M27 138h70M27 139h70M27 140h70M27 141h70M27 142h70M27 143h70M27 144h70M27 145h70M27 146h70M27 147h70M27 148h70M27 149h70M27 150h70M27 151h70M27 152h70M27 153h70M27 154h20M77 154h20M27 155h20M77 155h20M27 156h20M77 156h20M27 157h20M77 157h20M27 158h20M77 158h20M27 159h5M77 159h20M27 160h5M77 160h20M27 161h5M77 161h20M27 162h5M77 162h20M27 163h5M77 163h20M27 164h15M77 164h20M27 165h15M77 165h20M27 166h15M77 166h20M27 167h15M77 167h20M27 168h15M77 168h20M27 169h5M77 169h20M27 170h5M77 170h20M27 171h5M77 171h20M27 172h5M77 172h20M27 173h5M77 173h20M27 174h20M77 174h5M92 174h5M27 175h20M77 175h5M92 175h5M27 176h20M77 176h5M92 176h5M27 177h20M77 177h5M92 177h5M27 178h20M77 178h5M92 178h5M27 179h70M27 180h70M27 181h70M27 182h70M27 183h70M27 184h30M72 184h5M92 184h5M27 185h30M72 185h5M92 185h5M27 186h30M72 186h5M92 186h5M27 187h30M72 187h5M92 187h5M27 188h30M72 188h5M92 188h5M27 189h70M27 190h70M27 191h70M27 192h70M27 193h70M27 194h40M92 194h5M27 195h40M92 195h5M27 196h40M92 196h5M27 197h40M92 197h5M27 198h40M92 198h5M27 199h70M27 200h70M27 201h70M27 202h70M27 203h70M27 204h70M27 205h70M27 206h70M27 207h70M27 208h70" />
<path stroke="#bb9855" d="M297 49h5M322 49h5M297 50h5M322 50h5M297 51h5M322 51h5M297 52h5M322 52h5M297 53h5M322 53h5M297 54h5M322 54h5M297 55h5M322 55h5M297 56h5M322 56h5M297 57h5M322 57h5M297 58h5M322 58h5M292 59h40M292 60h40M292 61h40M292 62h40M292 63h40" />
<path stroke="#ffe6b5" d="M32 54h45M232 54h30M267 54h20M32 55h45M232 55h30M267 55h20M32 56h45M232 56h30M267 56h20M32 57h45M232 57h30M267 57h20M32 58h45M232 58h30M267 58h20M32 64h25M242 64h30M442 64h10M32 65h25M242 65h30M442 65h10M32 66h25M242 66h30M442 66h10M32 67h25M242 67h30M442 67h10M32 68h25M242 68h30M442 68h10M57 74h20M257 74h40M57 75h20M257 75h40M57 76h20M257 76h40M57 77h20M257 77h40M57 78h20M257 78h40M32 84h30M407 84h10M32 85h30M407 85h10M32 86h30M407 86h10M32 87h30M407 87h10M32 88h30M407 88h10M427 94h25M427 95h25M427 96h25M427 97h25M427 98h25M232 99h25M232 100h25M232 101h25M232 102h25M232 103h25M57 184h15M77 184h15M57 185h15M77 185h15M57 186h15M77 186h15M57 187h15M77 187h15M57 188h15M77 188h15M67 194h25M67 195h25M67 196h25M67 197h25M67 198h25" />
<path stroke="#f4c975" d="M427 54h25M427 55h25M427 56h25M427 57h25M427 58h25M62 64h20M277 64h10M417 64h20M62 65h20M277 65h10M417 65h20M62 66h20M277 66h10M417 66h20M62 67h20M277 67h10M417 67h20M62 68h20M277 68h10M417 68h20M32 74h20M242 74h10M397 74h55M32 75h20M242 75h10M397 75h55M32 76h20M242 76h10M397 76h55M32 77h20M242 77h10M397 77h55M32 78h20M242 78h10M397 78h55M67 84h25M422 84h30M67 85h25M422 85h30M67 86h25M422 86h30M67 87h25M422 87h30M67 88h25M422 88h30M197 89h15M217 89h20M197 90h15M217 90h20M197 91h15M217 91h20M197 92h15M217 92h20M197 93h15M217 93h20M32 94h45M32 95h45M32 96h45M32 97h45M32 98h45M202 99h25M202 100h25M202 101h25M202 102h25M202 103h25M97 109h360M97 110h360M97 111h360M97 112h360M97 113h360M82 174h10M82 175h10M82 176h10M82 177h10M82 178h10" />
<path stroke="#4f6781" d="M97 114h355M97 115h355M97 116h355M97 117h355M97 118h355M97 119h250M352 119h35M392 119h35M432 119h20M97 120h250M352 120h35M392 120h35M432 120h20M97 121h250M352 121h35M392 121h35M432 121h20M97 122h250M352 122h35M392 122h35M432 122h20M97 123h250M352 123h35M392 123h35M432 123h20M97 124h250M352 124h35M392 124h35M432 124h20M97 125h250M352 125h35M392 125h35M432 125h20M97 126h250M352 126h35M392 126h35M432 126h20M97 127h250M352 127h35M392 127h35M432 127h20M97 128h250M352 128h35M392 128h35M432 128h20M97 129h355M97 130h355M97 131h355M97 132h355M97 133h355M97 134h355M97 135h355M97 136h355M97 137h355M97 138h355M32 209h60M32 210h60M32 211h60M32 212h60M32 213h60M32 214h60M32 215h60M32 216h60M32 217h60M32 218h60M32 219h60M32 220h60M32 221h60M32 222h60M32 223h60M32 224h60M32 225h60M32 226h60M32 227h60M32 228h60M32 229h60M32 230h60M32 231h60M32 232h60M32 233h60M32 234h60M32 235h60M32 236h60M32 237h60M32 238h60" />
<path stroke="rgba(0,0,0,0.09411764705882353)" d="M452 114h5M452 115h5M452 116h5M452 117h5M452 118h5M452 119h5M452 120h5M452 121h5M452 122h5M452 123h5M452 124h5M452 125h5M452 126h5M452 127h5M452 128h5M452 129h5M452 130h5M452 131h5M452 132h5M452 133h5M452 134h5M452 135h5M452 136h5M452 137h5M452 138h5M97 139h360M97 140h360M97 141h360M97 142h360M97 143h360M97 144h125M252 144h80M362 144h95M97 145h125M252 145h80M362 145h95M97 146h125M252 146h80M362 146h95M97 147h125M252 147h80M362 147h95M97 148h125M252 148h80M362 148h95M442 214h5M442 215h5M442 216h5M442 217h5M442 218h5M442 219h5M442 220h5M442 221h5M442 222h5M442 223h5M442 224h5M442 225h5M442 226h5M442 227h5M442 228h5M442 229h5M442 230h5M442 231h5M442 232h5M442 233h5M442 234h5M442 235h5M442 236h5M442 237h5M442 238h5M32 239h60M142 239h5M437 239h10M32 240h60M142 240h5M437 240h10M32 241h60M142 241h5M437 241h10M32 242h60M142 242h5M437 242h10M32 243h60M142 243h5M437 243h10M127 244h5M142 244h5M437 244h10M127 245h5M142 245h5M437 245h10M127 246h5M142 246h5M437 246h10M127 247h5M142 247h5M437 247h10M127 248h5M142 248h5M437 248h10M127 249h5M142 249h5M437 249h10M127 250h5M142 250h5M437 250h10M127 251h5M142 251h5M437 251h10M127 252h5M142 252h5M437 252h10M127 253h5M142 253h5M437 253h10M127 254h5M142 254h5M437 254h10M127 255h5M142 255h5M437 255h10M127 256h5M142 256h5M437 256h10M127 257h5M142 257h5M437 257h10M127 258h5M142 258h5M437 258h10M127 259h5M142 259h5M437 259h10M127 260h5M142 260h5M437 260h10M127 261h5M142 261h5M437 261h10M127 262h5M142 262h5M437 262h10M127 263h5M142 263h5M437 263h10M127 264h5M142 264h5M437 264h10M127 265h5M142 265h5M437 265h10M127 266h5M142 266h5M437 266h10M127 267h5M142 267h5M437 267h10M127 268h5M142 268h5M437 268h10M127 269h5M142 269h5M157 269h60M227 269h60M297 269h60M367 269h60M437 269h10M127 270h5M142 270h5M157 270h60M227 270h60M297 270h60M367 270h60M437 270h10M127 271h5M142 271h5M157 271h60M227 271h60M297 271h60M367 271h60M437 271h10M127 272h5M142 272h5M157 272h60M227 272h60M297 272h60M367 272h60M437 272h10M127 273h5M142 273h5M157 273h60M227 273h60M297 273h60M367 273h60M437 273h10M127 274h5M142 274h5M157 274h60M227 274h60M297 274h60M367 274h60M437 274h10M127 275h5M142 275h5M157 275h60M227 275h60M297 275h60M367 275h60M437 275h10M127 276h5M142 276h5M157 276h60M227 276h60M297 276h60M367 276h60M437 276h10M127 277h5M142 277h5M157 277h60M227 277h60M297 277h60M367 277h60M437 277h10M127 278h5M142 278h5M157 278h60M227 278h60M297 278h60M367 278h60M437 278h10M127 279h5M142 279h5M157 279h60M227 279h60M297 279h60M367 279h60M437 279h10M127 280h5M142 280h5M157 280h60M227 280h60M297 280h60M367 280h60M437 280h10M127 281h5M142 281h5M157 281h60M227 281h60M297 281h60M367 281h60M437 281h10M127 282h5M142 282h5M157 282h60M227 282h60M297 282h60M367 282h60M437 282h10M127 283h5M142 283h5M157 283h60M227 283h60M297 283h60M367 283h60M437 283h10M127 284h5M142 284h5M157 284h60M227 284h60M297 284h60M367 284h60M437 284h10M127 285h5M142 285h5M157 285h60M227 285h60M297 285h60M367 285h60M437 285h10M127 286h5M142 286h5M157 286h60M227 286h60M297 286h60M367 286h60M437 286h10M127 287h5M142 287h5M157 287h60M227 287h60M297 287h60M367 287h60M437 287h10M127 288h5M142 288h5M157 288h60M227 288h60M297 288h60M367 288h60M437 288h10M127 289h5M142 289h305M127 290h5M142 290h305M127 291h5M142 291h305M127 292h5M142 292h305M127 293h5M142 293h305M97 294h35M142 294h305M97 295h35M142 295h305M97 296h35M142 296h305M97 297h35M142 297h305M97 298h35M142 298h305" />
<path stroke="#c3bdb7" d="M347 119h5M387 119h5M427 119h5M347 120h5M387 120h5M427 120h5M347 121h5M387 121h5M427 121h5M347 122h5M387 122h5M427 122h5M347 123h5M387 123h5M427 123h5M347 124h5M387 124h5M427 124h5M347 125h5M387 125h5M427 125h5M347 126h5M387 126h5M427 126h5M347 127h5M387 127h5M427 127h5M347 128h5M387 128h5M427 128h5M407 154h5M407 155h5M407 156h5M407 157h5M407 158h5M407 159h10M407 160h10M407 161h10M407 162h10M407 163h10M407 164h15M407 165h15M407 166h15M407 167h15M407 168h15M407 169h15M407 170h15M407 171h15M407 172h15M407 173h15M402 174h25M402 175h25M402 176h25M402 177h25M402 178h25M402 179h25M402 180h25M402 181h25M402 182h25M402 183h25M402 184h25M402 185h25M402 186h25M402 187h25M402 188h25M402 189h25M402 190h25M402 191h25M402 192h25M402 193h25M402 194h25M402 195h25M402 196h25M402 197h25M402 198h25M402 199h25M402 200h25M402 201h25M402 202h25M402 203h25M147 239h290M147 240h290M147 241h290M147 242h290M147 243h290M147 244h10M217 244h10M287 244h10M357 244h10M427 244h10M147 245h10M217 245h10M287 245h10M357 245h10M427 245h10M147 246h10M217 246h10M287 246h10M357 246h10M427 246h10M147 247h10M217 247h10M287 247h10M357 247h10M427 247h10M147 248h10M217 248h10M287 248h10M357 248h10M427 248h10M147 249h10M217 249h10M287 249h10M357 249h10M427 249h10M147 250h10M217 250h10M287 250h10M357 250h10M427 250h10M147 251h10M217 251h10M287 251h10M357 251h10M427 251h10M147 252h10M217 252h10M287 252h10M357 252h10M427 252h10M147 253h10M217 253h10M287 253h10M357 253h10M427 253h10M147 254h10M217 254h10M287 254h10M357 254h10M427 254h10M147 255h10M217 255h10M287 255h10M357 255h10M427 255h10M147 256h10M217 256h10M287 256h10M357 256h10M427 256h10M147 257h10M217 257h10M287 257h10M357 257h10M427 257h10M147 258h10M217 258h10M287 258h10M357 258h10M427 258h10M147 259h10M217 259h10M287 259h10M357 259h10M427 259h10M147 260h10M217 260h10M287 260h10M357 260h10M427 260h10M147 261h10M217 261h10M287 261h10M357 261h10M427 261h10M147 262h10M217 262h10M287 262h10M357 262h10M427 262h10M147 263h10M217 263h10M287 263h10M357 263h10M427 263h10M147 264h10M217 264h10M287 264h10M357 264h10M427 264h10M147 265h10M217 265h10M287 265h10M357 265h10M427 265h10M147 266h10M217 266h10M287 266h10M357 266h10M427 266h10M147 267h10M217 267h10M287 267h10M357 267h10M427 267h10M147 268h10M217 268h10M287 268h10M357 268h10M427 268h10M147 269h10M217 269h10M287 269h10M357 269h10M427 269h10M147 270h10M217 270h10M287 270h10M357 270h10M427 270h10M147 271h10M217 271h10M287 271h10M357 271h10M427 271h10M147 272h10M217 272h10M287 272h10M357 272h10M427 272h10M147 273h10M217 273h10M287 273h10M357 273h10M427 273h10M147 274h10M217 274h10M287 274h10M357 274h10M427 274h10M147 275h10M217 275h10M287 275h10M357 275h10M427 275h10M147 276h10M217 276h10M287 276h10M357 276h10M427 276h10M147 277h10M217 277h10M287 277h10M357 277h10M427 277h10M147 278h10M217 278h10M287 278h10M357 278h10M427 278h10M147 279h10M217 279h10M287 279h10M357 279h10M427 279h10M147 280h10M217 280h10M287 280h10M357 280h10M427 280h10M147 281h10M217 281h10M287 281h10M357 281h10M427 281h10M147 282h10M217 282h10M287 282h10M357 282h10M427 282h10M147 283h10M217 283h10M287 283h10M357 283h10M427 283h10M147 284h10M217 284h10M287 284h10M357 284h10M427 284h10M147 285h10M217 285h10M287 285h10M357 285h10M427 285h10M147 286h10M217 286h10M287 286h10M357 286h10M427 286h10M147 287h10M217 287h10M287 287h10M357 287h10M427 287h10M147 288h10M217 288h10M287 288h10M357 288h10M427 288h10" />
<path stroke="#585653" d="M222 144h30M332 144h30M222 145h30M332 145h30M222 146h30M332 146h30M222 147h30M332 147h30M222 148h30M332 148h30M217 149h40M327 149h40M217 150h40M327 150h40M217 151h40M327 151h40M217 152h40M327 152h40M217 153h40M327 153h40M212 154h50M322 154h50M212 155h50M322 155h50M212 156h50M322 156h50M212 157h50M322 157h50M212 158h50M322 158h50M212 159h50M322 159h50M212 160h50M322 160h50M212 161h50M322 161h50M212 162h50M322 162h50M212 163h50M322 163h50M232 179h10M342 179h10M232 180h10M342 180h10M232 181h10M342 181h10M232 182h10M342 182h10M232 183h10M342 183h10M232 184h10M342 184h10M232 185h10M342 185h10M232 186h10M342 186h10M232 187h10M342 187h10M232 188h10M342 188h10M232 189h10M342 189h10M232 190h10M342 190h10M232 191h10M342 191h10M232 192h10M342 192h10M232 193h10M342 193h10M232 194h10M342 194h10M232 195h10M342 195h10M232 196h10M342 196h10M232 197h10M342 197h10M232 198h10M342 198h10M232 199h10M342 199h10M232 200h10M342 200h10M232 201h10M342 201h10M232 202h10M342 202h10M232 203h10M342 203h10M232 204h10M342 204h10M232 205h10M342 205h10M232 206h10M342 206h10M232 207h10M342 207h10M232 208h10M342 208h10M232 209h10M342 209h10M232 210h10M342 210h10M232 211h10M342 211h10M232 212h10M342 212h10M232 213h10M342 213h10" />
<path stroke="#ed4e06" d="M47 154h30M47 155h30M47 156h30M47 157h30M47 158h30M47 159h5M57 159h10M72 159h5M47 160h5M57 160h10M72 160h5M47 161h5M57 161h10M72 161h5M47 162h5M57 162h10M72 162h5M47 163h5M57 163h10M72 163h5M47 164h5M57 164h10M72 164h5M47 165h5M57 165h10M72 165h5M47 166h5M57 166h10M72 166h5M47 167h5M57 167h10M72 167h5M47 168h5M57 168h10M72 168h5M47 169h5M57 169h10M72 169h5M47 170h5M57 170h10M72 170h5M47 171h5M57 171h10M72 171h5M47 172h5M57 172h10M72 172h5M47 173h5M57 173h10M72 173h5M47 174h30M47 175h30M47 176h30M47 177h30M47 178h30" />
<path stroke="#000000" d="M207 164h60M317 164h60M207 165h60M317 165h60M207 166h60M317 166h60M207 167h60M317 167h60M207 168h60M317 168h60M207 169h60M317 169h60M207 170h60M317 170h60M207 171h60M317 171h60M207 172h60M317 172h60M207 173h60M317 173h60M207 174h60M317 174h60M207 175h60M317 175h60M207 176h60M317 176h60M207 177h60M317 177h60M207 178h60M317 178h60M207 179h25M242 179h25M317 179h25M352 179h25M207 180h25M242 180h25M317 180h25M352 180h25M207 181h25M242 181h25M317 181h25M352 181h25M207 182h25M242 182h25M317 182h25M352 182h25M207 183h25M242 183h25M317 183h25M352 183h25M207 184h25M242 184h25M317 184h25M352 184h25M207 185h25M242 185h25M317 185h25M352 185h25M207 186h25M242 186h25M317 186h25M352 186h25M207 187h25M242 187h25M317 187h25M352 187h25M207 188h25M242 188h25M317 188h25M352 188h25M207 189h25M242 189h25M317 189h25M352 189h25M207 190h25M242 190h25M317 190h25M352 190h25M207 191h25M242 191h25M317 191h25M352 191h25M207 192h25M242 192h25M317 192h25M352 192h25M207 193h25M242 193h25M317 193h25M352 193h25M207 194h25M242 194h25M317 194h25M352 194h25M207 195h25M242 195h25M317 195h25M352 195h25M207 196h25M242 196h25M317 196h25M352 196h25M207 197h25M242 197h25M317 197h25M352 197h25M207 198h25M242 198h25M317 198h25M352 198h25M207 199h25M242 199h25M317 199h25M352 199h25M207 200h25M242 200h25M317 200h25M352 200h25M207 201h25M242 201h25M317 201h25M352 201h25M207 202h25M242 202h25M317 202h25M352 202h25M207 203h25M242 203h25M317 203h25M352 203h25M97 219h30M97 220h30M97 221h30M97 222h30M97 223h30M97 224h5M122 224h5M97 225h5M122 225h5M97 226h5M122 226h5M97 227h5M122 227h5M97 228h5M122 228h5M97 229h5M122 229h5M97 230h5M122 230h5M97 231h5M122 231h5M97 232h5M122 232h5M97 233h5M122 233h5M97 234h5M122 234h5M97 235h5M122 235h5M97 236h5M122 236h5M97 237h5M122 237h5M97 238h5M122 238h5M97 239h5M122 239h5M97 240h5M122 240h5M97 241h5M122 241h5M97 242h5M122 242h5M97 243h5M122 243h5M97 244h5M122 244h5M97 245h5M122 245h5M97 246h5M122 246h5M97 247h5M122 247h5M97 248h5M122 248h5M97 249h5M122 249h5M97 250h5M122 250h5M97 251h5M122 251h5M97 252h5M122 252h5M97 253h5M122 253h5M97 254h30M97 255h30M97 256h30M97 257h30M97 258h30M97 259h30M97 260h30M97 261h30M97 262h30M97 263h30M97 264h30M97 265h30M97 266h30M97 267h30M97 268h30M97 269h30M97 270h30M97 271h30M97 272h30M97 273h30M97 274h30M97 275h30M97 276h30M97 277h30M97 278h30M97 279h30M97 280h30M97 281h30M97 282h30M97 283h30M97 284h30M97 285h30M97 286h30M97 287h30M97 288h30M97 289h30M97 290h30M97 291h30M97 292h30M97 293h30" />
<path stroke="#848484" d="M222 209h10M242 209h10M332 209h10M352 209h10M222 210h10M242 210h10M332 210h10M352 210h10M222 211h10M242 211h10M332 211h10M352 211h10M222 212h10M242 212h10M332 212h10M352 212h10M222 213h10M242 213h10M332 213h10M352 213h10M222 214h30M332 214h30M222 215h30M332 215h30M222 216h30M332 216h30M222 217h30M332 217h30M222 218h30M332 218h30" />
<path stroke="#ffed57" d="M287 209h10M287 210h10M287 211h10M287 212h10M287 213h10M287 214h10M287 215h10M287 216h10M287 217h10M287 218h10" />
<path stroke="#ff7c8e" d="M297 209h10M297 210h10M297 211h10M297 212h10M297 213h10M297 214h10M297 215h10M297 216h10M297 217h10M297 218h10" />
<path stroke="#cdc3c3" d="M102 224h20M102 225h20M102 226h20M102 227h20M102 228h20M102 229h20M102 230h20M102 231h20M102 232h20M102 233h20M102 234h20M102 235h20M102 236h20M102 237h20M102 238h20M102 239h20M102 240h20M102 241h20M102 242h20M102 243h20M102 244h20M102 245h20M102 246h20M102 247h20M102 248h20M102 249h20M102 250h20M102 251h20M102 252h20M102 253h20" />
</svg>