<svg xmlns="http://www.w3.org/2000/svg" viewBox="0 -0.5 560 385" shape-rendering="crispEdges">
<metadata>Made with Pixels to Svg https://codepen.io/shshaw/pen/XbxvNj</metadata>
<path stroke="#535252" d="M370 20h50M370 21h50M370 22h50M370 23h50M370 24h50M370 25h5M415 25h5M370 26h5M415 26h5M370 27h5M415 27h5M370 28h5M415 28h5M370 29h5M415 29h5M370 30h5M415 30h5M370 31h5M415 31h5M370 32h5M415 32h5M370 33h5M415 33h5M370 34h5M415 34h5M370 35h50M370 36h50M370 37h50M370 38h50M370 39h50M50 40h40M140 40h40M370 40h5M415 40h5M50 41h40M140 41h40M370 41h5M415 41h5M50 42h40M140 42h40M370 42h5M415 42h5M50 43h40M140 43h40M370 43h5M415 43h5M50 44h40M140 44h40M370 44h5M415 44h5M50 45h5M85 45h5M140 45h5M175 45h5M370 45h5M400 45h5M415 45h5M50 46h5M85 46h5M140 46h5M175 46h5M370 46h5M400 46h5M415 46h5M50 47h5M85 47h5M140 47h5M175 47h5M370 47h5M400 47h5M415 47h5M50 48h5M85 48h5M140 48h5M175 48h5M370 48h5M400 48h5M415 48h5M50 49h5M85 49h5M140 49h5M175 49h5M370 49h5M400 49h5M415 49h5M370 50h5M400 50h5M415 50h5M370 51h5M400 51h5M415 51h5M370 52h5M400 52h5M415 52h5M370 53h5M400 53h5M415 53h5M370 54h5M400 54h5M415 54h5M50 55h40M140 55h40M225 55h50M370 55h5M415 55h5M50 56h40M140 56h40M225 56h50M370 56h5M415 56h5M50 57h40M140 57h40M225 57h50M370 57h5M415 57h5M50 58h40M140 58h40M225 58h50M370 58h5M415 58h5M50 59h40M140 59h40M225 59h50M370 59h5M415 59h5M50 60h5M85 60h5M140 60h5M175 60h5M225 60h10M255 60h5M265 60h10M370 60h5M415 60h5M50 61h5M85 61h5M140 61h5M175 61h5M225 61h10M255 61h5M265 61h10M370 61h5M415 61h5M50 62h5M85 62h5M140 62h5M175 62h5M225 62h10M255 62h5M265 62h10M370 62h5M415 62h5M50 63h5M85 63h5M140 63h5M175 63h5M225 63h10M255 63h5M265 63h10M370 63h5M415 63h5M50 64h5M85 64h5M140 64h5M175 64h5M225 64h10M255 64h5M265 64h10M370 64h5M415 64h5M50 65h5M85 65h5M140 65h5M175 65h5M225 65h10M255 65h5M265 65h10M370 65h5M415 65h5M50 66h5M85 66h5M140 66h5M175 66h5M225 66h10M255 66h5M265 66h10M370 66h5M415 66h5M50 67h5M85 67h5M140 67h5M175 67h5M225 67h10M255 67h5M265 67h10M370 67h5M415 67h5M50 68h5M85 68h5M140 68h5M175 68h5M225 68h10M255 68h5M265 68h10M370 68h5M415 68h5M50 69h5M85 69h5M140 69h5M175 69h5M225 69h10M255 69h5M265 69h10M370 69h5M415 69h5M50 70h5M85 70h5M140 70h5M175 70h5M225 70h10M265 70h10M370 70h5M380 70h30M415 70h5M50 71h5M85 71h5M140 71h5M175 71h5M225 71h10M265 71h10M370 71h5M380 71h30M415 71h5M50 72h5M85 72h5M140 72h5M175 72h5M225 72h10M265 72h10M370 72h5M380 72h30M415 72h5M50 73h5M85 73h5M140 73h5M175 73h5M225 73h10M265 73h10M370 73h5M380 73h30M415 73h5M50 74h5M85 74h5M140 74h5M175 74h5M225 74h10M265 74h10M370 74h5M380 74h30M415 74h5M50 75h5M85 75h5M140 75h5M175 75h5M225 75h50M370 75h5M415 75h5M50 76h5M85 76h5M140 76h5M175 76h5M225 76h50M370 76h5M415 76h5M50 77h5M85 77h5M140 77h5M175 77h5M225 77h50M370 77h5M415 77h5M50 78h5M85 78h5M140 78h5M175 78h5M225 78h50M370 78h5M415 78h5M50 79h5M85 79h5M140 79h5M175 79h5M225 79h50M370 79h5M415 79h5M50 80h40M140 80h40M225 80h10M265 80h10M370 80h50M50 81h40M140 81h40M225 81h10M265 81h10M370 81h50M50 82h40M140 82h40M225 82h10M265 82h10M370 82h50M50 83h40M140 83h40M225 83h10M265 83h10M370 83h50M50 84h40M140 84h40M225 84h10M265 84h10M370 84h50M50 85h5M85 85h5M140 85h5M175 85h5M225 85h50M50 86h5M85 86h5M140 86h5M175 86h5M225 86h50M50 87h5M85 87h5M140 87h5M175 87h5M225 87h50M50 88h5M85 88h5M140 88h5M175 88h5M225 88h50M50 89h5M85 89h5M140 89h5M175 89h5M225 89h50M50 90h40M140 90h40M50 91h40M140 91h40M50 92h40M140 92h40M50 93h40M140 93h40M50 94h40M140 94h40M45 125h50M45 126h50M45 127h50M45 128h50M45 129h50M45 130h5M90 130h5M45 131h5M90 131h5M45 132h5M90 132h5M45 133h5M90 133h5M45 134h5M90 134h5M45 135h5M90 135h5M45 136h5M90 136h5M45 137h5M90 137h5M45 138h5M90 138h5M45 139h5M90 139h5M45 140h50M45 141h50M45 142h50M45 143h50M45 144h50M45 145h5M90 145h5M45 146h5M90 146h5M45 147h5M90 147h5M45 148h5M90 148h5M45 149h5M90 149h5M45 150h5M75 150h5M90 150h5M45 151h5M75 151h5M90 151h5M45 152h5M75 152h5M90 152h5M45 153h5M75 153h5M90 153h5M45 154h5M75 154h5M90 154h5M45 155h5M75 155h5M90 155h5M45 156h5M75 156h5M90 156h5M45 157h5M75 157h5M90 157h5M45 158h5M75 158h5M90 158h5M45 159h5M75 159h5M90 159h5M45 160h5M90 160h5M45 161h5M90 161h5M45 162h5M90 162h5M45 163h5M90 163h5M45 164h5M90 164h5M45 165h5M90 165h5M45 166h5M90 166h5M45 167h5M90 167h5M45 168h5M90 168h5M45 169h5M90 169h5M45 170h5M90 170h5M45 171h5M90 171h5M45 172h5M90 172h5M45 173h5M90 173h5M45 174h5M90 174h5M45 175h5M55 175h30M90 175h5M45 176h5M55 176h30M90 176h5M45 177h5M55 177h30M90 177h5M45 178h5M55 178h30M90 178h5M45 179h5M55 179h30M90 179h5M45 180h5M90 180h5M45 181h5M90 181h5M45 182h5M90 182h5M45 183h5M90 183h5M45 184h5M90 184h5M45 185h50M45 186h50M45 187h50M45 188h50M45 189h50M445 195h40M445 196h40M445 197h40M445 198h40M445 199h40M445 200h5M480 200h5M445 201h5M480 201h5M445 202h5M480 202h5M445 203h5M480 203h5M445 204h5M480 204h5M445 210h40M445 211h40M445 212h40M445 213h40M445 214h40M445 215h5M480 215h5M445 216h5M480 216h5M445 217h5M480 217h5M445 218h5M480 218h5M445 219h5M480 219h5M445 220h5M480 220h5M445 221h5M480 221h5M445 222h5M480 222h5M445 223h5M480 223h5M445 224h5M480 224h5M445 225h5M480 225h5M445 226h5M480 226h5M445 227h5M480 227h5M445 228h5M480 228h5M445 229h5M480 229h5M445 230h5M480 230h5M445 231h5M480 231h5M445 232h5M480 232h5M445 233h5M480 233h5M445 234h5M480 234h5M445 235h40M445 236h40M445 237h40M445 238h40M445 239h40M445 240h5M480 240h5M445 241h5M480 241h5M445 242h5M480 242h5M445 243h5M480 243h5M445 244h5M480 244h5M445 245h40M445 246h40M445 247h40M445 248h40M445 249h40" />
<path stroke="#e54e3b" d="M375 25h40M375 26h40M375 27h40M375 28h40M375 29h40M375 30h5M410 30h5M375 31h5M410 31h5M375 32h5M410 32h5M375 33h5M410 33h5M375 34h5M410 34h5M45 35h50M135 35h50M230 35h40M45 36h50M135 36h50M230 36h40M45 37h50M135 37h50M230 37h40M45 38h50M135 38h50M230 38h40M45 39h50M135 39h50M230 39h40M45 40h5M90 40h5M135 40h5M180 40h5M225 40h50M375 40h40M45 41h5M90 41h5M135 41h5M180 41h5M225 41h50M375 41h40M45 42h5M90 42h5M135 42h5M180 42h5M225 42h50M375 42h40M45 43h5M90 43h5M135 43h5M180 43h5M225 43h50M375 43h40M45 44h5M90 44h5M135 44h5M180 44h5M225 44h50M375 44h40M45 45h5M90 45h5M135 45h5M180 45h5M225 45h10M265 45h10M375 45h5M410 45h5M45 46h5M90 46h5M135 46h5M180 46h5M225 46h10M265 46h10M375 46h5M410 46h5M45 47h5M90 47h5M135 47h5M180 47h5M225 47h10M265 47h10M375 47h5M410 47h5M45 48h5M90 48h5M135 48h5M180 48h5M225 48h10M265 48h10M375 48h5M410 48h5M45 49h5M90 49h5M135 49h5M180 49h5M225 49h10M265 49h10M375 49h5M410 49h5M45 50h50M135 50h50M225 50h50M375 50h5M410 50h5M45 51h50M135 51h50M225 51h50M375 51h5M410 51h5M45 52h50M135 52h50M225 52h50M375 52h5M410 52h5M45 53h50M135 53h50M225 53h50M375 53h5M410 53h5M45 54h50M135 54h50M225 54h50M375 54h5M410 54h5M45 55h5M90 55h5M135 55h5M180 55h5M375 55h5M410 55h5M45 56h5M90 56h5M135 56h5M180 56h5M375 56h5M410 56h5M45 57h5M90 57h5M135 57h5M180 57h5M375 57h5M410 57h5M45 58h5M90 58h5M135 58h5M180 58h5M375 58h5M410 58h5M45 59h5M90 59h5M135 59h5M180 59h5M375 59h5M410 59h5M45 60h5M90 60h5M135 60h5M180 60h5M375 60h5M410 60h5M45 61h5M90 61h5M135 61h5M180 61h5M375 61h5M410 61h5M45 62h5M90 62h5M135 62h5M180 62h5M375 62h5M410 62h5M45 63h5M90 63h5M135 63h5M180 63h5M375 63h5M410 63h5M45 64h5M90 64h5M135 64h5M180 64h5M375 64h5M410 64h5M45 65h5M90 65h5M135 65h5M180 65h5M375 65h40M45 66h5M90 66h5M135 66h5M180 66h5M375 66h40M45 67h5M90 67h5M135 67h5M180 67h5M375 67h40M45 68h5M90 68h5M135 68h5M180 68h5M375 68h40M45 69h5M90 69h5M135 69h5M180 69h5M375 69h40M45 70h5M90 70h5M135 70h5M180 70h5M375 70h5M410 70h5M45 71h5M90 71h5M135 71h5M180 71h5M375 71h5M410 71h5M45 72h5M90 72h5M135 72h5M180 72h5M375 72h5M410 72h5M45 73h5M90 73h5M135 73h5M180 73h5M375 73h5M410 73h5M45 74h5M90 74h5M135 74h5M180 74h5M375 74h5M410 74h5M45 75h5M90 75h5M135 75h5M180 75h5M375 75h40M45 76h5M90 76h5M135 76h5M180 76h5M375 76h40M45 77h5M90 77h5M135 77h5M180 77h5M375 77h40M45 78h5M90 78h5M135 78h5M180 78h5M375 78h40M45 79h5M90 79h5M135 79h5M180 79h5M375 79h40M45 80h5M90 80h5M135 80h5M180 80h5M45 81h5M90 81h5M135 81h5M180 81h5M45 82h5M90 82h5M135 82h5M180 82h5M45 83h5M90 83h5M135 83h5M180 83h5M45 84h5M90 84h5M135 84h5M180 84h5M45 85h5M90 85h5M135 85h5M180 85h5M45 86h5M90 86h5M135 86h5M180 86h5M45 87h5M90 87h5M135 87h5M180 87h5M45 88h5M90 88h5M135 88h5M180 88h5M45 89h5M90 89h5M135 89h5M180 89h5M45 90h5M90 90h5M135 90h5M180 90h5M225 90h50M45 91h5M90 91h5M135 91h5M180 91h5M225 91h50M45 92h5M90 92h5M135 92h5M180 92h5M225 92h50M45 93h5M90 93h5M135 93h5M180 93h5M225 93h50M45 94h5M90 94h5M135 94h5M180 94h5M225 94h50M45 95h50M135 95h50M230 95h40M45 96h50M135 96h50M230 96h40M45 97h50M135 97h50M230 97h40M45 98h50M135 98h50M230 98h40M45 99h50M135 99h50M230 99h40M50 130h40M50 131h40M50 132h40M50 133h40M50 134h40M50 135h5M85 135h5M50 136h5M85 136h5M50 137h5M85 137h5M50 138h5M85 138h5M50 139h5M85 139h5M50 145h40M50 146h40M50 147h40M50 148h40M50 149h40M50 150h5M85 150h5M50 151h5M85 151h5M50 152h5M85 152h5M50 153h5M85 153h5M50 154h5M85 154h5M50 155h5M85 155h5M50 156h5M85 156h5M50 157h5M85 157h5M50 158h5M85 158h5M50 159h5M85 159h5M50 160h5M85 160h5M50 161h5M85 161h5M50 162h5M85 162h5M50 163h5M85 163h5M50 164h5M85 164h5M50 165h5M85 165h5M50 166h5M85 166h5M50 167h5M85 167h5M50 168h5M85 168h5M50 169h5M85 169h5M50 170h40M50 171h40M50 172h40M50 173h40M50 174h40M50 175h5M85 175h5M50 176h5M85 176h5M50 177h5M85 177h5M50 178h5M85 178h5M50 179h5M85 179h5M50 180h40M50 181h40M50 182h40M50 183h40M50 184h40M440 190h50M440 191h50M440 192h50M440 193h50M440 194h50M440 195h5M485 195h5M440 196h5M485 196h5M440 197h5M485 197h5M440 198h5M485 198h5M440 199h5M485 199h5M440 200h5M485 200h5M440 201h5M485 201h5M440 202h5M485 202h5M440 203h5M485 203h5M440 204h5M485 204h5M440 205h50M440 206h50M440 207h50M440 208h50M440 209h50M440 210h5M485 210h5M440 211h5M485 211h5M440 212h5M485 212h5M440 213h5M485 213h5M440 214h5M485 214h5M440 215h5M485 215h5M440 216h5M485 216h5M440 217h5M485 217h5M440 218h5M485 218h5M440 219h5M485 219h5M440 220h5M485 220h5M440 221h5M485 221h5M440 222h5M485 222h5M440 223h5M485 223h5M440 224h5M485 224h5M440 225h5M485 225h5M440 226h5M485 226h5M440 227h5M485 227h5M440 228h5M485 228h5M440 229h5M485 229h5M440 230h5M485 230h5M440 231h5M485 231h5M440 232h5M485 232h5M440 233h5M485 233h5M440 234h5M485 234h5M440 235h5M485 235h5M440 236h5M485 236h5M440 237h5M485 237h5M440 238h5M485 238h5M440 239h5M485 239h5M440 240h5M485 240h5M440 241h5M485 241h5M440 242h5M485 242h5M440 243h5M485 243h5M440 244h5M485 244h5M440 245h5M485 245h5M440 246h5M485 246h5M440 247h5M485 247h5M440 248h5M485 248h5M440 249h5M485 249h5M440 250h50M440 251h50M440 252h50M440 253h50M440 254h50" />
<path stroke="#fcd384" d="M30 45h15M55 45h30M95 45h40M145 45h30M185 45h40M235 45h30M275 45h15M345 45h25M380 45h20M405 45h5M420 45h125M30 46h15M55 46h30M95 46h40M145 46h30M185 46h40M235 46h30M275 46h15M345 46h25M380 46h20M405 46h5M420 46h125M30 47h15M55 47h30M95 47h40M145 47h30M185 47h40M235 47h30M275 47h15M345 47h25M380 47h20M405 47h5M420 47h125M30 48h15M55 48h30M95 48h40M145 48h30M185 48h40M235 48h30M275 48h15M345 48h25M380 48h20M405 48h5M420 48h125M30 49h15M55 49h30M95 49h40M145 49h30M185 49h40M235 49h30M275 49h15M345 49h25M380 49h20M405 49h5M420 49h125M30 50h15M95 50h40M205 50h5M220 50h5M285 50h5M345 50h25M380 50h20M405 50h5M420 50h125M30 51h15M95 51h40M205 51h5M220 51h5M285 51h5M345 51h25M380 51h20M405 51h5M420 51h125M30 52h15M95 52h40M205 52h5M220 52h5M285 52h5M345 52h25M380 52h20M405 52h5M420 52h125M30 53h15M95 53h40M205 53h5M220 53h5M285 53h5M345 53h25M380 53h20M405 53h5M420 53h125M30 54h15M95 54h40M205 54h5M220 54h5M285 54h5M345 54h25M380 54h20M405 54h5M420 54h125M30 55h15M95 55h40M185 55h40M275 55h15M345 55h25M380 55h30M420 55h75M505 55h5M540 55h5M30 56h15M95 56h40M185 56h40M275 56h15M345 56h25M380 56h30M420 56h75M505 56h5M540 56h5M30 57h15M95 57h40M185 57h40M275 57h15M345 57h25M380 57h30M420 57h75M505 57h5M540 57h5M30 58h15M95 58h40M185 58h40M275 58h15M345 58h25M380 58h30M420 58h75M505 58h5M540 58h5M30 59h15M95 59h40M185 59h40M275 59h15M345 59h25M380 59h30M420 59h75M505 59h5M540 59h5M30 60h15M55 60h20M80 60h5M95 60h40M145 60h20M170 60h5M185 60h5M215 60h10M235 60h20M285 60h5M345 60h25M380 60h30M420 60h125M30 61h15M55 61h20M80 61h5M95 61h40M145 61h20M170 61h5M185 61h5M215 61h10M235 61h20M285 61h5M345 61h25M380 61h30M420 61h125M30 62h15M55 62h20M80 62h5M95 62h40M145 62h20M170 62h5M185 62h5M215 62h10M235 62h20M285 62h5M345 62h25M380 62h30M420 62h125M30 63h15M55 63h20M80 63h5M95 63h40M145 63h20M170 63h5M185 63h5M215 63h10M235 63h20M285 63h5M345 63h25M380 63h30M420 63h125M30 64h15M55 64h20M80 64h5M95 64h40M145 64h20M170 64h5M185 64h5M215 64h10M235 64h20M285 64h5M345 64h25M380 64h30M420 64h125M30 65h15M55 65h30M95 65h40M145 65h20M170 65h5M185 65h40M235 65h20M260 65h5M275 65h15M345 65h25M420 65h65M520 65h5M540 65h5M30 66h15M55 66h30M95 66h40M145 66h20M170 66h5M185 66h40M235 66h20M260 66h5M275 66h15M345 66h25M420 66h65M520 66h5M540 66h5M30 67h15M55 67h30M95 67h40M145 67h20M170 67h5M185 67h40M235 67h20M260 67h5M275 67h15M345 67h25M420 67h65M520 67h5M540 67h5M30 68h15M55 68h30M95 68h40M145 68h20M170 68h5M185 68h40M235 68h20M260 68h5M275 68h15M345 68h25M420 68h65M520 68h5M540 68h5M30 69h15M55 69h30M95 69h40M145 69h20M170 69h5M185 69h40M235 69h20M260 69h5M275 69h15M345 69h25M420 69h65M520 69h5M540 69h5M30 70h15M55 70h30M95 70h40M145 70h30M185 70h40M235 70h30M275 70h15M345 70h25M420 70h125M30 71h15M55 71h30M95 71h40M145 71h30M185 71h40M235 71h30M275 71h15M345 71h25M420 71h125M30 72h15M55 72h30M95 72h40M145 72h30M185 72h40M235 72h30M275 72h15M345 72h25M420 72h125M30 73h15M55 73h30M95 73h40M145 73h30M185 73h40M235 73h30M275 73h15M345 73h25M420 73h125M30 74h15M55 74h30M95 74h40M145 74h30M185 74h40M235 74h30M275 74h15M345 74h25M420 74h125M30 75h15M55 75h30M95 75h40M145 75h30M185 75h40M275 75h15M345 75h25M420 75h75M540 75h5M30 76h15M55 76h30M95 76h40M145 76h30M185 76h40M275 76h15M345 76h25M420 76h75M540 76h5M30 77h15M55 77h30M95 77h40M145 77h30M185 77h40M275 77h15M345 77h25M420 77h75M540 77h5M30 78h15M55 78h30M95 78h40M145 78h30M185 78h40M275 78h15M345 78h25M420 78h75M540 78h5M30 79h15M55 79h30M95 79h40M145 79h30M185 79h40M275 79h15M345 79h25M420 79h75M540 79h5M30 80h15M95 80h40M185 80h40M235 80h30M275 80h15M345 80h25M420 80h75M530 80h15M30 81h15M95 81h40M185 81h40M235 81h30M275 81h15M345 81h25M420 81h75M530 81h15M30 82h15M95 82h40M185 82h40M235 82h30M275 82h15M345 82h25M420 82h75M530 82h15M30 83h15M95 83h40M185 83h40M235 83h30M275 83h15M345 83h25M420 83h75M530 83h15M30 84h15M95 84h40M185 84h40M235 84h30M275 84h15M345 84h25M420 84h75M530 84h15M30 85h15M95 85h40M185 85h40M275 85h15M345 85h150M530 85h15M30 86h15M95 86h40M185 86h40M275 86h15M345 86h150M530 86h15M30 87h15M95 87h40M185 87h40M275 87h15M345 87h150M530 87h15M30 88h15M95 88h40M185 88h40M275 88h15M345 88h150M530 88h15M30 89h15M95 89h40M185 89h40M275 89h15M345 89h150M530 89h15M30 90h15M95 90h40M185 90h40M275 90h15M345 90h5M370 90h5M395 90h100M500 90h25M530 90h15M30 91h15M95 91h40M185 91h40M275 91h15M345 91h5M370 91h5M395 91h100M500 91h25M530 91h15M30 92h15M95 92h40M185 92h40M275 92h15M345 92h5M370 92h5M395 92h100M500 92h25M530 92h15M30 93h15M95 93h40M185 93h40M275 93h15M345 93h5M370 93h5M395 93h100M500 93h25M530 93h15M30 94h15M95 94h40M185 94h40M275 94h15M345 94h5M370 94h5M395 94h100M500 94h25M530 94h15M30 95h15M95 95h40M185 95h45M270 95h20M345 95h200M30 96h15M95 96h40M185 96h45M270 96h20M345 96h200M30 97h15M95 97h40M185 97h45M270 97h20M345 97h200M30 98h15M95 98h40M185 98h45M270 98h20M345 98h200M30 99h15M95 99h40M185 99h45M270 99h20M345 99h200M30 100h260M345 100h5M385 100h5M395 100h150M30 101h260M345 101h5M385 101h5M395 101h150M30 102h260M345 102h5M385 102h5M395 102h150M30 103h260M345 103h5M385 103h5M395 103h150M30 104h260M345 104h5M385 104h5M395 104h150M30 105h45M100 105h5M30 106h45M100 106h5M30 107h45M100 107h5M30 108h45M100 108h5M30 109h45M100 109h5M30 110h75M30 111h75M30 112h75M30 113h75M30 114h75M30 115h35M85 115h5M100 115h5M30 116h35M85 116h5M100 116h5M30 117h35M85 117h5M100 117h5M30 118h35M85 118h5M100 118h5M30 119h35M85 119h5M100 119h5M30 120h75M30 121h75M30 122h75M30 123h75M30 124h75M30 125h15M100 125h5M30 126h15M100 126h5M30 127h15M100 127h5M30 128h15M100 128h5M30 129h15M100 129h5M30 130h15M95 130h10M30 131h15M95 131h10M30 132h15M95 132h10M30 133h15M95 133h10M30 134h15M95 134h10M30 135h15M55 135h30M95 135h10M30 136h15M55 136h30M95 136h10M30 137h15M55 137h30M95 137h10M30 138h15M55 138h30M95 138h10M30 139h15M55 139h30M95 139h10M30 140h15M95 140h10M30 141h15M95 141h10M30 142h15M95 142h10M30 143h15M95 143h10M30 144h15M95 144h10M30 145h15M95 145h10M145 145h25M225 145h25M30 146h15M95 146h10M145 146h25M225 146h25M30 147h15M95 147h10M145 147h25M225 147h25M30 148h15M95 148h10M145 148h25M225 148h25M30 149h15M95 149h10M145 149h25M225 149h25M30 150h15M55 150h20M80 150h5M95 150h10M145 150h25M225 150h25M30 151h15M55 151h20M80 151h5M95 151h10M145 151h25M225 151h25M30 152h15M55 152h20M80 152h5M95 152h10M145 152h25M225 152h25M30 153h15M55 153h20M80 153h5M95 153h10M145 153h25M225 153h25M30 154h15M55 154h20M80 154h5M95 154h10M145 154h25M225 154h25M30 155h15M55 155h20M80 155h5M95 155h10M140 155h5M170 155h5M220 155h5M250 155h5M30 156h15M55 156h20M80 156h5M95 156h10M140 156h5M170 156h5M220 156h5M250 156h5M30 157h15M55 157h20M80 157h5M95 157h10M140 157h5M170 157h5M220 157h5M250 157h5M30 158h15M55 158h20M80 158h5M95 158h10M140 158h5M170 158h5M220 158h5M250 158h5M30 159h15M55 159h20M80 159h5M95 159h10M140 159h5M170 159h5M220 159h5M250 159h5M30 160h15M55 160h30M95 160h10M145 160h25M225 160h25M30 161h15M55 161h30M95 161h10M145 161h25M225 161h25M30 162h15M55 162h30M95 162h10M145 162h25M225 162h25M30 163h15M55 163h30M95 163h10M145 163h25M225 163h25M30 164h15M55 164h30M95 164h10M145 164h25M225 164h25M30 165h15M55 165h30M95 165h10M30 166h15M55 166h30M95 166h10M30 167h15M55 167h30M95 167h10M30 168h15M55 168h30M95 168h10M30 169h15M55 169h30M95 169h10M30 170h15M95 170h10M30 171h15M95 171h10M30 172h15M95 172h10M30 173h15M95 173h10M30 174h15M95 174h10M30 175h15M95 175h10M30 176h15M95 176h10M30 177h15M95 177h10M30 178h15M95 178h10M30 179h15M95 179h10M30 180h5M95 180h10M30 181h5M95 181h10M30 182h5M95 182h10M30 183h5M95 183h10M30 184h5M95 184h10M30 185h15M95 185h10M30 186h15M95 186h10M30 187h15M95 187h10M30 188h15M95 188h10M30 189h15M95 189h10M30 190h5M65 190h40M30 191h5M65 191h40M30 192h5M65 192h40M30 193h5M65 193h40M30 194h5M65 194h40M30 195h75M30 196h75M30 197h75M30 198h75M30 199h75M345 215h95M450 215h20M475 215h5M490 215h55M345 216h95M450 216h20M475 216h5M490 216h55M345 217h95M450 217h20M475 217h5M490 217h55M345 218h95M450 218h20M475 218h5M490 218h55M345 219h95M450 219h20M475 219h5M490 219h55M345 220h60M425 220h5M455 220h10M475 220h5M490 220h55M345 221h60M425 221h5M455 221h10M475 221h5M490 221h55M345 222h60M425 222h5M455 222h10M475 222h5M490 222h55M345 223h60M425 223h5M455 223h10M475 223h5M490 223h55M345 224h60M425 224h5M455 224h10M475 224h5M490 224h55M345 225h95M450 225h15M475 225h5M490 225h55M345 226h95M450 226h15M475 226h5M490 226h55M345 227h95M450 227h15M475 227h5M490 227h55M345 228h95M450 228h15M475 228h5M490 228h55M345 229h95M450 229h15M475 229h5M490 229h55M345 230h50M415 230h5M450 230h30M490 230h55M345 231h50M415 231h5M450 231h30M490 231h55M345 232h50M415 232h5M450 232h30M490 232h55M345 233h50M415 233h5M450 233h30M490 233h55M345 234h50M415 234h5M450 234h30M490 234h55M345 235h95M490 235h55M345 236h95M490 236h55M345 237h95M490 237h55M345 238h95M490 238h55M345 239h95M490 239h55M345 240h95M490 240h55M345 241h95M490 241h55M345 242h95M490 242h55M345 243h95M490 243h55M345 244h95M490 244h55M345 245h95M490 245h55M345 246h95M490 246h55M345 247h95M490 247h55M345 248h95M490 248h55M345 249h95M490 249h55M345 250h5M370 250h5M390 250h50M490 250h55M345 251h5M370 251h5M390 251h50M490 251h55M345 252h5M370 252h5M390 252h50M490 252h55M345 253h5M370 253h5M390 253h50M490 253h55M345 254h5M370 254h5M390 254h50M490 254h55M345 255h155M525 255h5M540 255h5M345 256h155M525 256h5M540 256h5M345 257h155M525 257h5M540 257h5M345 258h155M525 258h5M540 258h5M345 259h155M525 259h5M540 259h5M345 260h5M360 260h5M395 260h150M345 261h5M360 261h5M395 261h150M345 262h5M360 262h5M395 262h150M345 263h5M360 263h5M395 263h150M345 264h5M360 264h5M395 264h150M345 265h160M515 265h5M540 265h5M345 266h160M515 266h5M540 266h5M345 267h160M515 267h5M540 267h5M345 268h160M515 268h5M540 268h5M345 269h160M515 269h5M540 269h5M345 270h5M375 270h5M385 270h160M345 271h5M375 271h5M385 271h160M345 272h5M375 272h5M385 272h160M345 273h5M375 273h5M385 273h160M345 274h5M375 274h5M385 274h160M390 310h25M390 311h25M390 312h25M390 313h25M390 314h25M390 315h25M390 316h25M390 317h25M390 318h25M390 319h25M385 320h5M415 320h5M385 321h5M415 321h5M385 322h5M415 322h5M385 323h5M415 323h5M385 324h5M415 324h5M390 325h25M460 325h25M390 326h25M460 326h25M390 327h25M460 327h25M390 328h25M460 328h25M390 329h25M460 329h25M460 330h30M460 331h30M460 332h30M460 333h30M460 334h30M455 335h5M485 335h5M455 336h5M485 336h5M455 337h5M485 337h5M455 338h5M485 338h5M455 339h5M485 339h5M460 340h25M460 341h25M460 342h25M460 343h25M460 344h25" />
<path stroke="#ffde9e" d="M185 50h20M210 50h10M275 50h10M185 51h20M210 51h10M275 51h10M185 52h20M210 52h10M275 52h10M185 53h20M210 53h10M275 53h10M185 54h20M210 54h10M275 54h10M190 60h25M260 60h5M275 60h10M190 61h25M260 61h5M275 61h10M190 62h25M260 62h5M275 62h10M190 63h25M260 63h5M275 63h10M190 64h25M260 64h5M275 64h10M75 105h25M75 106h25M75 107h25M75 108h25M75 109h25M65 115h20M90 115h10M65 116h20M90 116h10M65 117h20M90 117h10M65 118h20M90 118h10M65 119h20M90 119h10M95 125h5M95 126h5M95 127h5M95 128h5M95 129h5M140 150h5M170 150h5M220 150h5M250 150h5M140 151h5M170 151h5M220 151h5M250 151h5M140 152h5M170 152h5M220 152h5M250 152h5M140 153h5M170 153h5M220 153h5M250 153h5M140 154h5M170 154h5M220 154h5M250 154h5M145 155h25M225 155h25M145 156h25M225 156h25M145 157h25M225 157h25M145 158h25M225 158h25M145 159h25M225 159h25M35 180h10M35 181h10M35 182h10M35 183h10M35 184h10M35 190h30M35 191h30M35 192h30M35 193h30M35 194h30M385 315h5M415 315h5M385 316h5M415 316h5M385 317h5M415 317h5M385 318h5M415 318h5M385 319h5M415 319h5M390 320h25M390 321h25M390 322h25M390 323h25M390 324h25M455 330h5M455 331h5M455 332h5M455 333h5M455 334h5M460 335h25M460 336h25M460 337h25M460 338h25M460 339h25" />
<path stroke="#ffe6b5" d="M495 55h10M510 55h30M495 56h10M510 56h30M495 57h10M510 57h30M495 58h10M510 58h30M495 59h10M510 59h30M485 65h35M525 65h15M485 66h35M525 66h15M485 67h35M525 67h15M485 68h35M525 68h15M485 69h35M525 69h15M530 75h10M530 76h10M530 77h10M530 78h10M530 79h10M350 90h20M375 90h20M350 91h20M375 91h20M350 92h20M375 92h20M350 93h20M375 93h20M350 94h20M375 94h20M350 100h35M390 100h5M350 101h35M390 101h5M350 102h35M390 102h5M350 103h35M390 103h5M350 104h35M390 104h5M405 220h20M430 220h10M450 220h5M405 221h20M430 221h10M450 221h5M405 222h20M430 222h10M450 222h5M405 223h20M430 223h10M450 223h5M405 224h20M430 224h10M450 224h5M395 230h20M420 230h20M395 231h20M420 231h20M395 232h20M420 232h20M395 233h20M420 233h20M395 234h20M420 234h20M350 250h20M375 250h15M350 251h20M375 251h15M350 252h20M375 252h15M350 253h20M375 253h15M350 254h20M375 254h15M500 255h25M530 255h10M500 256h25M530 256h10M500 257h25M530 257h10M500 258h25M530 258h10M500 259h25M530 259h10M350 260h10M365 260h30M350 261h10M365 261h30M350 262h10M365 262h30M350 263h10M365 263h30M350 264h10M365 264h30M505 265h10M520 265h20M505 266h10M520 266h20M505 267h10M520 267h20M505 268h10M520 268h20M505 269h10M520 269h20M350 270h25M380 270h5M350 271h25M380 271h5M350 272h25M380 272h5M350 273h25M380 273h5M350 274h25M380 274h5" />
<path stroke="#222121" d="M75 60h5M165 60h5M75 61h5M165 61h5M75 62h5M165 62h5M75 63h5M165 63h5M75 64h5M165 64h5M165 65h5M165 66h5M165 67h5M165 68h5M165 69h5M55 85h30M145 85h30M55 86h30M145 86h30M55 87h30M145 87h30M55 88h30M145 88h30M55 89h30M145 89h30M470 215h5M470 216h5M470 217h5M470 218h5M470 219h5M465 220h10M465 221h10M465 222h10M465 223h10M465 224h10M465 225h10M465 226h10M465 227h10M465 228h10M465 229h10M450 240h30M450 241h30M450 242h30M450 243h30M450 244h30" />
<path stroke="#d9b571" d="M495 75h35M495 76h35M495 77h35M495 78h35M495 79h35M495 80h35M495 81h35M495 82h35M495 83h35M495 84h35" />
<path stroke="#b59861" d="M495 85h35M495 86h35M495 87h35M495 88h35M495 89h35M495 90h5M525 90h5M495 91h5M525 91h5M495 92h5M525 92h5M495 93h5M525 93h5M495 94h5M525 94h5" />
<path stroke="#f4c975" d="M105 105h185M345 105h200M105 106h185M345 106h200M105 107h185M345 107h200M105 108h185M345 108h200M105 109h185M345 109h200M30 200h75M30 201h75M30 202h75M30 203h75M30 204h75M345 275h200M345 276h200M345 277h200M345 278h200M345 279h200" />
<path stroke="rgba(0,0,0,0.09411764705882353)" d="M105 110h5M285 110h5M345 110h5M540 110h5M105 111h5M285 111h5M345 111h5M540 111h5M105 112h5M285 112h5M345 112h5M540 112h5M105 113h5M285 113h5M345 113h5M540 113h5M105 114h5M285 114h5M345 114h5M540 114h5M105 115h5M115 115h165M285 115h5M345 115h5M355 115h180M540 115h5M105 116h5M115 116h165M285 116h5M345 116h5M355 116h180M540 116h5M105 117h5M115 117h165M285 117h5M345 117h5M355 117h180M540 117h5M105 118h5M115 118h165M285 118h5M345 118h5M355 118h180M540 118h5M105 119h5M115 119h165M285 119h5M345 119h5M355 119h180M540 119h5M105 120h5M115 120h165M285 120h5M345 120h5M355 120h180M540 120h5M105 121h5M115 121h165M285 121h5M345 121h5M355 121h180M540 121h5M105 122h5M115 122h165M285 122h5M345 122h5M355 122h180M540 122h5M105 123h5M115 123h165M285 123h5M345 123h5M355 123h180M540 123h5M105 124h5M115 124h165M285 124h5M345 124h5M355 124h180M540 124h5M105 125h5M285 125h5M345 125h5M540 125h5M105 126h5M285 126h5M345 126h5M540 126h5M105 127h5M285 127h5M345 127h5M540 127h5M105 128h5M285 128h5M345 128h5M540 128h5M105 129h5M285 129h5M345 129h5M540 129h5M105 130h5M115 130h165M285 130h5M345 130h5M355 130h180M540 130h5M105 131h5M115 131h165M285 131h5M345 131h5M355 131h180M540 131h5M105 132h5M115 132h165M285 132h5M345 132h5M355 132h180M540 132h5M105 133h5M115 133h165M285 133h5M345 133h5M355 133h180M540 133h5M105 134h5M115 134h165M285 134h5M345 134h5M355 134h180M540 134h5M105 135h5M115 135h165M285 135h5M345 135h5M355 135h180M540 135h5M105 136h5M115 136h165M285 136h5M345 136h5M355 136h180M540 136h5M105 137h5M115 137h165M285 137h5M345 137h5M355 137h180M540 137h5M105 138h5M115 138h165M285 138h5M345 138h5M355 138h180M540 138h5M105 139h5M115 139h165M285 139h5M345 139h5M355 139h180M540 139h5M115 140h165M355 140h180M115 141h165M355 141h180M115 142h165M355 142h180M115 143h165M355 143h180M115 144h165M355 144h180M115 145h30M170 145h55M250 145h30M355 145h180M115 146h30M170 146h55M250 146h30M355 146h180M115 147h30M170 147h55M250 147h30M355 147h180M115 148h30M170 148h55M250 148h30M355 148h180M115 149h30M170 149h55M250 149h30M355 149h180M140 175h5M150 175h5M160 175h5M170 175h5M220 175h5M230 175h5M240 175h5M250 175h5M140 176h5M150 176h5M160 176h5M170 176h5M220 176h5M230 176h5M240 176h5M250 176h5M140 177h5M150 177h5M160 177h5M170 177h5M220 177h5M230 177h5M240 177h5M250 177h5M140 178h5M150 178h5M160 178h5M170 178h5M220 178h5M230 178h5M240 178h5M250 178h5M140 179h5M150 179h5M160 179h5M170 179h5M220 179h5M230 179h5M240 179h5M250 179h5M135 180h5M150 180h5M160 180h5M175 180h5M215 180h5M230 180h5M240 180h5M255 180h5M135 181h5M150 181h5M160 181h5M175 181h5M215 181h5M230 181h5M240 181h5M255 181h5M135 182h5M150 182h5M160 182h5M175 182h5M215 182h5M230 182h5M240 182h5M255 182h5M135 183h5M150 183h5M160 183h5M175 183h5M215 183h5M230 183h5M240 183h5M255 183h5M135 184h5M150 184h5M160 184h5M175 184h5M215 184h5M230 184h5M240 184h5M255 184h5M135 185h5M145 185h10M160 185h10M175 185h5M215 185h5M225 185h10M240 185h10M255 185h5M135 186h5M145 186h10M160 186h10M175 186h5M215 186h5M225 186h10M240 186h10M255 186h5M135 187h5M145 187h10M160 187h10M175 187h5M215 187h5M225 187h10M240 187h10M255 187h5M135 188h5M145 188h10M160 188h10M175 188h5M215 188h5M225 188h10M240 188h10M255 188h5M135 189h5M145 189h10M160 189h10M175 189h5M215 189h5M225 189h10M240 189h10M255 189h5M135 190h20M160 190h20M215 190h20M240 190h20M135 191h20M160 191h20M215 191h20M240 191h20M135 192h20M160 192h20M215 192h20M240 192h20M135 193h20M160 193h20M215 193h20M240 193h20M135 194h20M160 194h20M215 194h20M240 194h20M140 195h35M220 195h35M140 196h35M220 196h35M140 197h35M220 197h35M140 198h35M220 198h35M140 199h35M220 199h35M30 205h5M100 205h5M30 206h5M100 206h5M30 207h5M100 207h5M30 208h5M100 208h5M30 209h5M100 209h5M30 210h5M40 210h55M100 210h5M30 211h5M40 211h55M100 211h5M30 212h5M40 212h55M100 212h5M30 213h5M40 213h55M100 213h5M30 214h5M40 214h55M100 214h5M30 215h5M40 215h55M100 215h5M30 216h5M40 216h55M100 216h5M30 217h5M40 217h55M100 217h5M30 218h5M40 218h55M100 218h5M30 219h5M40 219h55M100 219h5M30 220h5M100 220h5M30 221h5M100 221h5M30 222h5M100 222h5M30 223h5M100 223h5M30 224h5M100 224h5M30 225h5M40 225h55M100 225h5M30 226h5M40 226h55M100 226h5M30 227h5M40 227h55M100 227h5M30 228h5M40 228h55M100 228h5M30 229h5M40 229h55M100 229h5M30 230h5M40 230h55M100 230h5M30 231h5M40 231h55M100 231h5M30 232h5M40 232h55M100 232h5M30 233h5M40 233h55M100 233h5M30 234h5M40 234h55M100 234h5M40 235h55M40 236h55M40 237h55M40 238h55M40 239h55M40 240h55M40 241h55M40 242h55M40 243h55M40 244h55M540 280h5M540 281h5M540 282h5M540 283h5M540 284h5M355 285h180M540 285h5M355 286h180M540 286h5M355 287h180M540 287h5M355 288h180M540 288h5M355 289h180M540 289h5M285 290h5M320 290h5M355 290h180M540 290h5M285 291h5M320 291h5M355 291h180M540 291h5M285 292h5M320 292h5M355 292h180M540 292h5M285 293h5M320 293h5M355 293h180M540 293h5M285 294h5M320 294h5M355 294h180M540 294h5M280 295h10M320 295h10M540 295h5M280 296h10M320 296h10M540 296h5M280 297h10M320 297h10M540 297h5M280 298h10M320 298h10M540 298h5M280 299h10M320 299h10M540 299h5M280 300h50M355 300h180M540 300h5M280 301h50M355 301h180M540 301h5M280 302h50M355 302h180M540 302h5M280 303h50M355 303h180M540 303h5M280 304h50M355 304h180M540 304h5M285 305h40M355 305h180M540 305h5M285 306h40M355 306h180M540 306h5M285 307h40M355 307h180M540 307h5M285 308h40M355 308h180M540 308h5M285 309h40M355 309h180M540 309h5M355 310h35M415 310h120M355 311h35M415 311h120M355 312h35M415 312h120M355 313h35M415 313h120M355 314h35M415 314h120M355 315h30M420 315h115M355 316h30M420 316h115M355 317h30M420 317h115M355 318h30M420 318h115M355 319h30M420 319h115M385 340h5M395 340h5M405 340h5M415 340h5M385 341h5M395 341h5M405 341h5M415 341h5M385 342h5M395 342h5M405 342h5M415 342h5M385 343h5M395 343h5M405 343h5M415 343h5M385 344h5M395 344h5M405 344h5M415 344h5M380 345h5M395 345h5M405 345h5M420 345h5M380 346h5M395 346h5M405 346h5M420 346h5M380 347h5M395 347h5M405 347h5M420 347h5M380 348h5M395 348h5M405 348h5M420 348h5M380 349h5M395 349h5M405 349h5M420 349h5M380 350h5M390 350h10M405 350h10M420 350h5M380 351h5M390 351h10M405 351h10M420 351h5M380 352h5M390 352h10M405 352h10M420 352h5M380 353h5M390 353h10M405 353h10M420 353h5M380 354h5M390 354h10M405 354h10M420 354h5M380 355h20M405 355h20M455 355h5M465 355h5M475 355h5M485 355h5M380 356h20M405 356h20M455 356h5M465 356h5M475 356h5M485 356h5M380 357h20M405 357h20M455 357h5M465 357h5M475 357h5M485 357h5M380 358h20M405 358h20M455 358h5M465 358h5M475 358h5M485 358h5M380 359h20M405 359h20M455 359h5M465 359h5M475 359h5M485 359h5M385 360h35M450 360h5M465 360h5M475 360h5M490 360h5M385 361h35M450 361h5M465 361h5M475 361h5M490 361h5M385 362h35M450 362h5M465 362h5M475 362h5M490 362h5M385 363h35M450 363h5M465 363h5M475 363h5M490 363h5M385 364h35M450 364h5M465 364h5M475 364h5M490 364h5M450 365h5M460 365h10M475 365h10M490 365h5M450 366h5M460 366h10M475 366h10M490 366h5M450 367h5M460 367h10M475 367h10M490 367h5M450 368h5M460 368h10M475 368h10M490 368h5M450 369h5M460 369h10M475 369h10M490 369h5M450 370h20M475 370h20M450 371h20M475 371h20M450 372h20M475 372h20M450 373h20M475 373h20M450 374h20M475 374h20M455 375h35M455 376h35M455 377h35M455 378h35M455 379h35" />
<path stroke="#ffffff" d="M110 110h175M350 110h190M110 111h175M350 111h190M110 112h175M350 112h190M110 113h175M350 113h190M110 114h175M350 114h190M110 115h5M280 115h5M350 115h5M535 115h5M110 116h5M280 116h5M350 116h5M535 116h5M110 117h5M280 117h5M350 117h5M535 117h5M110 118h5M280 118h5M350 118h5M535 118h5M110 119h5M280 119h5M350 119h5M535 119h5M110 120h5M280 120h5M350 120h5M535 120h5M110 121h5M280 121h5M350 121h5M535 121h5M110 122h5M280 122h5M350 122h5M535 122h5M110 123h5M280 123h5M350 123h5M535 123h5M110 124h5M280 124h5M350 124h5M535 124h5M110 125h175M350 125h190M110 126h175M350 126h190M110 127h175M350 127h190M110 128h175M350 128h190M110 129h175M350 129h190M110 130h5M280 130h5M350 130h5M535 130h5M110 131h5M280 131h5M350 131h5M535 131h5M110 132h5M280 132h5M350 132h5M535 132h5M110 133h5M280 133h5M350 133h5M535 133h5M110 134h5M280 134h5M350 134h5M535 134h5M110 135h5M280 135h5M350 135h5M535 135h5M110 136h5M280 136h5M350 136h5M535 136h5M110 137h5M280 137h5M350 137h5M535 137h5M110 138h5M280 138h5M350 138h5M535 138h5M110 139h5M280 139h5M350 139h5M535 139h5M110 140h5M280 140h5M350 140h5M535 140h5M110 141h5M280 141h5M350 141h5M535 141h5M110 142h5M280 142h5M350 142h5M535 142h5M110 143h5M280 143h5M350 143h5M535 143h5M110 144h5M280 144h5M350 144h5M535 144h5M145 165h5M155 165h5M165 165h5M225 165h5M235 165h5M245 165h5M145 166h5M155 166h5M165 166h5M225 166h5M235 166h5M245 166h5M145 167h5M155 167h5M165 167h5M225 167h5M235 167h5M245 167h5M145 168h5M155 168h5M165 168h5M225 168h5M235 168h5M245 168h5M145 169h5M155 169h5M165 169h5M225 169h5M235 169h5M245 169h5M145 170h25M225 170h25M145 171h25M225 171h25M145 172h25M225 172h25M145 173h25M225 173h25M145 174h25M225 174h25M145 175h5M155 175h5M165 175h5M225 175h5M235 175h5M245 175h5M145 176h5M155 176h5M165 176h5M225 176h5M235 176h5M245 176h5M145 177h5M155 177h5M165 177h5M225 177h5M235 177h5M245 177h5M145 178h5M155 178h5M165 178h5M225 178h5M235 178h5M245 178h5M145 179h5M155 179h5M165 179h5M225 179h5M235 179h5M245 179h5M140 180h10M155 180h5M165 180h10M220 180h10M235 180h5M245 180h10M140 181h10M155 181h5M165 181h10M220 181h10M235 181h5M245 181h10M140 182h10M155 182h5M165 182h10M220 182h10M235 182h5M245 182h10M140 183h10M155 183h5M165 183h10M220 183h10M235 183h5M245 183h10M140 184h10M155 184h5M165 184h10M220 184h10M235 184h5M245 184h10M140 185h5M155 185h5M170 185h5M220 185h5M235 185h5M250 185h5M140 186h5M155 186h5M170 186h5M220 186h5M235 186h5M250 186h5M140 187h5M155 187h5M170 187h5M220 187h5M235 187h5M250 187h5M140 188h5M155 188h5M170 188h5M220 188h5M235 188h5M250 188h5M140 189h5M155 189h5M170 189h5M220 189h5M235 189h5M250 189h5M155 190h5M235 190h5M155 191h5M235 191h5M155 192h5M235 192h5M155 193h5M235 193h5M155 194h5M235 194h5M35 205h65M35 206h65M35 207h65M35 208h65M35 209h65M35 210h5M95 210h5M35 211h5M95 211h5M35 212h5M95 212h5M35 213h5M95 213h5M35 214h5M95 214h5M35 215h5M95 215h5M35 216h5M95 216h5M35 217h5M95 217h5M35 218h5M95 218h5M35 219h5M95 219h5M35 220h65M35 221h65M35 222h65M35 223h65M35 224h65M35 225h5M95 225h5M35 226h5M95 226h5M35 227h5M95 227h5M35 228h5M95 228h5M35 229h5M95 229h5M35 230h5M95 230h5M35 231h5M95 231h5M35 232h5M95 232h5M35 233h5M95 233h5M35 234h5M95 234h5M35 235h5M95 235h5M35 236h5M95 236h5M35 237h5M95 237h5M35 238h5M95 238h5M35 239h5M95 239h5M290 280h35M350 280h190M290 281h35M350 281h190M290 282h35M350 282h190M290 283h35M350 283h190M290 284h35M350 284h190M290 285h35M350 285h5M535 285h5M290 286h35M350 286h5M535 286h5M290 287h35M350 287h5M535 287h5M290 288h35M350 288h5M535 288h5M290 289h35M350 289h5M535 289h5M295 290h20M350 290h5M535 290h5M295 291h20M350 291h5M535 291h5M295 292h20M350 292h5M535 292h5M295 293h20M350 293h5M535 293h5M295 294h20M350 294h5M535 294h5M350 295h190M350 296h190M350 297h190M350 298h190M350 299h190M350 300h5M535 300h5M350 301h5M535 301h5M350 302h5M535 302h5M350 303h5M535 303h5M350 304h5M535 304h5M350 305h5M535 305h5M350 306h5M535 306h5M350 307h5M535 307h5M350 308h5M535 308h5M350 309h5M535 309h5M350 310h5M535 310h5M350 311h5M535 311h5M350 312h5M535 312h5M350 313h5M535 313h5M350 314h5M535 314h5M390 330h5M400 330h5M410 330h5M390 331h5M400 331h5M410 331h5M390 332h5M400 332h5M410 332h5M390 333h5M400 333h5M410 333h5M390 334h5M400 334h5M410 334h5M390 335h25M390 336h25M390 337h25M390 338h25M390 339h25M390 340h5M400 340h5M410 340h5M390 341h5M400 341h5M410 341h5M390 342h5M400 342h5M410 342h5M390 343h5M400 343h5M410 343h5M390 344h5M400 344h5M410 344h5M385 345h10M400 345h5M410 345h10M460 345h5M470 345h5M480 345h5M385 346h10M400 346h5M410 346h10M460 346h5M470 346h5M480 346h5M385 347h10M400 347h5M410 347h10M460 347h5M470 347h5M480 347h5M385 348h10M400 348h5M410 348h10M460 348h5M470 348h5M480 348h5M385 349h10M400 349h5M410 349h10M460 349h5M470 349h5M480 349h5M385 350h5M400 350h5M415 350h5M460 350h25M385 351h5M400 351h5M415 351h5M460 351h25M385 352h5M400 352h5M415 352h5M460 352h25M385 353h5M400 353h5M415 353h5M460 353h25M385 354h5M400 354h5M415 354h5M460 354h25M400 355h5M460 355h5M470 355h5M480 355h5M400 356h5M460 356h5M470 356h5M480 356h5M400 357h5M460 357h5M470 357h5M480 357h5M400 358h5M460 358h5M470 358h5M480 358h5M400 359h5M460 359h5M470 359h5M480 359h5M455 360h10M470 360h5M480 360h10M455 361h10M470 361h5M480 361h10M455 362h10M470 362h5M480 362h10M455 363h10M470 363h5M480 363h10M455 364h10M470 364h5M480 364h10M455 365h5M470 365h5M485 365h5M455 366h5M470 366h5M485 366h5M455 367h5M470 367h5M485 367h5M455 368h5M470 368h5M485 368h5M455 369h5M470 369h5M485 369h5M470 370h5M470 371h5M470 372h5M470 373h5M470 374h5" />
<path stroke="#494949" d="M105 140h5M285 140h5M345 140h5M540 140h5M105 141h5M285 141h5M345 141h5M540 141h5M105 142h5M285 142h5M345 142h5M540 142h5M105 143h5M285 143h5M345 143h5M540 143h5M105 144h5M285 144h5M345 144h5M540 144h5M105 145h10M280 145h10M345 145h10M535 145h10M105 146h10M280 146h10M345 146h10M535 146h10M105 147h10M280 147h10M345 147h10M535 147h10M105 148h10M280 148h10M345 148h10M535 148h10M105 149h10M280 149h10M345 149h10M535 149h10M30 235h5M100 235h5M30 236h5M100 236h5M30 237h5M100 237h5M30 238h5M100 238h5M30 239h5M100 239h5M30 240h10M95 240h10M30 241h10M95 241h10M30 242h10M95 242h10M30 243h10M95 243h10M30 244h10M95 244h10M345 310h5M540 310h5M345 311h5M540 311h5M345 312h5M540 312h5M345 313h5M540 313h5M345 314h5M540 314h5M345 315h10M535 315h10M345 316h10M535 316h10M345 317h10M535 317h10M345 318h10M535 318h10M345 319h10M535 319h10" />
<path stroke="#dee44e" d="M295 230h5M295 231h5M295 232h5M295 233h5M295 234h5M295 235h10M295 236h10M295 237h10M295 238h10M295 239h10M300 240h5M300 241h5M300 242h5M300 243h5M300 244h5M300 245h10M300 246h10M300 247h10M300 248h10M300 249h10M305 250h5M305 251h5M305 252h5M305 253h5M305 254h5M305 255h5M305 256h5M305 257h5M305 258h5M305 259h5M295 260h5M305 260h10M295 261h5M305 261h10M295 262h5M305 262h10M295 263h5M305 263h10M295 264h5M305 264h10M305 265h5M305 266h5M305 267h5M305 268h5M305 269h5" />
<path stroke="#cacf4a" d="M295 240h5M295 241h5M295 242h5M295 243h5M295 244h5M295 245h5M295 246h5M295 247h5M295 248h5M295 249h5M280 250h5M295 250h10M320 250h5M280 251h5M295 251h10M320 251h5M280 252h5M295 252h10M320 252h5M280 253h5M295 253h10M320 253h5M280 254h5M295 254h10M320 254h5M280 255h10M295 255h10M315 255h10M280 256h10M295 256h10M315 256h10M280 257h10M295 257h10M315 257h10M280 258h10M295 258h10M315 258h10M280 259h10M295 259h10M315 259h10M280 260h15M300 260h5M315 260h10M280 261h15M300 261h5M315 261h10M280 262h15M300 262h5M315 262h10M280 263h15M300 263h5M315 263h10M280 264h15M300 264h5M315 264h10M285 265h20M310 265h10M285 266h20M310 266h10M285 267h20M310 267h10M285 268h20M310 268h10M285 269h20M310 269h10M290 270h30M290 271h30M290 272h30M290 273h30M290 274h30M295 275h20M295 276h20M295 277h20M295 278h20M295 279h20" />
<path stroke="#efefef" d="M290 255h5M290 256h5M290 257h5M290 258h5M290 259h5" />
<path stroke="#f0e0c0" d="M285 280h5M285 281h5M285 282h5M285 283h5M285 284h5M285 285h5M285 286h5M285 287h5M285 288h5M285 289h5M290 290h5M315 290h5M290 291h5M315 291h5M290 292h5M315 292h5M290 293h5M315 293h5M290 294h5M315 294h5M290 295h30M290 296h30M290 297h30M290 298h30M290 299h30" />
</svg>