<svg xmlns="http://www.w3.org/2000/svg" viewBox="0 -0.5 16 16" shape-rendering="crispEdges">
<metadata>Made with Pixels to Svg https://codepen.io/shshaw/pen/XbxvNj</metadata>
<path stroke="#dee44e" d="M9 0h1M8 1h2M8 2h1M7 3h2M7 4h1M7 5h1M10 5h1M6 6h2M9 6h1M7 7h1" />
<path stroke="#cacf4a" d="M9 2h1M9 3h1M4 4h1M8 4h2M12 4h1M4 5h2M8 5h2M11 5h2M4 6h2M8 6h1M10 6h3M5 7h2M8 7h4M5 8h6M6 9h4" />
<path stroke="#ffffff" d="M4 10h7M4 11h7M6 12h4" />
<path stroke="#f0e0c0" d="M11 10h1M11 11h1M5 12h1M10 12h1M5 13h6" />
<path stroke="rgba(0,0,0,0.08627450980392157)" d="M4 12h1M11 12h1M3 13h2M11 13h2M3 14h10M4 15h8" />
</svg>