<svg xmlns="http://www.w3.org/2000/svg" viewBox="0 -0.5 400 312" shape-rendering="crispEdges">
<metadata>Made with Pixels to Svg https://codepen.io/shshaw/pen/XbxvNj</metadata>
<path stroke="#eeeeee" d="M127 19h130M127 20h130M127 21h130M127 22h130M127 23h130M117 149h10M257 149h10M117 150h10M257 150h10M117 151h10M257 151h10M117 152h10M257 152h10M117 153h10M257 153h10M117 154h10M257 154h10M117 155h10M257 155h10M117 156h10M257 156h10M117 157h10M257 157h10M117 158h10M257 158h10M117 159h150M117 160h150M117 161h150M117 162h150M117 163h150" />
<path stroke="#ffffff" d="M127 24h130M127 25h130M127 26h130M127 27h130M127 28h130M127 29h130M127 30h130M127 31h130M127 32h130M127 33h130M127 34h130M127 35h130M127 36h130M127 37h130M127 38h130M127 39h10M247 39h10M127 40h10M247 40h10M127 41h10M247 41h10M127 42h10M247 42h10M127 43h10M247 43h10M127 44h10M247 44h10M127 45h10M247 45h10M127 46h10M247 46h10M127 47h10M247 47h10M127 48h10M247 48h10M127 49h10M247 49h10M127 50h10M247 50h10M127 51h10M247 51h10M127 52h10M247 52h10M127 53h10M247 53h10M127 54h10M247 54h10M127 55h10M247 55h10M127 56h10M247 56h10M127 57h10M247 57h10M127 58h10M247 58h10M127 59h10M247 59h10M127 60h10M247 60h10M127 61h10M247 61h10M127 62h10M247 62h10M127 63h10M247 63h10M127 64h10M247 64h10M127 65h10M247 65h10M127 66h10M247 66h10M127 67h10M247 67h10M127 68h10M247 68h10M127 69h10M247 69h10M127 70h10M247 70h10M127 71h10M247 71h10M127 72h10M247 72h10M127 73h10M247 73h10M127 74h10M247 74h10M127 75h10M247 75h10M127 76h10M247 76h10M127 77h10M247 77h10M127 78h10M247 78h10M127 79h10M247 79h10M127 80h10M247 80h10M127 81h10M247 81h10M127 82h10M247 82h10M127 83h10M247 83h10M127 84h10M247 84h10M127 85h10M247 85h10M127 86h10M247 86h10M127 87h10M247 87h10M127 88h10M247 88h10M127 89h10M247 89h10M127 90h10M247 90h10M127 91h10M247 91h10M127 92h10M247 92h10M127 93h10M247 93h10M127 94h10M247 94h10M127 95h10M247 95h10M127 96h10M247 96h10M127 97h10M247 97h10M127 98h10M247 98h10M127 99h10M247 99h10M127 100h10M247 100h10M127 101h10M247 101h10M127 102h10M247 102h10M127 103h10M247 103h10M127 104h10M247 104h10M127 105h10M247 105h10M127 106h10M247 106h10M127 107h10M247 107h10M127 108h10M247 108h10M127 109h10M247 109h10M127 110h10M247 110h10M127 111h10M247 111h10M127 112h10M247 112h10M127 113h10M247 113h10M127 114h10M247 114h10M127 115h10M247 115h10M127 116h10M247 116h10M127 117h10M247 117h10M127 118h10M247 118h10M127 119h130M127 120h130M127 121h130M127 122h130M127 123h130M127 124h130M127 125h130M127 126h130M127 127h130M127 128h130M127 129h130M127 130h130M127 131h130M127 132h130M127 133h130M127 134h130M127 135h130M127 136h130M127 137h130M127 138h130M127 139h130M127 140h130M127 141h130M127 142h130M127 143h130M127 144h130M127 145h130M127 146h130M127 147h130M127 148h130M127 149h130M127 150h130M127 151h130M127 152h130M127 153h130M127 154h130M127 155h130M127 156h130M127 157h130M127 158h130M117 164h150M117 165h150M117 166h150M117 167h150M117 168h150M117 169h150M117 170h150M117 171h150M117 172h150M117 173h150M117 174h150M117 175h150M117 176h150M117 177h150M117 178h150M117 179h150M117 180h150M117 181h150M117 182h150M117 183h150M117 184h150M117 185h150M117 186h150M117 187h150M117 188h150" />
<path stroke="#000000" d="M137 39h110M137 40h110M137 41h110M137 42h110M137 43h110M137 44h5M242 44h5M137 45h5M242 45h5M137 46h5M242 46h5M137 47h5M242 47h5M137 48h5M242 48h5M137 49h5M242 49h5M137 50h5M242 50h5M137 51h5M242 51h5M137 52h5M242 52h5M137 53h5M242 53h5M137 54h5M242 54h5M137 55h5M242 55h5M137 56h5M242 56h5M137 57h5M242 57h5M137 58h5M242 58h5M137 59h5M242 59h5M137 60h5M242 60h5M137 61h5M242 61h5M137 62h5M242 62h5M137 63h5M242 63h5M137 64h5M242 64h5M137 65h5M242 65h5M137 66h5M242 66h5M137 67h5M242 67h5M137 68h5M242 68h5M137 69h5M242 69h5M137 70h5M242 70h5M137 71h5M242 71h5M137 72h5M242 72h5M137 73h5M242 73h5M137 74h5M242 74h5M137 75h5M242 75h5M137 76h5M242 76h5M137 77h5M242 77h5M137 78h5M242 78h5M137 79h5M242 79h5M137 80h5M242 80h5M137 81h5M242 81h5M137 82h5M242 82h5M137 83h5M242 83h5M137 84h5M242 84h5M137 85h5M242 85h5M137 86h5M242 86h5M137 87h5M242 87h5M137 88h5M242 88h5M137 89h5M242 89h5M137 90h5M242 90h5M137 91h5M242 91h5M137 92h5M242 92h5M137 93h5M242 93h5M137 94h5M242 94h5M137 95h5M242 95h5M137 96h5M242 96h5M137 97h5M242 97h5M137 98h5M242 98h5M137 99h5M242 99h5M137 100h5M242 100h5M137 101h5M242 101h5M137 102h5M242 102h5M137 103h5M242 103h5M137 104h5M242 104h5M137 105h5M242 105h5M137 106h5M242 106h5M137 107h5M242 107h5M137 108h5M242 108h5M137 109h5M242 109h5M137 110h5M242 110h5M137 111h5M242 111h5M137 112h5M242 112h5M137 113h5M242 113h5M137 114h110M137 115h110M137 116h110M137 117h110M137 118h110" />
<path stroke="#494949" d="M142 44h100M142 45h100M142 46h100M142 47h100M142 48h100M142 49h55M202 49h15M222 49h20M142 50h55M202 50h15M222 50h20M142 51h55M202 51h15M222 51h20M142 52h55M202 52h15M222 52h20M142 53h55M202 53h15M222 53h20M142 54h60M207 54h15M227 54h15M142 55h60M207 55h15M227 55h15M142 56h60M207 56h15M227 56h15M142 57h60M207 57h15M227 57h15M142 58h60M207 58h15M227 58h15M142 59h65M212 59h15M232 59h10M142 60h65M212 60h15M232 60h10M142 61h65M212 61h15M232 61h10M142 62h65M212 62h15M232 62h10M142 63h65M212 63h15M232 63h10M142 64h70M217 64h15M237 64h5M142 65h70M217 65h15M237 65h5M142 66h70M217 66h15M237 66h5M142 67h70M217 67h15M237 67h5M142 68h70M217 68h15M237 68h5M142 69h100M142 70h100M142 71h100M142 72h100M142 73h100M142 74h100M142 75h100M142 76h100M142 77h100M142 78h100M142 79h100M142 80h100M142 81h100M142 82h100M142 83h100M142 84h100M142 85h100M142 86h100M142 87h100M142 88h100M142 89h100M142 90h100M142 91h100M142 92h100M142 93h100M142 94h5M152 94h90M142 95h5M152 95h90M142 96h5M152 96h90M142 97h5M152 97h90M142 98h5M152 98h90M142 99h5M157 99h85M142 100h5M157 100h85M142 101h5M157 101h85M142 102h5M157 102h85M142 103h5M157 103h85M142 104h5M162 104h80M142 105h5M162 105h80M142 106h5M162 106h80M142 107h5M162 107h80M142 108h5M162 108h80M142 109h100M142 110h100M142 111h100M142 112h100M142 113h100" />
<path stroke="#848484" d="M197 49h5M217 49h5M197 50h5M217 50h5M197 51h5M217 51h5M197 52h5M217 52h5M197 53h5M217 53h5M202 54h5M222 54h5M202 55h5M222 55h5M202 56h5M222 56h5M202 57h5M222 57h5M202 58h5M222 58h5M207 59h5M227 59h5M207 60h5M227 60h5M207 61h5M227 61h5M207 62h5M227 62h5M207 63h5M227 63h5M212 64h5M232 64h5M212 65h5M232 65h5M212 66h5M232 66h5M212 67h5M232 67h5M212 68h5M232 68h5M147 94h5M147 95h5M147 96h5M147 97h5M147 98h5M147 99h10M147 100h10M147 101h10M147 102h10M147 103h10M147 104h15M147 105h15M147 106h15M147 107h15M147 108h15" />
<path stroke="#cacf4a" d="M322 84h20M322 85h20M322 86h20M322 87h20M322 88h20M317 89h30M317 90h30M317 91h30M317 92h30M317 93h30M312 94h35M312 95h35M312 96h35M312 97h35M312 98h35M312 99h40M312 100h40M312 101h40M312 102h40M312 103h40M312 104h40M312 105h40M312 106h40M312 107h40M312 108h40M47 109h20M312 109h40M47 110h20M312 110h40M47 111h20M312 111h40M47 112h20M312 112h40M47 113h20M312 113h40M42 114h30M312 114h40M42 115h30M312 115h40M42 116h30M312 116h40M42 117h30M312 117h40M42 118h30M312 118h40M42 119h35M42 120h35M42 121h35M42 122h35M42 123h35M37 124h40M37 125h40M37 126h40M37 127h40M37 128h40M37 129h40M37 130h40M37 131h40M37 132h40M37 133h40M37 134h40M37 135h40M37 136h40M37 137h40M37 138h40M37 139h40M37 140h40M37 141h40M37 142h40M37 143h40" />
<path stroke="#dee44e" d="M302 119h50M302 120h50M302 121h50M302 122h50M302 123h50M297 124h55M297 125h55M297 126h55M297 127h55M297 128h55M37 144h50M37 145h50M37 146h50M37 147h50M37 148h50M37 149h55M37 150h55M37 151h55M37 152h55M37 153h55" />
<path stroke="rgba(0,0,0,0.09411764705882353)" d="M292 129h5M352 129h5M292 130h5M352 130h5M292 131h5M352 131h5M292 132h5M352 132h5M292 133h5M352 133h5M292 134h5M352 134h5M292 135h5M352 135h5M292 136h5M352 136h5M292 137h5M352 137h5M292 138h5M352 138h5M292 139h5M352 139h5M292 140h5M352 140h5M292 141h5M352 141h5M292 142h5M352 142h5M292 143h5M352 143h5M292 144h10M347 144h10M292 145h10M347 145h10M292 146h10M347 146h10M292 147h10M347 147h10M292 148h10M347 148h10M32 149h5M92 149h5M292 149h65M32 150h5M92 150h5M292 150h65M32 151h5M92 151h5M292 151h65M32 152h5M92 152h5M292 152h65M32 153h5M92 153h5M292 153h65M27 154h10M92 154h5M297 154h55M27 155h10M92 155h5M297 155h55M27 156h10M92 156h5M297 156h55M27 157h10M92 157h5M297 157h55M27 158h10M92 158h5M297 158h55M27 159h10M92 159h5M27 160h10M92 160h5M27 161h10M92 161h5M27 162h10M92 162h5M27 163h10M92 163h5M27 164h10M92 164h5M27 165h10M92 165h5M27 166h10M92 166h5M27 167h10M92 167h5M27 168h10M92 168h5M27 169h15M87 169h10M107 169h10M267 169h5M27 170h15M87 170h10M107 170h10M267 170h5M27 171h15M87 171h10M107 171h10M267 171h5M27 172h15M87 172h10M107 172h10M267 172h5M27 173h15M87 173h10M107 173h10M267 173h5M32 174h60M107 174h10M267 174h5M32 175h60M107 175h10M267 175h5M32 176h60M107 176h10M267 176h5M32 177h60M107 177h10M267 177h5M32 178h60M107 178h10M267 178h5M107 179h10M267 179h5M107 180h10M267 180h5M107 181h10M267 181h5M107 182h10M267 182h5M107 183h10M267 183h5M107 184h10M267 184h5M107 185h10M267 185h5M107 186h10M267 186h5M107 187h10M267 187h5M107 188h10M267 188h5M107 189h165M107 190h165M107 191h165M107 192h165M107 193h165M107 194h165M107 195h165M107 196h165M107 197h165M107 198h165M322 214h5M377 214h5M322 215h5M377 215h5M322 216h5M377 216h5M322 217h5M377 217h5M322 218h5M377 218h5M297 219h5M322 219h5M377 219h5M297 220h5M322 220h5M377 220h5M297 221h5M322 221h5M377 221h5M297 222h5M322 222h5M377 222h5M297 223h5M322 223h5M377 223h5M297 224h5M322 224h10M372 224h10M297 225h5M322 225h10M372 225h10M297 226h5M322 226h10M372 226h10M297 227h5M322 227h10M372 227h10M297 228h5M322 228h10M372 228h10M297 229h5M327 229h50M297 230h5M327 230h50M297 231h5M327 231h50M297 232h5M327 232h50M297 233h5M327 233h50M297 234h5M297 235h5M297 236h5M297 237h5M297 238h5M297 239h5M297 240h5M297 241h5M297 242h5M297 243h5M297 244h5M297 245h5M297 246h5M297 247h5M297 248h5M297 249h5M297 250h5M297 251h5M297 252h5M297 253h5M297 254h5M297 255h5M297 256h5M297 257h5M297 258h5M297 259h5M297 260h5M297 261h5M297 262h5M297 263h5M297 264h5M297 265h5M297 266h5M297 267h5M297 268h5M297 269h5M297 270h5M297 271h5M297 272h5M297 273h5M297 274h5M297 275h5M297 276h5M297 277h5M297 278h5M297 279h5M297 280h5M297 281h5M297 282h5M297 283h5M87 284h5M292 284h10M87 285h5M292 285h10M87 286h5M292 286h10M87 287h5M292 287h10M87 288h5M292 288h10M87 289h215M87 290h215M87 291h215M87 292h215M87 293h215M92 294h205M92 295h205M92 296h205M92 297h205M92 298h205" />
<path stroke="#b6ba3e" d="M297 129h55M297 130h55M297 131h55M297 132h55M297 133h55M297 134h55M297 135h55M297 136h55M297 137h55M297 138h55M297 139h55M297 140h55M297 141h55M297 142h55M297 143h55M302 144h45M302 145h45M302 146h45M302 147h45M302 148h45M37 154h55M37 155h55M37 156h55M37 157h55M37 158h55M37 159h55M37 160h55M37 161h55M37 162h55M37 163h55M37 164h55M37 165h55M37 166h55M37 167h55M37 168h55M42 169h45M42 170h45M42 171h45M42 172h45M42 173h45" />
<path stroke="#677c97" d="M352 169h15M352 170h15M352 171h15M352 172h15M352 173h15M347 174h25M347 175h25M347 176h25M347 177h25M347 178h25M342 179h35M342 180h35M342 181h35M342 182h35M342 183h35M342 184h35M342 185h35M342 186h35M342 187h35M342 188h35M342 189h35M342 190h35M342 191h35M342 192h35M342 193h35M342 194h35M342 195h35M342 196h35M342 197h35M342 198h35" />
<path stroke="#90a4bc" d="M332 199h45M332 200h45M332 201h45M332 202h45M332 203h45M327 204h50M327 205h50M327 206h50M327 207h50M327 208h50" />
<path stroke="#c86052" d="M92 204h15M92 205h15M92 206h15M92 207h15M92 208h15M87 209h20M87 210h20M87 211h20M87 212h20M87 213h20M87 214h20M87 215h20M87 216h20M87 217h20M87 218h20M87 219h20M87 220h20M87 221h20M87 222h20M87 223h20M87 224h20M87 225h20M87 226h20M87 227h20M87 228h20M87 229h20M87 230h20M87 231h20M87 232h20M87 233h20M87 234h20M87 235h20M87 236h20M87 237h20M87 238h20M87 239h20M87 240h20M87 241h20M87 242h20M87 243h20M87 244h105M87 245h105M87 246h105M87 247h105M87 248h105M87 249h105M87 250h105M87 251h105M87 252h105M87 253h105M87 254h105M87 255h105M87 256h105M87 257h105M87 258h105M147 259h5M147 260h5M147 261h5M147 262h5M147 263h5M147 264h5M147 265h5M147 266h5M147 267h5M147 268h5M147 269h5M147 270h5M147 271h5M147 272h5M147 273h5M147 274h5M147 275h5M147 276h5M147 277h5M147 278h5M147 279h5M147 280h5M147 281h5M147 282h5M147 283h5M92 284h100M92 285h100M92 286h100M92 287h100M92 288h100" />
<path stroke="#946e5e" d="M277 204h15M277 205h15M277 206h15M277 207h15M277 208h15M277 209h20M277 210h20M277 211h20M277 212h20M277 213h20M277 214h20M277 215h20M277 216h20M277 217h20M277 218h20M277 219h20M277 220h20M277 221h20M277 222h20M277 223h20M277 224h20M277 225h20M277 226h20M277 227h20M277 228h20M277 229h20M277 230h20M277 231h20M277 232h20M277 233h20M277 234h20M277 235h20M277 236h20M277 237h20M277 238h20M277 239h20M277 240h20M277 241h20M277 242h20M277 243h20M192 244h105M192 245h105M192 246h105M192 247h105M192 248h105M192 249h105M192 250h105M192 251h105M192 252h105M192 253h105M192 254h105M192 255h105M192 256h105M192 257h105M192 258h105M232 259h5M232 260h5M232 261h5M232 262h5M232 263h5M232 264h5M232 265h5M232 266h5M232 267h5M232 268h5M232 269h5M232 270h5M232 271h5M232 272h5M232 273h5M232 274h5M232 275h5M232 276h5M232 277h5M232 278h5M232 279h5M232 280h5M232 281h5M232 282h5M232 283h5M192 284h100M192 285h100M192 286h100M192 287h100M192 288h100" />
<path stroke="#3b506b" d="M327 209h50M327 210h50M327 211h50M327 212h50M327 213h50M327 214h50M327 215h50M327 216h50M327 217h50M327 218h50M327 219h50M327 220h50M327 221h50M327 222h50M327 223h50M332 224h40M332 225h40M332 226h40M332 227h40M332 228h40" />
<path stroke="#de9187" d="M107 214h85M107 215h85M107 216h85M107 217h85M107 218h85M107 219h85M107 220h85M107 221h85M107 222h85M107 223h85M107 224h85M107 225h85M107 226h85M107 227h85M107 228h85M107 229h85M107 230h85M107 231h85M107 232h85M107 233h85M107 234h85M107 235h85M107 236h85M107 237h85M107 238h85M107 239h85M107 240h85M107 241h85M107 242h85M107 243h85" />
<path stroke="#cda797" d="M192 214h85M192 215h85M192 216h85M192 217h85M192 218h85M192 219h85M192 220h85M192 221h85M192 222h85M192 223h85M192 224h85M192 225h85M192 226h85M192 227h85M192 228h85M192 229h85M192 230h85M192 231h85M192 232h85M192 233h85M192 234h85M192 235h85M192 236h85M192 237h85M192 238h85M192 239h85M192 240h85M192 241h85M192 242h85M192 243h85" />
<path stroke="#a34234" d="M87 259h60M152 259h40M87 260h60M152 260h40M87 261h60M152 261h40M87 262h60M152 262h40M87 263h60M152 263h40M87 264h60M152 264h40M87 265h60M152 265h40M87 266h60M152 266h40M87 267h60M152 267h40M87 268h60M152 268h40M87 269h60M152 269h40M87 270h60M152 270h40M87 271h60M152 271h40M87 272h60M152 272h40M87 273h60M152 273h40M87 274h60M152 274h40M87 275h60M152 275h40M87 276h60M152 276h40M87 277h60M152 277h40M87 278h60M152 278h40M87 279h60M152 279h40M87 280h60M152 280h40M87 281h60M152 281h40M87 282h60M152 282h40M87 283h60M152 283h40" />
<path stroke="#695248" d="M192 259h40M237 259h60M192 260h40M237 260h60M192 261h40M237 261h60M192 262h40M237 262h60M192 263h40M237 263h60M192 264h40M237 264h60M192 265h40M237 265h60M192 266h40M237 266h60M192 267h40M237 267h60M192 268h40M237 268h60M192 269h40M237 269h60M192 270h40M237 270h60M192 271h40M237 271h60M192 272h40M237 272h60M192 273h40M237 273h60M192 274h40M237 274h60M192 275h40M237 275h60M192 276h40M237 276h60M192 277h40M237 277h60M192 278h40M237 278h60M192 279h40M237 279h60M192 280h40M237 280h60M192 281h40M237 281h60M192 282h40M237 282h60M192 283h40M237 283h60" />
</svg>