<svg xmlns="http://www.w3.org/2000/svg" viewBox="0 -0.5 770 563" shape-rendering="crispEdges">
<metadata>Made with Pixels to Svg https://codepen.io/shshaw/pen/XbxvNj</metadata>
<path stroke="#ffffff" d="M254 46h240M254 47h240M254 48h240M254 49h240M254 50h240M254 51h240M254 52h240M254 53h240M254 54h240M254 55h240M254 56h240M254 57h240M254 58h240M254 59h240M254 60h240M254 61h20M279 61h5M289 61h5M299 61h5M319 61h5M339 61h5M359 61h5M379 61h5M394 61h10M409 61h85M254 62h20M279 62h5M289 62h5M299 62h5M319 62h5M339 62h5M359 62h5M379 62h5M394 62h10M409 62h85M254 63h20M279 63h5M289 63h5M299 63h5M319 63h5M339 63h5M359 63h5M379 63h5M394 63h10M409 63h85M254 64h20M279 64h5M289 64h5M299 64h5M319 64h5M339 64h5M359 64h5M379 64h5M394 64h10M409 64h85M254 65h20M279 65h5M289 65h5M299 65h5M319 65h5M339 65h5M359 65h5M379 65h5M394 65h10M409 65h85M254 66h20M279 66h5M289 66h5M299 66h5M309 66h15M329 66h20M354 66h10M369 66h5M379 66h5M389 66h5M399 66h5M409 66h85M254 67h20M279 67h5M289 67h5M299 67h5M309 67h15M329 67h20M354 67h10M369 67h5M379 67h5M389 67h5M399 67h5M409 67h85M254 68h20M279 68h5M289 68h5M299 68h5M309 68h15M329 68h20M354 68h10M369 68h5M379 68h5M389 68h5M399 68h5M409 68h85M254 69h20M279 69h5M289 69h5M299 69h5M309 69h15M329 69h20M354 69h10M369 69h5M379 69h5M389 69h5M399 69h5M409 69h85M254 70h20M279 70h5M289 70h5M299 70h5M309 70h15M329 70h20M354 70h10M369 70h5M379 70h5M389 70h5M399 70h5M409 70h85M254 71h20M279 71h5M289 71h5M299 71h5M319 71h5M339 71h10M354 71h10M369 71h5M379 71h5M389 71h5M399 71h5M409 71h85M254 72h20M279 72h5M289 72h5M299 72h5M319 72h5M339 72h10M354 72h10M369 72h5M379 72h5M389 72h5M399 72h5M409 72h85M254 73h20M279 73h5M289 73h5M299 73h5M319 73h5M339 73h10M354 73h10M369 73h5M379 73h5M389 73h5M399 73h5M409 73h85M254 74h20M279 74h5M289 74h5M299 74h5M319 74h5M339 74h10M354 74h10M369 74h5M379 74h5M389 74h5M399 74h5M409 74h85M254 75h20M279 75h5M289 75h5M299 75h5M319 75h5M339 75h10M354 75h10M369 75h5M379 75h5M389 75h5M399 75h5M409 75h85M254 76h20M279 76h5M289 76h5M299 76h5M309 76h25M339 76h10M354 76h10M369 76h5M379 76h5M389 76h10M409 76h85M254 77h20M279 77h5M289 77h5M299 77h5M309 77h25M339 77h10M354 77h10M369 77h5M379 77h5M389 77h10M409 77h85M254 78h20M279 78h5M289 78h5M299 78h5M309 78h25M339 78h10M354 78h10M369 78h5M379 78h5M389 78h10M409 78h85M254 79h20M279 79h5M289 79h5M299 79h5M309 79h25M339 79h10M354 79h10M369 79h5M379 79h5M389 79h10M409 79h85M254 80h20M279 80h5M289 80h5M299 80h5M309 80h25M339 80h10M354 80h10M369 80h5M379 80h5M389 80h10M409 80h85M254 81h20M299 81h5M319 81h5M339 81h10M354 81h10M379 81h5M389 81h15M409 81h85M254 82h20M299 82h5M319 82h5M339 82h10M354 82h10M379 82h5M389 82h15M409 82h85M254 83h20M299 83h5M319 83h5M339 83h10M354 83h10M379 83h5M389 83h15M409 83h85M254 84h20M299 84h5M319 84h5M339 84h10M354 84h10M379 84h5M389 84h15M409 84h85M254 85h20M299 85h5M319 85h5M339 85h10M354 85h10M379 85h5M389 85h15M409 85h85M254 86h240M254 87h240M254 88h240M254 89h240M254 90h240M254 91h240M254 92h240M254 93h240M254 94h240M254 95h240M254 96h20M294 96h10M314 96h15M334 96h5M344 96h10M369 96h20M394 96h20M424 96h15M449 96h45M254 97h20M294 97h10M314 97h15M334 97h5M344 97h10M369 97h20M394 97h20M424 97h15M449 97h45M254 98h20M294 98h10M314 98h15M334 98h5M344 98h10M369 98h20M394 98h20M424 98h15M449 98h45M254 99h20M294 99h10M314 99h15M334 99h5M344 99h10M369 99h20M394 99h20M424 99h15M449 99h45M254 100h20M294 100h10M314 100h15M334 100h5M344 100h10M369 100h20M394 100h20M424 100h15M449 100h45M254 101h20M279 101h20M304 101h10M319 101h5M329 101h5M339 101h5M349 101h5M359 101h30M394 101h15M414 101h10M429 101h5M439 101h10M454 101h40M254 102h20M279 102h20M304 102h10M319 102h5M329 102h5M339 102h5M349 102h5M359 102h30M394 102h15M414 102h10M429 102h5M439 102h10M454 102h40M254 103h20M279 103h20M304 103h10M319 103h5M329 103h5M339 103h5M349 103h5M359 103h30M394 103h15M414 103h10M429 103h5M439 103h10M454 103h40M254 104h20M279 104h20M304 104h10M319 104h5M329 104h5M339 104h5M349 104h5M359 104h30M394 104h15M414 104h10M429 104h5M439 104h10M454 104h40M254 105h20M279 105h20M304 105h10M319 105h5M329 105h5M339 105h5M349 105h5M359 105h30M394 105h15M414 105h10M429 105h5M439 105h10M454 105h40M254 106h20M279 106h5M294 106h5M319 106h5M329 106h5M339 106h5M349 106h5M369 106h20M394 106h15M429 106h5M449 106h45M254 107h20M279 107h5M294 107h5M319 107h5M329 107h5M339 107h5M349 107h5M369 107h20M394 107h15M429 107h5M449 107h45M254 108h20M279 108h5M294 108h5M319 108h5M329 108h5M339 108h5M349 108h5M369 108h20M394 108h15M429 108h5M449 108h45M254 109h20M279 109h5M294 109h5M319 109h5M329 109h5M339 109h5M349 109h5M369 109h20M394 109h15M429 109h5M449 109h45M254 110h20M279 110h5M294 110h5M319 110h5M329 110h5M339 110h5M349 110h5M369 110h20M394 110h15M429 110h5M449 110h45M254 111h20M279 111h10M294 111h5M304 111h10M319 111h5M329 111h15M349 111h5M359 111h30M394 111h15M414 111h10M429 111h5M439 111h10M454 111h40M254 112h20M279 112h10M294 112h5M304 112h10M319 112h5M329 112h15M349 112h5M359 112h30M394 112h15M414 112h10M429 112h5M439 112h10M454 112h40M254 113h20M279 113h10M294 113h5M304 113h10M319 113h5M329 113h15M349 113h5M359 113h30M394 113h15M414 113h10M429 113h5M439 113h10M454 113h40M254 114h20M279 114h10M294 114h5M304 114h10M319 114h5M329 114h15M349 114h5M359 114h30M394 114h15M414 114h10M429 114h5M439 114h10M454 114h40M254 115h20M279 115h10M294 115h5M304 115h10M319 115h5M329 115h15M349 115h5M359 115h30M394 115h15M414 115h10M429 115h5M439 115h10M454 115h40M254 116h20M294 116h5M304 116h10M319 116h5M329 116h15M349 116h5M369 116h20M404 116h5M414 116h10M429 116h5M449 116h45M254 117h20M294 117h5M304 117h10M319 117h5M329 117h15M349 117h5M369 117h20M404 117h5M414 117h10M429 117h5M449 117h45M254 118h20M294 118h5M304 118h10M319 118h5M329 118h15M349 118h5M369 118h20M404 118h5M414 118h10M429 118h5M449 118h45M254 119h20M294 119h5M304 119h10M319 119h5M329 119h15M349 119h5M369 119h20M404 119h5M414 119h10M429 119h5M449 119h45M254 120h20M294 120h5M304 120h10M319 120h5M329 120h15M349 120h5M369 120h20M404 120h5M414 120h10M429 120h5M449 120h45M254 121h240M254 122h240M254 123h240M254 124h240M254 125h240M254 126h240M254 127h240M254 128h240M254 129h240M254 130h240M254 131h240M254 132h240M254 133h240M254 134h240M254 135h240M254 136h20M354 136h140M254 137h20M354 137h140M254 138h20M354 138h140M254 139h20M354 139h140M254 140h20M354 140h140M254 141h20M354 141h140M254 142h20M354 142h140M254 143h20M354 143h140M254 144h20M354 144h140M254 145h20M354 145h140M254 146h20M354 146h140M254 147h20M354 147h140M254 148h20M354 148h140M254 149h20M354 149h140M254 150h20M354 150h140M254 151h20M354 151h140M254 152h20M354 152h140M254 153h20M354 153h140M254 154h20M354 154h140M254 155h20M354 155h140M254 156h20M354 156h140M254 157h20M354 157h140M254 158h20M354 158h140M254 159h20M354 159h140M254 160h20M354 160h140M254 161h20M354 161h140M254 162h20M354 162h140M254 163h20M354 163h140M254 164h20M354 164h140M254 165h20M354 165h140M254 166h20M354 166h140M254 167h20M354 167h140M254 168h20M354 168h140M254 169h20M354 169h140M254 170h20M354 170h140M254 171h20M354 171h140M254 172h20M354 172h140M254 173h20M354 173h140M254 174h20M354 174h140M254 175h20M354 175h140M254 176h20M354 176h140M254 177h20M354 177h140M254 178h20M354 178h140M254 179h20M354 179h140M254 180h20M354 180h140M254 181h20M354 181h140M254 182h20M354 182h140M254 183h20M354 183h140M254 184h20M354 184h140M254 185h20M354 185h140M254 186h20M354 186h140M254 187h20M354 187h140M254 188h20M354 188h140M254 189h20M354 189h140M254 190h20M354 190h140M254 191h240M254 192h240M254 193h240M254 194h240M254 195h240M254 196h240M254 197h240M254 198h240M254 199h240M254 200h240M254 201h240M254 202h240M254 203h240M254 204h240M254 205h240M274 256h20M584 256h20M274 257h20M584 257h20M274 258h20M584 258h20M274 259h20M584 259h20M274 260h20M584 260h20M274 261h25M584 261h25M274 262h25M584 262h25M274 263h25M584 263h25M274 264h25M584 264h25M274 265h25M584 265h25M274 266h25M584 266h25M274 267h25M584 267h25M274 268h25M584 268h25M274 269h25M584 269h25M274 270h25M584 270h25M274 271h25M584 271h25M274 272h25M584 272h25M274 273h25M584 273h25M274 274h25M584 274h25M274 275h25M584 275h25M129 331h25M204 331h25M274 331h25M129 332h25M204 332h25M274 332h25M129 333h25M204 333h25M274 333h25M129 334h25M204 334h25M274 334h25M129 335h25M204 335h25M274 335h25M129 336h25M204 336h25M274 336h25M129 337h25M204 337h25M274 337h25M129 338h25M204 338h25M274 338h25M129 339h25M204 339h25M274 339h25M129 340h25M204 340h25M274 340h25M94 341h5M129 341h25M204 341h25M274 341h25M329 341h5M399 341h5M634 341h5M94 342h5M129 342h25M204 342h25M274 342h25M329 342h5M399 342h5M634 342h5M94 343h5M129 343h25M204 343h25M274 343h25M329 343h5M399 343h5M634 343h5M94 344h5M129 344h25M204 344h25M274 344h25M329 344h5M399 344h5M634 344h5M94 345h5M129 345h25M204 345h25M274 345h25M329 345h5M399 345h5M634 345h5M94 346h5M129 346h25M204 346h25M274 346h25M329 346h5M399 346h5M634 346h5M94 347h5M129 347h25M204 347h25M274 347h25M329 347h5M399 347h5M634 347h5M94 348h5M129 348h25M204 348h25M274 348h25M329 348h5M399 348h5M634 348h5M94 349h5M129 349h25M204 349h25M274 349h25M329 349h5M399 349h5M634 349h5M94 350h5M129 350h25M204 350h25M274 350h25M329 350h5M399 350h5M634 350h5M94 351h5M129 351h25M204 351h25M274 351h25M329 351h5M399 351h5M634 351h5M94 352h5M129 352h25M204 352h25M274 352h25M329 352h5M399 352h5M634 352h5M94 353h5M129 353h25M204 353h25M274 353h25M329 353h5M399 353h5M634 353h5M94 354h5M129 354h25M204 354h25M274 354h25M329 354h5M399 354h5M634 354h5M94 355h5M129 355h25M204 355h25M274 355h25M329 355h5M399 355h5M634 355h5M94 356h5M129 356h30M204 356h30M269 356h30M329 356h5M399 356h5M634 356h5M94 357h5M129 357h30M204 357h30M269 357h30M329 357h5M399 357h5M634 357h5M94 358h5M129 358h30M204 358h30M269 358h30M329 358h5M399 358h5M634 358h5M94 359h5M129 359h30M204 359h30M269 359h30M329 359h5M399 359h5M634 359h5M94 360h5M129 360h30M204 360h30M269 360h30M329 360h5M399 360h5M634 360h5M94 361h5M329 361h5M399 361h5M634 361h5M94 362h5M329 362h5M399 362h5M634 362h5M94 363h5M329 363h5M399 363h5M634 363h5M94 364h5M329 364h5M399 364h5M634 364h5M94 365h5M329 365h5M399 365h5M634 365h5M534 406h20M534 407h20M534 408h20M534 409h20M534 410h20M534 411h25M534 412h25M534 413h25M534 414h25M534 415h25M534 416h25M534 417h25M534 418h25M534 419h25M534 420h25M534 421h25M534 422h25M534 423h25M534 424h25M534 425h25M129 481h25M209 481h25M549 481h25M129 482h25M209 482h25M549 482h25M129 483h25M209 483h25M549 483h25M129 484h25M209 484h25M549 484h25M129 485h25M209 485h25M549 485h25M129 486h25M209 486h25M549 486h25M129 487h25M209 487h25M549 487h25M129 488h25M209 488h25M549 488h25M129 489h25M209 489h25M549 489h25M129 490h25M209 490h25M549 490h25M94 491h5M129 491h25M209 491h25M329 491h5M399 491h5M549 491h25M634 491h5M94 492h5M129 492h25M209 492h25M329 492h5M399 492h5M549 492h25M634 492h5M94 493h5M129 493h25M209 493h25M329 493h5M399 493h5M549 493h25M634 493h5M94 494h5M129 494h25M209 494h25M329 494h5M399 494h5M549 494h25M634 494h5M94 495h5M129 495h25M209 495h25M329 495h5M399 495h5M549 495h25M634 495h5M94 496h5M129 496h25M209 496h25M329 496h5M399 496h5M549 496h25M634 496h5M94 497h5M129 497h25M209 497h25M329 497h5M399 497h5M549 497h25M634 497h5M94 498h5M129 498h25M209 498h25M329 498h5M399 498h5M549 498h25M634 498h5M94 499h5M129 499h25M209 499h25M329 499h5M399 499h5M549 499h25M634 499h5M94 500h5M129 500h25M209 500h25M329 500h5M399 500h5M549 500h25M634 500h5M94 501h5M129 501h25M209 501h25M329 501h5M399 501h5M549 501h25M634 501h5M94 502h5M129 502h25M209 502h25M329 502h5M399 502h5M549 502h25M634 502h5M94 503h5M129 503h25M209 503h25M329 503h5M399 503h5M549 503h25M634 503h5M94 504h5M129 504h25M209 504h25M329 504h5M399 504h5M549 504h25M634 504h5M94 505h5M129 505h25M209 505h25M329 505h5M399 505h5M549 505h25M634 505h5M94 506h5M129 506h30M204 506h30M329 506h5M399 506h5M544 506h30M634 506h5M94 507h5M129 507h30M204 507h30M329 507h5M399 507h5M544 507h30M634 507h5M94 508h5M129 508h30M204 508h30M329 508h5M399 508h5M544 508h30M634 508h5M94 509h5M129 509h30M204 509h30M329 509h5M399 509h5M544 509h30M634 509h5M94 510h5M129 510h30M204 510h30M329 510h5M399 510h5M544 510h30M634 510h5M94 511h5M329 511h5M399 511h5M634 511h5M94 512h5M329 512h5M399 512h5M634 512h5M94 513h5M329 513h5M399 513h5M634 513h5M94 514h5M329 514h5M399 514h5M634 514h5M94 515h5M329 515h5M399 515h5M634 515h5" />
<path stroke="#f4129b" d="M274 61h5M284 61h5M294 61h5M304 61h15M324 61h15M344 61h15M364 61h15M384 61h10M404 61h5M274 62h5M284 62h5M294 62h5M304 62h15M324 62h15M344 62h15M364 62h15M384 62h10M404 62h5M274 63h5M284 63h5M294 63h5M304 63h15M324 63h15M344 63h15M364 63h15M384 63h10M404 63h5M274 64h5M284 64h5M294 64h5M304 64h15M324 64h15M344 64h15M364 64h15M384 64h10M404 64h5M274 65h5M284 65h5M294 65h5M304 65h15M324 65h15M344 65h15M364 65h15M384 65h10M404 65h5M274 66h5M284 66h5M294 66h5M304 66h5M324 66h5M349 66h5M364 66h5M374 66h5M384 66h5M394 66h5M404 66h5M274 67h5M284 67h5M294 67h5M304 67h5M324 67h5M349 67h5M364 67h5M374 67h5M384 67h5M394 67h5M404 67h5M274 68h5M284 68h5M294 68h5M304 68h5M324 68h5M349 68h5M364 68h5M374 68h5M384 68h5M394 68h5M404 68h5M274 69h5M284 69h5M294 69h5M304 69h5M324 69h5M349 69h5M364 69h5M374 69h5M384 69h5M394 69h5M404 69h5M274 70h5M284 70h5M294 70h5M304 70h5M324 70h5M349 70h5M364 70h5M374 70h5M384 70h5M394 70h5M404 70h5M274 71h5M284 71h5M294 71h5M304 71h15M324 71h15M349 71h5M364 71h5M374 71h5M384 71h5M394 71h5M404 71h5M274 72h5M284 72h5M294 72h5M304 72h15M324 72h15M349 72h5M364 72h5M374 72h5M384 72h5M394 72h5M404 72h5M274 73h5M284 73h5M294 73h5M304 73h15M324 73h15M349 73h5M364 73h5M374 73h5M384 73h5M394 73h5M404 73h5M274 74h5M284 74h5M294 74h5M304 74h15M324 74h15M349 74h5M364 74h5M374 74h5M384 74h5M394 74h5M404 74h5M274 75h5M284 75h5M294 75h5M304 75h15M324 75h15M349 75h5M364 75h5M374 75h5M384 75h5M394 75h5M404 75h5M274 76h5M284 76h5M294 76h5M304 76h5M334 76h5M349 76h5M364 76h5M374 76h5M384 76h5M399 76h10M274 77h5M284 77h5M294 77h5M304 77h5M334 77h5M349 77h5M364 77h5M374 77h5M384 77h5M399 77h10M274 78h5M284 78h5M294 78h5M304 78h5M334 78h5M349 78h5M364 78h5M374 78h5M384 78h5M399 78h10M274 79h5M284 79h5M294 79h5M304 79h5M334 79h5M349 79h5M364 79h5M374 79h5M384 79h5M399 79h10M274 80h5M284 80h5M294 80h5M304 80h5M334 80h5M349 80h5M364 80h5M374 80h5M384 80h5M399 80h10M274 81h25M304 81h15M324 81h15M349 81h5M364 81h15M384 81h5M404 81h5M274 82h25M304 82h15M324 82h15M349 82h5M364 82h15M384 82h5M404 82h5M274 83h25M304 83h15M324 83h15M349 83h5M364 83h15M384 83h5M404 83h5M274 84h25M304 84h15M324 84h15M349 84h5M364 84h15M384 84h5M404 84h5M274 85h25M304 85h15M324 85h15M349 85h5M364 85h15M384 85h5M404 85h5M274 96h20M304 96h10M329 96h5M339 96h5M354 96h15M389 96h5M414 96h10M439 96h10M274 97h20M304 97h10M329 97h5M339 97h5M354 97h15M389 97h5M414 97h10M439 97h10M274 98h20M304 98h10M329 98h5M339 98h5M354 98h15M389 98h5M414 98h10M439 98h10M274 99h20M304 99h10M329 99h5M339 99h5M354 99h15M389 99h5M414 99h10M439 99h10M274 100h20M304 100h10M329 100h5M339 100h5M354 100h15M389 100h5M414 100h10M439 100h10M274 101h5M299 101h5M314 101h5M324 101h5M334 101h5M344 101h5M354 101h5M389 101h5M409 101h5M424 101h5M434 101h5M449 101h5M274 102h5M299 102h5M314 102h5M324 102h5M334 102h5M344 102h5M354 102h5M389 102h5M409 102h5M424 102h5M434 102h5M449 102h5M274 103h5M299 103h5M314 103h5M324 103h5M334 103h5M344 103h5M354 103h5M389 103h5M409 103h5M424 103h5M434 103h5M449 103h5M274 104h5M299 104h5M314 104h5M324 104h5M334 104h5M344 104h5M354 104h5M389 104h5M409 104h5M424 104h5M434 104h5M449 104h5M274 105h5M299 105h5M314 105h5M324 105h5M334 105h5M344 105h5M354 105h5M389 105h5M409 105h5M424 105h5M434 105h5M449 105h5M274 106h5M284 106h10M299 106h20M324 106h5M334 106h5M344 106h5M354 106h15M389 106h5M409 106h20M434 106h15M274 107h5M284 107h10M299 107h20M324 107h5M334 107h5M344 107h5M354 107h15M389 107h5M409 107h20M434 107h15M274 108h5M284 108h10M299 108h20M324 108h5M334 108h5M344 108h5M354 108h15M389 108h5M409 108h20M434 108h15M274 109h5M284 109h10M299 109h20M324 109h5M334 109h5M344 109h5M354 109h15M389 109h5M409 109h20M434 109h15M274 110h5M284 110h10M299 110h20M324 110h5M334 110h5M344 110h5M354 110h15M389 110h5M409 110h20M434 110h15M274 111h5M289 111h5M299 111h5M314 111h5M324 111h5M344 111h5M354 111h5M389 111h5M409 111h5M424 111h5M434 111h5M449 111h5M274 112h5M289 112h5M299 112h5M314 112h5M324 112h5M344 112h5M354 112h5M389 112h5M409 112h5M424 112h5M434 112h5M449 112h5M274 113h5M289 113h5M299 113h5M314 113h5M324 113h5M344 113h5M354 113h5M389 113h5M409 113h5M424 113h5M434 113h5M449 113h5M274 114h5M289 114h5M299 114h5M314 114h5M324 114h5M344 114h5M354 114h5M389 114h5M409 114h5M424 114h5M434 114h5M449 114h5M274 115h5M289 115h5M299 115h5M314 115h5M324 115h5M344 115h5M354 115h5M389 115h5M409 115h5M424 115h5M434 115h5M449 115h5M274 116h20M299 116h5M314 116h5M324 116h5M344 116h5M354 116h15M389 116h15M409 116h5M424 116h5M434 116h15M274 117h20M299 117h5M314 117h5M324 117h5M344 117h5M354 117h15M389 117h15M409 117h5M424 117h5M434 117h15M274 118h20M299 118h5M314 118h5M324 118h5M344 118h5M354 118h15M389 118h15M409 118h5M424 118h5M434 118h15M274 119h20M299 119h5M314 119h5M324 119h5M344 119h5M354 119h15M389 119h15M409 119h5M424 119h5M434 119h15M274 120h20M299 120h5M314 120h5M324 120h5M344 120h5M354 120h15M389 120h15M409 120h5M424 120h5M434 120h15M519 296h40M519 297h40M519 298h40M519 299h40M519 300h40M519 301h40M519 302h40M519 303h40M519 304h40M519 305h40M234 451h5M279 451h5M234 452h5M279 452h5M234 453h5M279 453h5M234 454h5M279 454h5M234 455h5M279 455h5" />
<path stroke="#494949" d="M274 136h80M274 137h80M274 138h80M274 139h80M274 140h80M274 141h45M324 141h10M339 141h15M274 142h45M324 142h10M339 142h15M274 143h45M324 143h10M339 143h15M274 144h45M324 144h10M339 144h15M274 145h45M324 145h10M339 145h15M274 146h50M329 146h10M344 146h10M274 147h50M329 147h10M344 147h10M274 148h50M329 148h10M344 148h10M274 149h50M329 149h10M344 149h10M274 150h50M329 150h10M344 150h10M274 151h55M334 151h10M349 151h5M274 152h55M334 152h10M349 152h5M274 153h55M334 153h10M349 153h5M274 154h55M334 154h10M349 154h5M274 155h55M334 155h10M349 155h5M274 156h80M274 157h80M274 158h80M274 159h80M274 160h80M274 161h80M274 162h80M274 163h80M274 164h80M274 165h80M274 166h80M274 167h80M274 168h80M274 169h80M274 170h80M274 171h80M274 172h80M274 173h80M274 174h80M274 175h80M274 176h5M284 176h70M274 177h5M284 177h70M274 178h5M284 178h70M274 179h5M284 179h70M274 180h5M284 180h70M274 181h5M289 181h65M274 182h5M289 182h65M274 183h5M289 183h65M274 184h5M289 184h65M274 185h5M289 185h65M274 186h80M274 187h80M274 188h80M274 189h80M274 190h80M114 261h30M114 262h30M114 263h30M114 264h30M114 265h30M89 361h5M334 361h5M394 361h5M639 361h5M89 362h5M334 362h5M394 362h5M639 362h5M89 363h5M334 363h5M394 363h5M639 363h5M89 364h5M334 364h5M394 364h5M639 364h5M89 365h5M334 365h5M394 365h5M639 365h5M89 366h10M329 366h10M394 366h10M634 366h10M89 367h10M329 367h10M394 367h10M634 367h10M89 368h10M329 368h10M394 368h10M634 368h10M89 369h10M329 369h10M394 369h10M634 369h10M89 370h10M329 370h10M394 370h10M634 370h10M104 421h35M104 422h35M104 423h35M104 424h35M104 425h35M104 426h5M134 426h5M104 427h5M134 427h5M104 428h5M134 428h5M104 429h5M134 429h5M104 430h5M134 430h5M104 431h5M134 431h5M104 432h5M134 432h5M104 433h5M134 433h5M104 434h5M134 434h5M104 435h5M134 435h5M104 436h5M134 436h5M104 437h5M134 437h5M104 438h5M134 438h5M104 439h5M134 439h5M104 440h5M134 440h5M104 441h5M134 441h5M234 441h5M249 441h5M279 441h5M294 441h5M104 442h5M134 442h5M234 442h5M249 442h5M279 442h5M294 442h5M104 443h5M134 443h5M234 443h5M249 443h5M279 443h5M294 443h5M104 444h5M134 444h5M234 444h5M249 444h5M279 444h5M294 444h5M104 445h5M134 445h5M234 445h5M249 445h5M279 445h5M294 445h5M109 446h25M229 446h30M274 446h30M109 447h25M229 447h30M274 447h30M109 448h25M229 448h30M274 448h30M109 449h25M229 449h30M274 449h30M109 450h25M229 450h30M274 450h30M104 451h35M229 451h5M239 451h5M254 451h5M274 451h5M284 451h5M299 451h5M104 452h35M229 452h5M239 452h5M254 452h5M274 452h5M284 452h5M299 452h5M104 453h35M229 453h5M239 453h5M254 453h5M274 453h5M284 453h5M299 453h5M104 454h35M229 454h5M239 454h5M254 454h5M274 454h5M284 454h5M299 454h5M104 455h35M229 455h5M239 455h5M254 455h5M274 455h5M284 455h5M299 455h5M104 456h35M229 456h30M274 456h30M104 457h35M229 457h30M274 457h30M104 458h35M229 458h30M274 458h30M104 459h35M229 459h30M274 459h30M104 460h35M229 460h30M274 460h30M229 461h30M274 461h30M229 462h30M274 462h30M229 463h30M274 463h30M229 464h30M274 464h30M229 465h30M274 465h30M229 466h5M254 466h5M274 466h5M299 466h5M469 466h5M509 466h5M229 467h5M254 467h5M274 467h5M299 467h5M469 467h5M509 467h5M229 468h5M254 468h5M274 468h5M299 468h5M469 468h5M509 468h5M229 469h5M254 469h5M274 469h5M299 469h5M469 469h5M509 469h5M229 470h5M254 470h5M274 470h5M299 470h5M469 470h5M509 470h5M464 471h55M464 472h55M464 473h55M464 474h55M464 475h55M89 511h5M334 511h5M394 511h5M639 511h5M89 512h5M334 512h5M394 512h5M639 512h5M89 513h5M334 513h5M394 513h5M639 513h5M89 514h5M334 514h5M394 514h5M639 514h5M89 515h5M334 515h5M394 515h5M639 515h5M89 516h10M329 516h10M394 516h10M634 516h10M89 517h10M329 517h10M394 517h10M634 517h10M89 518h10M329 518h10M394 518h10M634 518h10M89 519h10M329 519h10M394 519h10M634 519h10M89 520h10M329 520h10M394 520h10M634 520h10" />
<path stroke="#848484" d="M319 141h5M334 141h5M319 142h5M334 142h5M319 143h5M334 143h5M319 144h5M334 144h5M319 145h5M334 145h5M324 146h5M339 146h5M324 147h5M339 147h5M324 148h5M339 148h5M324 149h5M339 149h5M324 150h5M339 150h5M329 151h5M344 151h5M329 152h5M344 152h5M329 153h5M344 153h5M329 154h5M344 154h5M329 155h5M344 155h5M279 176h5M279 177h5M279 178h5M279 179h5M279 180h5M279 181h10M279 182h10M279 183h10M279 184h10M279 185h10" />
<path stroke="rgba(0,0,0,0.09411764705882353)" d="M254 206h240M254 207h240M254 208h240M254 209h240M254 210h240M254 211h240M254 212h240M254 213h240M254 214h240M254 215h240M254 216h240M254 217h240M254 218h240M254 219h240M254 220h240M254 221h240M254 222h240M254 223h240M254 224h240M254 225h240M89 341h5M99 341h25M154 341h45M229 341h45M304 341h25M334 341h5M394 341h5M404 341h230M639 341h5M89 342h5M99 342h25M154 342h45M229 342h45M304 342h25M334 342h5M394 342h5M404 342h230M639 342h5M89 343h5M99 343h25M154 343h45M229 343h45M304 343h25M334 343h5M394 343h5M404 343h230M639 343h5M89 344h5M99 344h25M154 344h45M229 344h45M304 344h25M334 344h5M394 344h5M404 344h230M639 344h5M89 345h5M99 345h25M154 345h45M229 345h45M304 345h25M334 345h5M394 345h5M404 345h230M639 345h5M89 346h5M99 346h25M154 346h45M229 346h45M304 346h25M334 346h5M394 346h5M404 346h230M639 346h5M89 347h5M99 347h25M154 347h45M229 347h45M304 347h25M334 347h5M394 347h5M404 347h230M639 347h5M89 348h5M99 348h25M154 348h45M229 348h45M304 348h25M334 348h5M394 348h5M404 348h230M639 348h5M89 349h5M99 349h25M154 349h45M229 349h45M304 349h25M334 349h5M394 349h5M404 349h230M639 349h5M89 350h5M99 350h25M154 350h45M229 350h45M304 350h25M334 350h5M394 350h5M404 350h230M639 350h5M89 351h5M99 351h25M159 351h40M234 351h35M304 351h25M334 351h5M394 351h5M404 351h230M639 351h5M89 352h5M99 352h25M159 352h40M234 352h35M304 352h25M334 352h5M394 352h5M404 352h230M639 352h5M89 353h5M99 353h25M159 353h40M234 353h35M304 353h25M334 353h5M394 353h5M404 353h230M639 353h5M89 354h5M99 354h25M159 354h40M234 354h35M304 354h25M334 354h5M394 354h5M404 354h230M639 354h5M89 355h5M99 355h25M159 355h40M234 355h35M304 355h25M334 355h5M394 355h5M404 355h230M639 355h5M89 356h5M99 356h25M159 356h40M234 356h35M304 356h25M334 356h5M394 356h5M404 356h230M639 356h5M89 357h5M99 357h25M159 357h40M234 357h35M304 357h25M334 357h5M394 357h5M404 357h230M639 357h5M89 358h5M99 358h25M159 358h40M234 358h35M304 358h25M334 358h5M394 358h5M404 358h230M639 358h5M89 359h5M99 359h25M159 359h40M234 359h35M304 359h25M334 359h5M394 359h5M404 359h230M639 359h5M89 360h5M99 360h25M159 360h40M234 360h35M304 360h25M334 360h5M394 360h5M404 360h230M639 360h5M99 361h25M129 361h25M159 361h40M204 361h25M234 361h35M274 361h25M304 361h25M404 361h230M99 362h25M129 362h25M159 362h40M204 362h25M234 362h35M274 362h25M304 362h25M404 362h230M99 363h25M129 363h25M159 363h40M204 363h25M234 363h35M274 363h25M304 363h25M404 363h230M99 364h25M129 364h25M159 364h40M204 364h25M234 364h35M274 364h25M304 364h25M404 364h230M99 365h25M129 365h25M159 365h40M204 365h25M234 365h35M274 365h25M304 365h25M404 365h230M99 366h25M129 366h25M159 366h40M204 366h25M234 366h35M274 366h25M304 366h25M404 366h230M99 367h25M129 367h25M159 367h40M204 367h25M234 367h35M274 367h25M304 367h25M404 367h230M99 368h25M129 368h25M159 368h40M204 368h25M234 368h35M274 368h25M304 368h25M404 368h230M99 369h25M129 369h25M159 369h40M204 369h25M234 369h35M274 369h25M304 369h25M404 369h230M99 370h25M129 370h25M159 370h40M204 370h25M234 370h35M274 370h25M304 370h25M404 370h230M119 371h5M129 371h25M159 371h5M194 371h5M204 371h25M234 371h5M264 371h5M274 371h25M304 371h5M119 372h5M129 372h25M159 372h5M194 372h5M204 372h25M234 372h5M264 372h5M274 372h25M304 372h5M119 373h5M129 373h25M159 373h5M194 373h5M204 373h25M234 373h5M264 373h5M274 373h25M304 373h5M119 374h5M129 374h25M159 374h5M194 374h5M204 374h25M234 374h5M264 374h5M274 374h25M304 374h5M119 375h5M129 375h25M159 375h5M194 375h5M204 375h25M234 375h5M264 375h5M274 375h25M304 375h5M119 376h45M194 376h45M264 376h45M119 377h45M194 377h45M264 377h45M119 378h45M194 378h45M264 378h45M119 379h45M194 379h45M264 379h45M119 380h45M194 380h45M264 380h45M89 491h5M99 491h25M154 491h55M239 491h90M334 491h5M394 491h5M404 491h145M579 491h55M639 491h5M89 492h5M99 492h25M154 492h55M239 492h90M334 492h5M394 492h5M404 492h145M579 492h55M639 492h5M89 493h5M99 493h25M154 493h55M239 493h90M334 493h5M394 493h5M404 493h145M579 493h55M639 493h5M89 494h5M99 494h25M154 494h55M239 494h90M334 494h5M394 494h5M404 494h145M579 494h55M639 494h5M89 495h5M99 495h25M154 495h55M239 495h90M334 495h5M394 495h5M404 495h145M579 495h55M639 495h5M89 496h5M99 496h25M154 496h55M239 496h90M334 496h5M394 496h5M404 496h145M579 496h55M639 496h5M89 497h5M99 497h25M154 497h55M239 497h90M334 497h5M394 497h5M404 497h145M579 497h55M639 497h5M89 498h5M99 498h25M154 498h55M239 498h90M334 498h5M394 498h5M404 498h145M579 498h55M639 498h5M89 499h5M99 499h25M154 499h55M239 499h90M334 499h5M394 499h5M404 499h145M579 499h55M639 499h5M89 500h5M99 500h25M154 500h55M239 500h90M334 500h5M394 500h5M404 500h145M579 500h55M639 500h5M89 501h5M99 501h25M159 501h45M239 501h90M334 501h5M394 501h5M404 501h140M579 501h55M639 501h5M89 502h5M99 502h25M159 502h45M239 502h90M334 502h5M394 502h5M404 502h140M579 502h55M639 502h5M89 503h5M99 503h25M159 503h45M239 503h90M334 503h5M394 503h5M404 503h140M579 503h55M639 503h5M89 504h5M99 504h25M159 504h45M239 504h90M334 504h5M394 504h5M404 504h140M579 504h55M639 504h5M89 505h5M99 505h25M159 505h45M239 505h90M334 505h5M394 505h5M404 505h140M579 505h55M639 505h5M89 506h5M99 506h25M159 506h45M239 506h90M334 506h5M394 506h5M404 506h140M579 506h55M639 506h5M89 507h5M99 507h25M159 507h45M239 507h90M334 507h5M394 507h5M404 507h140M579 507h55M639 507h5M89 508h5M99 508h25M159 508h45M239 508h90M334 508h5M394 508h5M404 508h140M579 508h55M639 508h5M89 509h5M99 509h25M159 509h45M239 509h90M334 509h5M394 509h5M404 509h140M579 509h55M639 509h5M89 510h5M99 510h25M159 510h45M239 510h90M334 510h5M394 510h5M404 510h140M579 510h55M639 510h5M99 511h25M129 511h25M159 511h45M209 511h25M239 511h90M404 511h140M549 511h25M579 511h55M99 512h25M129 512h25M159 512h45M209 512h25M239 512h90M404 512h140M549 512h25M579 512h55M99 513h25M129 513h25M159 513h45M209 513h25M239 513h90M404 513h140M549 513h25M579 513h55M99 514h25M129 514h25M159 514h45M209 514h25M239 514h90M404 514h140M549 514h25M579 514h55M99 515h25M129 515h25M159 515h45M209 515h25M239 515h90M404 515h140M549 515h25M579 515h55M99 516h25M129 516h25M159 516h45M209 516h25M239 516h90M404 516h140M549 516h25M579 516h55M99 517h25M129 517h25M159 517h45M209 517h25M239 517h90M404 517h140M549 517h25M579 517h55M99 518h25M129 518h25M159 518h45M209 518h25M239 518h90M404 518h140M549 518h25M579 518h55M99 519h25M129 519h25M159 519h45M209 519h25M239 519h90M404 519h140M549 519h25M579 519h55M99 520h25M129 520h25M159 520h45M209 520h25M239 520h90M404 520h140M549 520h25M579 520h55M119 521h5M129 521h25M159 521h5M194 521h10M209 521h25M239 521h5M534 521h10M549 521h25M579 521h5M119 522h5M129 522h25M159 522h5M194 522h10M209 522h25M239 522h5M534 522h10M549 522h25M579 522h5M119 523h5M129 523h25M159 523h5M194 523h10M209 523h25M239 523h5M534 523h10M549 523h25M579 523h5M119 524h5M129 524h25M159 524h5M194 524h10M209 524h25M239 524h5M534 524h10M549 524h25M579 524h5M119 525h5M129 525h25M159 525h5M194 525h10M209 525h25M239 525h5M534 525h10M549 525h25M579 525h5M119 526h45M194 526h50M534 526h50M119 527h45M194 527h50M534 527h50M119 528h45M194 528h50M534 528h50M119 529h45M194 529h50M534 529h50M119 530h45M194 530h50M534 530h50" />
<path stroke="#d5ecf9" d="M294 256h10M604 256h10M294 257h10M604 257h10M294 258h10M604 258h10M294 259h10M604 259h10M294 260h10M604 260h10M299 261h5M609 261h5M299 262h5M609 262h5M299 263h5M609 263h5M299 264h5M609 264h5M299 265h5M609 265h5M299 266h5M609 266h5M299 267h5M609 267h5M299 268h5M609 268h5M299 269h5M609 269h5M299 270h5M609 270h5M114 271h5M299 271h5M609 271h5M114 272h5M299 272h5M609 272h5M114 273h5M299 273h5M609 273h5M114 274h5M299 274h5M609 274h5M114 275h5M299 275h5M609 275h5M114 276h5M114 277h5M114 278h5M114 279h5M114 280h5M114 281h5M114 282h5M114 283h5M114 284h5M114 285h5M124 331h5M199 331h5M299 331h5M124 332h5M199 332h5M299 332h5M124 333h5M199 333h5M299 333h5M124 334h5M199 334h5M299 334h5M124 335h5M199 335h5M299 335h5M124 336h5M199 336h5M299 336h5M124 337h5M199 337h5M299 337h5M124 338h5M199 338h5M299 338h5M124 339h5M199 339h5M299 339h5M124 340h5M199 340h5M299 340h5M124 341h5M199 341h5M299 341h5M124 342h5M199 342h5M299 342h5M124 343h5M199 343h5M299 343h5M124 344h5M199 344h5M299 344h5M124 345h5M199 345h5M299 345h5M124 346h5M199 346h5M299 346h5M124 347h5M199 347h5M299 347h5M124 348h5M199 348h5M299 348h5M124 349h5M199 349h5M299 349h5M124 350h5M199 350h5M299 350h5M124 351h5M154 351h5M199 351h5M229 351h5M269 351h5M299 351h5M124 352h5M154 352h5M199 352h5M229 352h5M269 352h5M299 352h5M124 353h5M154 353h5M199 353h5M229 353h5M269 353h5M299 353h5M124 354h5M154 354h5M199 354h5M229 354h5M269 354h5M299 354h5M124 355h5M154 355h5M199 355h5M229 355h5M269 355h5M299 355h5M124 356h5M199 356h5M299 356h5M124 357h5M199 357h5M299 357h5M124 358h5M199 358h5M299 358h5M124 359h5M199 359h5M299 359h5M124 360h5M199 360h5M299 360h5M554 406h10M554 407h10M554 408h10M554 409h10M554 410h10M559 411h5M559 412h5M559 413h5M559 414h5M559 415h5M559 416h5M559 417h5M559 418h5M559 419h5M559 420h5M559 421h5M559 422h5M559 423h5M559 424h5M559 425h5M564 446h5M614 446h5M564 447h5M614 447h5M564 448h5M614 448h5M564 449h5M614 449h5M564 450h5M614 450h5M554 456h5M574 456h5M614 456h5M554 457h5M574 457h5M614 457h5M554 458h5M574 458h5M614 458h5M554 459h5M574 459h5M614 459h5M554 460h5M574 460h5M614 460h5M124 481h5M234 481h5M574 481h5M124 482h5M234 482h5M574 482h5M124 483h5M234 483h5M574 483h5M124 484h5M234 484h5M574 484h5M124 485h5M234 485h5M574 485h5M124 486h5M234 486h5M574 486h5M124 487h5M234 487h5M574 487h5M124 488h5M234 488h5M574 488h5M124 489h5M234 489h5M574 489h5M124 490h5M234 490h5M574 490h5M124 491h5M234 491h5M574 491h5M124 492h5M234 492h5M574 492h5M124 493h5M234 493h5M574 493h5M124 494h5M234 494h5M574 494h5M124 495h5M234 495h5M574 495h5M124 496h5M234 496h5M574 496h5M124 497h5M234 497h5M574 497h5M124 498h5M234 498h5M574 498h5M124 499h5M234 499h5M574 499h5M124 500h5M234 500h5M574 500h5M124 501h5M154 501h5M204 501h5M234 501h5M544 501h5M574 501h5M124 502h5M154 502h5M204 502h5M234 502h5M544 502h5M574 502h5M124 503h5M154 503h5M204 503h5M234 503h5M544 503h5M574 503h5M124 504h5M154 504h5M204 504h5M234 504h5M544 504h5M574 504h5M124 505h5M154 505h5M204 505h5M234 505h5M544 505h5M574 505h5M124 506h5M234 506h5M574 506h5M124 507h5M234 507h5M574 507h5M124 508h5M234 508h5M574 508h5M124 509h5M234 509h5M574 509h5M124 510h5M234 510h5M574 510h5" />
<path stroke="#de9187" d="M109 266h40M109 267h40M109 268h40M109 269h40M109 270h40M109 271h5M119 271h30M109 272h5M119 272h30M109 273h5M119 273h30M109 274h5M119 274h30M109 275h5M119 275h30M109 276h5M119 276h30M109 277h5M119 277h30M109 278h5M119 278h30M109 279h5M119 279h30M109 280h5M119 280h30M109 281h5M119 281h30M109 282h5M119 282h30M109 283h5M119 283h30M109 284h5M119 284h30M109 285h5M119 285h30M109 286h40M109 287h40M109 288h40M109 289h40M109 290h40M109 291h40M109 292h40M109 293h40M109 294h40M109 295h40M114 296h30M114 297h30M114 298h30M114 299h30M114 300h30" />
<path stroke="#cda797" d="M179 266h15M179 267h15M179 268h15M179 269h15M179 270h15M184 271h15M184 272h15M184 273h15M184 274h15M184 275h15M179 276h15M179 277h15M179 278h15M179 279h15M179 280h15M184 281h15M184 282h15M184 283h15M184 284h15M184 285h15M179 286h15M179 287h15M179 288h15M179 289h15M179 290h15M184 291h15M184 292h15M184 293h15M184 294h15M184 295h15M179 296h15M179 297h15M179 298h15M179 299h15M179 300h15M184 301h15M184 302h15M184 303h15M184 304h15M184 305h15M179 306h15M179 307h15M179 308h15M179 309h15M179 310h15M184 311h15M184 312h15M184 313h15M184 314h15M184 315h15M179 316h15M179 317h15M179 318h15M179 319h15M179 320h15" />
<path stroke="#cacf4a" d="M514 266h40M514 267h40M514 268h40M514 269h40M514 270h40M514 271h40M514 272h40M514 273h40M514 274h40M514 275h40M514 276h40M514 277h40M514 278h40M514 279h40M514 280h40" />
<path stroke="#fcd384" d="M89 276h20M149 276h30M194 276h145M394 276h115M554 276h90M89 277h20M149 277h30M194 277h145M394 277h115M554 277h90M89 278h20M149 278h30M194 278h145M394 278h115M554 278h90M89 279h20M149 279h30M194 279h145M394 279h115M554 279h90M89 280h20M149 280h30M194 280h145M394 280h115M554 280h90M89 281h20M149 281h35M199 281h105M334 281h5M394 281h115M559 281h50M639 281h5M89 282h20M149 282h35M199 282h105M334 282h5M394 282h115M559 282h50M639 282h5M89 283h20M149 283h35M199 283h105M334 283h5M394 283h115M559 283h50M639 283h5M89 284h20M149 284h35M199 284h105M334 284h5M394 284h115M559 284h50M639 284h5M89 285h20M149 285h35M199 285h105M334 285h5M394 285h115M559 285h50M639 285h5M89 286h20M149 286h30M194 286h30M274 286h65M394 286h15M449 286h60M559 286h85M89 287h20M149 287h30M194 287h30M274 287h65M394 287h15M449 287h60M559 287h85M89 288h20M149 288h30M194 288h30M274 288h65M394 288h15M449 288h60M559 288h85M89 289h20M149 289h30M194 289h30M274 289h65M394 289h15M449 289h60M559 289h85M89 290h20M149 290h30M194 290h30M274 290h65M394 290h15M449 290h60M559 290h85M89 291h20M149 291h35M199 291h25M274 291h20M314 291h5M334 291h5M394 291h15M449 291h55M559 291h45M624 291h5M639 291h5M89 292h20M149 292h35M199 292h25M274 292h20M314 292h5M334 292h5M394 292h15M449 292h55M559 292h45M624 292h5M639 292h5M89 293h20M149 293h35M199 293h25M274 293h20M314 293h5M334 293h5M394 293h15M449 293h55M559 293h45M624 293h5M639 293h5M89 294h20M149 294h35M199 294h25M274 294h20M314 294h5M334 294h5M394 294h15M449 294h55M559 294h45M624 294h5M639 294h5M89 295h20M149 295h35M199 295h25M274 295h20M314 295h5M334 295h5M394 295h15M449 295h55M559 295h45M624 295h5M639 295h5M89 296h25M144 296h35M194 296h20M219 296h5M274 296h65M394 296h15M449 296h55M559 296h85M89 297h25M144 297h35M194 297h20M219 297h5M274 297h65M394 297h15M449 297h55M559 297h85M89 298h25M144 298h35M194 298h20M219 298h5M274 298h65M394 298h15M449 298h55M559 298h85M89 299h25M144 299h35M194 299h20M219 299h5M274 299h65M394 299h15M449 299h55M559 299h85M89 300h25M144 300h35M194 300h20M219 300h5M274 300h65M394 300h15M449 300h55M559 300h85M89 301h95M199 301h25M274 301h5M284 301h55M394 301h15M449 301h55M559 301h35M629 301h5M639 301h5M89 302h95M199 302h25M274 302h5M284 302h55M394 302h15M449 302h55M559 302h35M629 302h5M639 302h5M89 303h95M199 303h25M274 303h5M284 303h55M394 303h15M449 303h55M559 303h35M629 303h5M639 303h5M89 304h95M199 304h25M274 304h5M284 304h55M394 304h15M449 304h55M559 304h35M629 304h5M639 304h5M89 305h95M199 305h25M274 305h5M284 305h55M394 305h15M449 305h55M559 305h35M629 305h5M639 305h5M89 306h90M194 306h30M274 306h65M394 306h15M449 306h55M554 306h90M89 307h90M194 307h30M274 307h65M394 307h15M449 307h55M554 307h90M89 308h90M194 308h30M274 308h65M394 308h15M449 308h55M554 308h90M89 309h90M194 309h30M274 309h65M394 309h15M449 309h55M554 309h90M89 310h90M194 310h30M274 310h65M394 310h15M449 310h55M554 310h90M89 311h95M199 311h25M274 311h65M394 311h15M449 311h55M554 311h40M599 311h5M639 311h5M89 312h95M199 312h25M274 312h65M394 312h15M449 312h55M554 312h40M599 312h5M639 312h5M89 313h95M199 313h25M274 313h65M394 313h15M449 313h55M554 313h40M599 313h5M639 313h5M89 314h95M199 314h25M274 314h65M394 314h15M449 314h55M554 314h40M599 314h5M639 314h5M89 315h95M199 315h25M274 315h65M394 315h15M449 315h55M554 315h40M599 315h5M639 315h5M89 316h5M124 316h55M194 316h20M219 316h120M394 316h15M449 316h55M554 316h90M89 317h5M124 317h55M194 317h20M219 317h120M394 317h15M449 317h55M554 317h90M89 318h5M124 318h55M194 318h20M219 318h120M394 318h15M449 318h55M554 318h90M89 319h5M124 319h55M194 319h20M219 319h120M394 319h15M449 319h55M554 319h90M89 320h5M124 320h55M194 320h20M219 320h120M394 320h15M449 320h55M554 320h90M89 321h250M394 321h5M449 321h195M89 322h250M394 322h5M449 322h195M89 323h250M394 323h5M449 323h195M89 324h250M394 324h5M449 324h195M89 325h250M394 325h5M449 325h195M89 326h5M109 326h5M129 326h210M394 326h250M89 327h5M109 327h5M129 327h210M394 327h250M89 328h5M109 328h5M129 328h210M394 328h250M89 329h5M109 329h5M129 329h210M394 329h250M89 330h5M109 330h5M129 330h210M394 330h250M89 331h35M154 331h45M229 331h45M304 331h35M394 331h5M424 331h5M444 331h200M89 332h35M154 332h45M229 332h45M304 332h35M394 332h5M424 332h5M444 332h200M89 333h35M154 333h45M229 333h45M304 333h35M394 333h5M424 333h5M444 333h200M89 334h35M154 334h45M229 334h45M304 334h35M394 334h5M424 334h5M444 334h200M89 335h35M154 335h45M229 335h45M304 335h35M394 335h5M424 335h5M444 335h200M89 426h15M139 426h200M394 426h70M519 426h125M89 427h15M139 427h200M394 427h70M519 427h125M89 428h15M139 428h200M394 428h70M519 428h125M89 429h15M139 429h200M394 429h70M519 429h125M89 430h15M139 430h200M394 430h70M519 430h125M89 431h15M139 431h160M334 431h5M394 431h70M519 431h60M624 431h5M639 431h5M89 432h15M139 432h160M334 432h5M394 432h70M519 432h60M624 432h5M639 432h5M89 433h15M139 433h160M334 433h5M394 433h70M519 433h60M624 433h5M639 433h5M89 434h15M139 434h160M334 434h5M394 434h70M519 434h60M624 434h5M639 434h5M89 435h15M139 435h160M334 435h5M394 435h70M519 435h60M624 435h5M639 435h5M89 436h15M139 436h200M394 436h70M519 436h125M89 437h15M139 437h200M394 437h70M519 437h125M89 438h15M139 438h200M394 438h70M519 438h125M89 439h15M139 439h200M394 439h70M519 439h125M89 440h15M139 440h200M394 440h70M519 440h125M89 441h15M139 441h95M239 441h10M254 441h25M284 441h10M299 441h10M314 441h5M334 441h5M394 441h70M519 441h30M639 441h5M89 442h15M139 442h95M239 442h10M254 442h25M284 442h10M299 442h10M314 442h5M334 442h5M394 442h70M519 442h30M639 442h5M89 443h15M139 443h95M239 443h10M254 443h25M284 443h10M299 443h10M314 443h5M334 443h5M394 443h70M519 443h30M639 443h5M89 444h15M139 444h95M239 444h10M254 444h25M284 444h10M299 444h10M314 444h5M334 444h5M394 444h70M519 444h30M639 444h5M89 445h15M139 445h95M239 445h10M254 445h25M284 445h10M299 445h10M314 445h5M334 445h5M394 445h70M519 445h30M639 445h5M89 446h20M134 446h95M259 446h15M304 446h35M394 446h70M519 446h30M624 446h20M89 447h20M134 447h95M259 447h15M304 447h35M394 447h70M519 447h30M624 447h20M89 448h20M134 448h95M259 448h15M304 448h35M394 448h70M519 448h30M624 448h20M89 449h20M134 449h95M259 449h15M304 449h35M394 449h70M519 449h30M624 449h20M89 450h20M134 450h95M259 450h15M304 450h35M394 450h70M519 450h30M624 450h20M89 451h15M139 451h90M259 451h15M324 451h5M334 451h5M394 451h70M519 451h30M639 451h5M89 452h15M139 452h90M259 452h15M324 452h5M334 452h5M394 452h70M519 452h30M639 452h5M89 453h15M139 453h90M259 453h15M324 453h5M334 453h5M394 453h70M519 453h30M639 453h5M89 454h15M139 454h90M259 454h15M324 454h5M334 454h5M394 454h70M519 454h30M639 454h5M89 455h15M139 455h90M259 455h15M324 455h5M334 455h5M394 455h70M519 455h30M639 455h5M89 456h15M139 456h90M259 456h15M304 456h35M394 456h5M429 456h35M519 456h30M624 456h20M89 457h15M139 457h90M259 457h15M304 457h35M394 457h5M429 457h35M519 457h30M624 457h20M89 458h15M139 458h90M259 458h15M304 458h35M394 458h5M429 458h35M519 458h30M624 458h20M89 459h15M139 459h90M259 459h15M304 459h35M394 459h5M429 459h35M519 459h30M624 459h20M89 460h15M139 460h90M259 460h15M304 460h35M394 460h5M429 460h35M519 460h30M624 460h20M89 461h140M259 461h15M304 461h35M394 461h70M519 461h30M624 461h20M89 462h140M259 462h15M304 462h35M394 462h70M519 462h30M624 462h20M89 463h140M259 463h15M304 463h35M394 463h70M519 463h30M624 463h20M89 464h140M259 464h15M304 464h35M394 464h70M519 464h30M624 464h20M89 465h140M259 465h15M304 465h35M394 465h70M519 465h30M624 465h20M89 466h5M104 466h5M129 466h100M234 466h20M259 466h15M279 466h20M304 466h35M394 466h5M414 466h5M444 466h25M474 466h35M514 466h15M554 466h5M569 466h75M89 467h5M104 467h5M129 467h100M234 467h20M259 467h15M279 467h20M304 467h35M394 467h5M414 467h5M444 467h25M474 467h35M514 467h15M554 467h5M569 467h75M89 468h5M104 468h5M129 468h100M234 468h20M259 468h15M279 468h20M304 468h35M394 468h5M414 468h5M444 468h25M474 468h35M514 468h15M554 468h5M569 468h75M89 469h5M104 469h5M129 469h100M234 469h20M259 469h15M279 469h20M304 469h35M394 469h5M414 469h5M444 469h25M474 469h35M514 469h15M554 469h5M569 469h75M89 470h5M104 470h5M129 470h100M234 470h20M259 470h15M279 470h20M304 470h35M394 470h5M414 470h5M444 470h25M474 470h35M514 470h15M554 470h5M569 470h75M89 471h250M394 471h70M519 471h125M89 472h250M394 472h70M519 472h125M89 473h250M394 473h70M519 473h125M89 474h250M394 474h70M519 474h125M89 475h250M394 475h70M519 475h125M89 476h5M114 476h5M129 476h210M394 476h5M429 476h5M444 476h80M534 476h5M564 476h5M584 476h60M89 477h5M114 477h5M129 477h210M394 477h5M429 477h5M444 477h80M534 477h5M564 477h5M584 477h60M89 478h5M114 478h5M129 478h210M394 478h5M429 478h5M444 478h80M534 478h5M564 478h5M584 478h60M89 479h5M114 479h5M129 479h210M394 479h5M429 479h5M444 479h80M534 479h5M564 479h5M584 479h60M89 480h5M114 480h5M129 480h210M394 480h5M429 480h5M444 480h80M534 480h5M564 480h5M584 480h60M89 481h35M154 481h55M239 481h100M394 481h155M579 481h65M89 482h35M154 482h55M239 482h100M394 482h155M579 482h65M89 483h35M154 483h55M239 483h100M394 483h155M579 483h65M89 484h35M154 484h55M239 484h100M394 484h155M579 484h65M89 485h35M154 485h55M239 485h100M394 485h155M579 485h65" />
<path stroke="#fffd80" d="M509 276h5M509 277h5M509 278h5M509 279h5M509 280h5M509 281h5M509 282h5M509 283h5M509 284h5M509 285h5M509 286h40M509 287h40M509 288h40M509 289h40M509 290h40" />
<path stroke="#f4c975" d="M304 281h30M304 282h30M304 283h30M304 284h30M304 285h30M294 291h20M319 291h15M629 291h10M294 292h20M319 292h15M629 292h10M294 293h20M319 293h15M629 293h10M294 294h20M319 294h15M629 294h10M294 295h20M319 295h15M629 295h10M594 301h35M594 302h35M594 303h35M594 304h35M594 305h35M594 311h5M594 312h5M594 313h5M594 314h5M594 315h5M94 316h30M94 317h30M94 318h30M94 319h30M94 320h30M399 321h10M399 322h10M399 323h10M399 324h10M399 325h10M94 326h15M114 326h15M94 327h15M114 327h15M94 328h15M114 328h15M94 329h15M114 329h15M94 330h15M114 330h15M429 331h15M429 332h15M429 333h15M429 334h15M429 335h15M89 336h35M154 336h45M229 336h45M304 336h35M394 336h250M89 337h35M154 337h45M229 337h45M304 337h35M394 337h250M89 338h35M154 338h45M229 338h45M304 338h35M394 338h250M89 339h35M154 339h45M229 339h45M304 339h35M394 339h250M89 340h35M154 340h45M229 340h45M304 340h35M394 340h250M299 431h35M579 431h45M299 432h35M579 432h45M299 433h35M579 433h45M299 434h35M579 434h45M299 435h35M579 435h45M309 441h5M309 442h5M309 443h5M309 444h5M309 445h5M329 451h5M624 451h15M329 452h5M624 452h15M329 453h5M624 453h15M329 454h5M624 454h15M329 455h5M624 455h15M109 466h20M399 466h15M559 466h10M109 467h20M399 467h15M559 467h10M109 468h20M399 468h15M559 468h10M109 469h20M399 469h15M559 469h10M109 470h20M399 470h15M559 470h10M94 476h20M434 476h10M539 476h25M94 477h20M434 477h10M539 477h25M94 478h20M434 478h10M539 478h25M94 479h20M434 479h10M539 479h25M94 480h20M434 480h10M539 480h25M89 486h35M154 486h55M239 486h100M394 486h155M579 486h65M89 487h35M154 487h55M239 487h100M394 487h155M579 487h65M89 488h35M154 488h55M239 488h100M394 488h155M579 488h65M89 489h35M154 489h55M239 489h100M394 489h155M579 489h65M89 490h35M154 490h55M239 490h100M394 490h155M579 490h65" />
<path stroke="#b6ba3e" d="M514 281h40M514 282h40M514 283h40M514 284h40M514 285h40" />
<path stroke="#ec91c8" d="M554 281h5M554 282h5M554 283h5M554 284h5M554 285h5M549 286h10M549 287h10M549 288h10M549 289h10M549 290h10M549 291h10M549 292h10M549 293h10M549 294h10M549 295h10" />
<path stroke="#ffe6b5" d="M609 281h30M609 282h30M609 283h30M609 284h30M609 285h30M604 291h20M604 292h20M604 293h20M604 294h20M604 295h20M634 301h5M634 302h5M634 303h5M634 304h5M634 305h5M604 311h35M604 312h35M604 313h35M604 314h35M604 315h35M399 331h25M399 332h25M399 333h25M399 334h25M399 335h25M629 431h10M629 432h10M629 433h10M629 434h10M629 435h10M319 441h15M624 441h15M319 442h15M624 442h15M319 443h15M624 443h15M319 444h15M624 444h15M319 445h15M624 445h15M304 451h20M304 452h20M304 453h20M304 454h20M304 455h20M399 456h30M399 457h30M399 458h30M399 459h30M399 460h30M94 466h10M419 466h25M529 466h25M94 467h10M419 467h25M529 467h25M94 468h10M419 468h25M529 468h25M94 469h10M419 469h25M529 469h25M94 470h10M419 470h25M529 470h25M119 476h10M399 476h30M524 476h10M569 476h15M119 477h10M399 477h30M524 477h10M569 477h15M119 478h10M399 478h30M524 478h10M569 478h15M119 479h10M399 479h30M524 479h10M569 479h15M119 480h10M399 480h30M524 480h10M569 480h15" />
<path stroke="#f2ece1" d="M224 286h25M254 286h20M224 287h25M254 287h20M224 288h25M254 288h20M224 289h25M254 289h20M224 290h25M254 290h20M224 291h25M264 291h10M224 292h25M264 292h10M224 293h25M264 293h10M224 294h25M264 294h10M224 295h25M264 295h10M224 296h5M244 296h5M254 296h5M264 296h10M224 297h5M244 297h5M254 297h5M264 297h10M224 298h5M244 298h5M254 298h5M264 298h10M224 299h5M244 299h5M254 299h5M264 299h10M224 300h5M244 300h5M254 300h5M264 300h10M224 301h5M234 301h5M254 301h5M264 301h10M224 302h5M234 302h5M254 302h5M264 302h10M224 303h5M234 303h5M254 303h5M264 303h10M224 304h5M234 304h5M254 304h5M264 304h10M224 305h5M234 305h5M254 305h5M264 305h10M234 306h25M234 307h25M234 308h25M234 309h25M234 310h25M224 311h35M264 311h10M224 312h35M264 312h10M224 313h35M264 313h10M224 314h35M264 314h10M224 315h35M264 315h10" />
<path stroke="#f8330c" d="M249 286h5M249 287h5M249 288h5M249 289h5M249 290h5M249 291h5M259 291h5M249 292h5M259 292h5M249 293h5M259 293h5M249 294h5M259 294h5M249 295h5M259 295h5M234 296h10M249 296h5M259 296h5M234 297h10M249 297h5M259 297h5M234 298h10M249 298h5M259 298h5M234 299h10M249 299h5M259 299h5M234 300h10M249 300h5M259 300h5M229 301h5M239 301h15M259 301h5M229 302h5M239 302h15M259 302h5M229 303h5M239 303h15M259 303h5M229 304h5M239 304h15M259 304h5M229 305h5M239 305h15M259 305h5M229 306h5M259 306h15M229 307h5M259 307h15M229 308h5M259 308h15M229 309h5M259 309h15M229 310h5M259 310h15M259 311h5M259 312h5M259 313h5M259 314h5M259 315h5" />
<path stroke="#efefef" d="M409 286h5M419 286h5M429 286h5M439 286h5M409 287h5M419 287h5M429 287h5M439 287h5M409 288h5M419 288h5M429 288h5M439 288h5M409 289h5M419 289h5M429 289h5M439 289h5M409 290h5M419 290h5M429 290h5M439 290h5M414 291h5M424 291h5M434 291h5M444 291h5M414 292h5M424 292h5M434 292h5M444 292h5M414 293h5M424 293h5M434 293h5M444 293h5M414 294h5M424 294h5M434 294h5M444 294h5M414 295h5M424 295h5M434 295h5M444 295h5M409 296h5M419 296h5M429 296h5M439 296h5M409 297h5M419 297h5M429 297h5M439 297h5M409 298h5M419 298h5M429 298h5M439 298h5M409 299h5M419 299h5M429 299h5M439 299h5M409 300h5M419 300h5M429 300h5M439 300h5M414 301h5M424 301h5M434 301h5M444 301h5M414 302h5M424 302h5M434 302h5M444 302h5M414 303h5M424 303h5M434 303h5M444 303h5M414 304h5M424 304h5M434 304h5M444 304h5M414 305h5M424 305h5M434 305h5M444 305h5M409 306h5M419 306h5M429 306h5M439 306h5M409 307h5M419 307h5M429 307h5M439 307h5M409 308h5M419 308h5M429 308h5M439 308h5M409 309h5M419 309h5M429 309h5M439 309h5M409 310h5M419 310h5M429 310h5M439 310h5M414 311h5M424 311h5M434 311h5M444 311h5M414 312h5M424 312h5M434 312h5M444 312h5M414 313h5M424 313h5M434 313h5M444 313h5M414 314h5M424 314h5M434 314h5M444 314h5M414 315h5M424 315h5M434 315h5M444 315h5M409 316h5M419 316h5M429 316h5M439 316h5M409 317h5M419 317h5M429 317h5M439 317h5M409 318h5M419 318h5M429 318h5M439 318h5M409 319h5M419 319h5M429 319h5M439 319h5M409 320h5M419 320h5M429 320h5M439 320h5M414 321h5M424 321h5M434 321h5M444 321h5M414 322h5M424 322h5M434 322h5M444 322h5M414 323h5M424 323h5M434 323h5M444 323h5M414 324h5M424 324h5M434 324h5M444 324h5M414 325h5M424 325h5M434 325h5M444 325h5" />
<path stroke="#743f39" d="M414 286h5M424 286h5M434 286h5M444 286h5M414 287h5M424 287h5M434 287h5M444 287h5M414 288h5M424 288h5M434 288h5M444 288h5M414 289h5M424 289h5M434 289h5M444 289h5M414 290h5M424 290h5M434 290h5M444 290h5M409 291h5M419 291h5M429 291h5M439 291h5M409 292h5M419 292h5M429 292h5M439 292h5M409 293h5M419 293h5M429 293h5M439 293h5M409 294h5M419 294h5M429 294h5M439 294h5M409 295h5M419 295h5M429 295h5M439 295h5M414 296h5M424 296h5M434 296h5M444 296h5M414 297h5M424 297h5M434 297h5M444 297h5M414 298h5M424 298h5M434 298h5M444 298h5M414 299h5M424 299h5M434 299h5M444 299h5M414 300h5M424 300h5M434 300h5M444 300h5M409 301h5M419 301h5M429 301h5M439 301h5M409 302h5M419 302h5M429 302h5M439 302h5M409 303h5M419 303h5M429 303h5M439 303h5M409 304h5M419 304h5M429 304h5M439 304h5M409 305h5M419 305h5M429 305h5M439 305h5M414 306h5M424 306h5M434 306h5M444 306h5M414 307h5M424 307h5M434 307h5M444 307h5M414 308h5M424 308h5M434 308h5M444 308h5M414 309h5M424 309h5M434 309h5M444 309h5M414 310h5M424 310h5M434 310h5M444 310h5M409 311h5M419 311h5M429 311h5M439 311h5M409 312h5M419 312h5M429 312h5M439 312h5M409 313h5M419 313h5M429 313h5M439 313h5M409 314h5M419 314h5M429 314h5M439 314h5M409 315h5M419 315h5M429 315h5M439 315h5M414 316h5M424 316h5M434 316h5M444 316h5M414 317h5M424 317h5M434 317h5M444 317h5M414 318h5M424 318h5M434 318h5M444 318h5M414 319h5M424 319h5M434 319h5M444 319h5M414 320h5M424 320h5M434 320h5M444 320h5M409 321h5M419 321h5M429 321h5M439 321h5M409 322h5M419 322h5M429 322h5M439 322h5M409 323h5M419 323h5M429 323h5M439 323h5M409 324h5M419 324h5M429 324h5M439 324h5M409 325h5M419 325h5M429 325h5M439 325h5" />
<path stroke="#27cbca" d="M254 291h5M254 292h5M254 293h5M254 294h5M254 295h5M279 301h5M279 302h5M279 303h5M279 304h5M279 305h5" />
<path stroke="#7a8bae" d="M504 291h5M504 292h5M504 293h5M504 294h5M504 295h5M504 296h15M504 297h15M504 298h15M504 299h15M504 300h15M504 301h15M504 302h15M504 303h15M504 304h15M504 305h15M504 306h50M504 307h50M504 308h50M504 309h50M504 310h50" />
<path stroke="#ffe762" d="M509 291h40M509 292h40M509 293h40M509 294h40M509 295h40" />
<path stroke="#34cb27" d="M214 296h5M229 296h5M214 297h5M229 297h5M214 298h5M229 298h5M214 299h5M229 299h5M214 300h5M229 300h5" />
<path stroke="#ffd33b" d="M224 306h5M224 307h5M224 308h5M224 309h5M224 310h5M214 316h5M214 317h5M214 318h5M214 319h5M214 320h5" />
<path stroke="#465eb1" d="M504 311h50M504 312h50M504 313h50M504 314h50M504 315h50M504 316h50M504 317h50M504 318h50M504 319h50M504 320h50M464 416h10M509 416h10M464 417h10M509 417h10M464 418h10M509 418h10M464 419h10M509 419h10M464 420h10M509 420h10M464 421h55M464 422h55M464 423h55M464 424h55M464 425h55M464 426h5M474 426h30M514 426h5M464 427h5M474 427h30M514 427h5M464 428h5M474 428h30M514 428h5M464 429h5M474 429h30M514 429h5M464 430h5M474 430h30M514 430h5M464 431h10M479 431h30M514 431h5M464 432h10M479 432h30M514 432h5M464 433h10M479 433h30M514 433h5M464 434h10M479 434h30M514 434h5M464 435h10M479 435h30M514 435h5M464 436h15M484 436h35M464 437h15M484 437h35M464 438h15M484 438h35M464 439h15M484 439h35M464 440h15M484 440h35M464 441h5M474 441h10M489 441h5M509 441h10M464 442h5M474 442h10M489 442h5M509 442h10M464 443h5M474 443h10M489 443h5M509 443h10M464 444h5M474 444h10M489 444h5M509 444h10M464 445h5M474 445h10M489 445h5M509 445h10M464 446h15M484 446h5M494 446h15M514 446h5M464 447h15M484 447h5M494 447h15M514 447h5M464 448h15M484 448h5M494 448h15M514 448h5M464 449h15M484 449h5M494 449h15M514 449h5M464 450h15M484 450h5M494 450h15M514 450h5M464 451h40M509 451h10M464 452h40M509 452h10M464 453h40M509 453h10M464 454h40M509 454h10M464 455h40M509 455h10M464 456h40M509 456h10M464 457h40M509 457h10M464 458h40M509 458h10M464 459h40M509 459h10M464 460h40M509 460h10M464 461h55M464 462h55M464 463h55M464 464h55M464 465h55" />
<path stroke="#aaaaaa" d="M124 361h5M154 361h5M199 361h5M229 361h5M269 361h5M299 361h5M124 362h5M154 362h5M199 362h5M229 362h5M269 362h5M299 362h5M124 363h5M154 363h5M199 363h5M229 363h5M269 363h5M299 363h5M124 364h5M154 364h5M199 364h5M229 364h5M269 364h5M299 364h5M124 365h5M154 365h5M199 365h5M229 365h5M269 365h5M299 365h5M124 366h5M154 366h5M199 366h5M229 366h5M269 366h5M299 366h5M124 367h5M154 367h5M199 367h5M229 367h5M269 367h5M299 367h5M124 368h5M154 368h5M199 368h5M229 368h5M269 368h5M299 368h5M124 369h5M154 369h5M199 369h5M229 369h5M269 369h5M299 369h5M124 370h5M154 370h5M199 370h5M229 370h5M269 370h5M299 370h5M124 371h5M154 371h5M199 371h5M229 371h5M269 371h5M299 371h5M124 372h5M154 372h5M199 372h5M229 372h5M269 372h5M299 372h5M124 373h5M154 373h5M199 373h5M229 373h5M269 373h5M299 373h5M124 374h5M154 374h5M199 374h5M229 374h5M269 374h5M299 374h5M124 375h5M154 375h5M199 375h5M229 375h5M269 375h5M299 375h5M124 426h5M124 427h5M124 428h5M124 429h5M124 430h5M129 431h5M129 432h5M129 433h5M129 434h5M129 435h5M124 511h5M154 511h5M204 511h5M234 511h5M544 511h5M574 511h5M124 512h5M154 512h5M204 512h5M234 512h5M544 512h5M574 512h5M124 513h5M154 513h5M204 513h5M234 513h5M544 513h5M574 513h5M124 514h5M154 514h5M204 514h5M234 514h5M544 514h5M574 514h5M124 515h5M154 515h5M204 515h5M234 515h5M544 515h5M574 515h5M124 516h5M154 516h5M204 516h5M234 516h5M544 516h5M574 516h5M124 517h5M154 517h5M204 517h5M234 517h5M544 517h5M574 517h5M124 518h5M154 518h5M204 518h5M234 518h5M544 518h5M574 518h5M124 519h5M154 519h5M204 519h5M234 519h5M544 519h5M574 519h5M124 520h5M154 520h5M204 520h5M234 520h5M544 520h5M574 520h5M124 521h5M154 521h5M204 521h5M234 521h5M544 521h5M574 521h5M124 522h5M154 522h5M204 522h5M234 522h5M544 522h5M574 522h5M124 523h5M154 523h5M204 523h5M234 523h5M544 523h5M574 523h5M124 524h5M154 524h5M204 524h5M234 524h5M544 524h5M574 524h5M124 525h5M154 525h5M204 525h5M234 525h5M544 525h5M574 525h5" />
<path stroke="#747272" d="M109 426h15M129 426h5M109 427h15M129 427h5M109 428h15M129 428h5M109 429h15M129 429h5M109 430h15M129 430h5M109 431h20M109 432h20M109 433h20M109 434h20M109 435h20M109 436h25M109 437h25M109 438h25M109 439h25M109 440h25M109 441h25M109 442h25M109 443h25M109 444h25M109 445h25" />
<path stroke="#dbd81c" d="M469 426h5M469 427h5M469 428h5M469 429h5M469 430h5M474 431h5M474 432h5M474 433h5M474 434h5M474 435h5M479 436h5M479 437h5M479 438h5M479 439h5M479 440h5M469 441h5M469 442h5M469 443h5M469 444h5M469 445h5M509 446h5M509 447h5M509 448h5M509 449h5M509 450h5M504 451h5M504 452h5M504 453h5M504 454h5M504 455h5M504 456h5M504 457h5M504 458h5M504 459h5M504 460h5" />
<path stroke="#e54e3b" d="M504 426h10M504 427h10M504 428h10M504 429h10M504 430h10M509 431h5M509 432h5M509 433h5M509 434h5M509 435h5M484 441h5M494 441h15M484 442h5M494 442h15M484 443h5M494 443h15M484 444h5M494 444h15M484 445h5M494 445h15M479 446h5M489 446h5M479 447h5M489 447h5M479 448h5M489 448h5M479 449h5M489 449h5M479 450h5M489 450h5" />
<path stroke="#bd9952" d="M549 441h75M549 442h75M549 443h75M549 444h75M549 445h75M549 446h5M559 446h5M579 446h5M589 446h5M599 446h5M619 446h5M549 447h5M559 447h5M579 447h5M589 447h5M599 447h5M619 447h5M549 448h5M559 448h5M579 448h5M589 448h5M599 448h5M619 448h5M549 449h5M559 449h5M579 449h5M589 449h5M599 449h5M619 449h5M549 450h5M559 450h5M579 450h5M589 450h5M599 450h5M619 450h5M549 451h15M569 451h55M549 452h15M569 452h55M549 453h15M569 453h55M549 454h15M569 454h55M549 455h15M569 455h55M549 456h5M559 456h5M569 456h5M589 456h5M599 456h5M609 456h5M619 456h5M549 457h5M559 457h5M569 457h5M589 457h5M599 457h5M609 457h5M619 457h5M549 458h5M559 458h5M569 458h5M589 458h5M599 458h5M609 458h5M619 458h5M549 459h5M559 459h5M569 459h5M589 459h5M599 459h5M609 459h5M619 459h5M549 460h5M559 460h5M569 460h5M589 460h5M599 460h5M609 460h5M619 460h5M554 461h20M584 461h40M554 462h20M584 462h40M554 463h20M584 463h40M554 464h20M584 464h40M554 465h20M584 465h40" />
<path stroke="#d5b77f" d="M554 446h5M574 446h5M584 446h5M604 446h5M554 447h5M574 447h5M584 447h5M604 447h5M554 448h5M574 448h5M584 448h5M604 448h5M554 449h5M574 449h5M584 449h5M604 449h5M554 450h5M574 450h5M584 450h5M604 450h5M564 456h5M584 456h5M594 456h5M604 456h5M564 457h5M584 457h5M594 457h5M604 457h5M564 458h5M584 458h5M594 458h5M604 458h5M564 459h5M584 459h5M594 459h5M604 459h5M564 460h5M584 460h5M594 460h5M604 460h5" />
<path stroke="#7a97ae" d="M569 446h5M594 446h5M609 446h5M569 447h5M594 447h5M609 447h5M569 448h5M594 448h5M609 448h5M569 449h5M594 449h5M609 449h5M569 450h5M594 450h5M609 450h5M564 451h5M564 452h5M564 453h5M564 454h5M564 455h5M579 456h5M579 457h5M579 458h5M579 459h5M579 460h5M549 461h5M574 461h10M549 462h5M574 462h10M549 463h5M574 463h10M549 464h5M574 464h10M549 465h5M574 465h10" />
<path stroke="#4a80df" d="M244 451h10M289 451h10M244 452h10M289 452h10M244 453h10M289 453h10M244 454h10M289 454h10M244 455h10M289 455h10" />
</svg>