<svg xmlns="http://www.w3.org/2000/svg" viewBox="0 0 100 100" width="100px" height="100px">
<defs><style>.cls-1{fill:#69c;}.cls-2{fill:#2b7fa0;}</style></defs><title>back</title><g id="Layer_2" data-name="Layer 2"><polygon class="cls-1" points="94.01 84.4 58.62 49.48 94.01 13.85 94.01 84.4"/><rect class="cls-2" x="86.93" y="89.58" width="5.32" height="5.28" transform="translate(-2.64 181.81) rotate(-90)"/><rect class="cls-2" x="86.94" y="84.29" width="5.28" height="5.28" transform="translate(2.66 176.51) rotate(-90)"/><rect class="cls-2" x="81.67" y="84.29" width="5.28" height="5.28" transform="translate(-2.62 171.23) rotate(-90)"/><rect class="cls-2" x="81.67" y="79.01" width="5.28" height="5.28" transform="translate(2.66 165.95) rotate(-90)"/><rect class="cls-2" x="76.39" y="79.01" width="5.28" height="5.28" transform="translate(-2.62 160.68) rotate(-90)"/><rect class="cls-2" x="76.39" y="73.73" width="5.28" height="5.28" transform="translate(2.66 155.4) rotate(-90)"/><rect class="cls-2" x="71.11" y="73.73" width="5.28" height="5.28" transform="translate(-2.62 150.12) rotate(-90)"/><rect class="cls-2" x="71.11" y="68.45" width="5.28" height="5.28" transform="translate(2.66 144.84) rotate(-90)"/><rect class="cls-2" x="65.83" y="68.45" width="5.28" height="5.28" transform="translate(-2.62 139.56) rotate(-90)"/><rect class="cls-2" x="65.83" y="63.18" width="5.28" height="5.28" transform="translate(2.66 134.29) rotate(-90)"/><rect class="cls-2" x="60.56" y="63.18" width="5.28" height="5.28" transform="translate(-2.62 129.01) rotate(-90)"/><rect class="cls-2" x="60.56" y="57.9" width="5.28" height="5.28" transform="translate(2.66 123.73) rotate(-90)"/><rect class="cls-2" x="55.28" y="57.9" width="5.28" height="5.28" transform="translate(-2.62 118.45) rotate(-90)"/><rect class="cls-2" x="55.28" y="52.62" width="5.28" height="5.28" transform="translate(2.66 113.18) rotate(-90)"/><rect class="cls-2" x="50" y="52.62" width="5.28" height="5.28" transform="translate(-2.62 107.9) rotate(-90)"/><rect class="cls-1" x="86.94" y="79.01" width="5.28" height="5.28" transform="translate(7.94 171.23) rotate(-90)"/><rect class="cls-1" x="86.94" y="73.73" width="5.28" height="5.28" transform="translate(13.21 165.95) rotate(-90)"/><rect class="cls-1" x="81.67" y="73.73" width="5.28" height="5.28" transform="translate(7.94 160.68) rotate(-90)"/><rect class="cls-1" x="81.67" y="68.45" width="5.28" height="5.28" transform="translate(13.21 155.4) rotate(-90)"/><rect class="cls-1" x="76.39" y="68.45" width="5.28" height="5.28" transform="translate(7.94 150.12) rotate(-90)"/><rect class="cls-1" x="76.39" y="63.18" width="5.28" height="5.28" transform="translate(13.21 144.84) rotate(-90)"/><rect class="cls-1" x="71.11" y="63.18" width="5.28" height="5.28" transform="translate(7.94 139.56) rotate(-90)"/><rect class="cls-1" x="71.11" y="57.9" width="5.28" height="5.28" transform="translate(13.21 134.29) rotate(-90)"/><rect class="cls-1" x="65.83" y="57.9" width="5.28" height="5.28" transform="translate(7.94 129.01) rotate(-90)"/><rect class="cls-1" x="65.83" y="52.62" width="5.28" height="5.28" transform="translate(13.21 123.73) rotate(-90)"/><rect class="cls-1" x="60.56" y="52.62" width="5.28" height="5.28" transform="translate(7.94 118.45) rotate(-90)"/><rect class="cls-1" x="60.56" y="47.34" width="5.28" height="5.28" transform="translate(13.21 113.18) rotate(-90)"/><rect class="cls-1" x="55.28" y="47.34" width="5.28" height="5.28" transform="translate(7.94 107.9) rotate(-90)"/><rect class="cls-2" x="50" y="47.34" width="5.28" height="5.28" transform="translate(2.66 102.62) rotate(-90)"/><rect class="cls-2" x="50.04" y="47.42" width="89.64" height="5.28" transform="translate(44.8 144.92) rotate(-90)"/><rect class="cls-2" x="86.94" y="5.12" width="5.28" height="5.28" transform="translate(97.34 -81.82) rotate(90)"/><rect class="cls-2" x="86.94" y="10.4" width="5.28" height="5.28" transform="translate(102.62 -76.55) rotate(90)"/><rect class="cls-2" x="81.67" y="10.4" width="5.28" height="5.28" transform="translate(97.34 -71.27) rotate(90)"/><rect class="cls-2" x="92.22" y="5.12" width="5.28" height="5.28" transform="translate(102.62 -87.1) rotate(90)"/><rect class="cls-2" x="81.67" y="15.68" width="5.28" height="5.28" transform="translate(102.62 -65.99) rotate(90)"/><rect class="cls-2" x="76.39" y="15.68" width="5.28" height="5.28" transform="translate(97.34 -60.71) rotate(90)"/><rect class="cls-2" x="76.39" y="20.95" width="5.28" height="5.28" transform="translate(102.62 -55.44) rotate(90)"/><rect class="cls-2" x="71.11" y="20.95" width="5.28" height="5.28" transform="translate(97.34 -50.16) rotate(90)"/><rect class="cls-2" x="71.11" y="26.23" width="5.28" height="5.28" transform="translate(102.62 -44.88) rotate(90)"/><rect class="cls-2" x="65.83" y="26.23" width="5.28" height="5.28" transform="translate(97.34 -39.6) rotate(90)"/><rect class="cls-2" x="65.83" y="31.51" width="5.28" height="5.28" transform="translate(102.62 -34.32) rotate(90)"/><rect class="cls-2" x="60.56" y="31.51" width="5.28" height="5.28" transform="translate(97.34 -29.05) rotate(90)"/><rect class="cls-2" x="60.56" y="36.79" width="5.28" height="5.28" transform="translate(102.62 -23.77) rotate(90)"/><rect class="cls-2" x="55.28" y="36.79" width="5.28" height="5.28" transform="translate(97.34 -18.49) rotate(90)"/><rect class="cls-2" x="55.28" y="42.06" width="5.28" height="5.28" transform="translate(102.62 -13.21) rotate(90)"/><rect class="cls-2" x="50" y="42.06" width="5.28" height="5.28" transform="translate(97.34 -7.94) rotate(90)"/><rect class="cls-1" x="86.94" y="15.68" width="5.28" height="5.28" transform="translate(107.9 -71.27) rotate(90)"/><rect class="cls-1" x="86.94" y="20.95" width="5.28" height="5.28" transform="translate(113.18 -65.99) rotate(90)"/><rect class="cls-1" x="81.67" y="20.95" width="5.28" height="5.28" transform="translate(107.9 -60.71) rotate(90)"/><rect class="cls-1" x="81.67" y="26.23" width="5.28" height="5.28" transform="translate(113.18 -55.44) rotate(90)"/><rect class="cls-1" x="76.39" y="26.23" width="5.28" height="5.28" transform="translate(107.9 -50.16) rotate(90)"/><rect class="cls-1" x="76.39" y="31.51" width="5.28" height="5.28" transform="translate(113.18 -44.88) rotate(90)"/><rect class="cls-1" x="71.11" y="31.51" width="5.28" height="5.28" transform="translate(107.9 -39.6) rotate(90)"/><rect class="cls-1" x="71.11" y="36.79" width="5.28" height="5.28" transform="translate(113.18 -34.32) rotate(90)"/><rect class="cls-1" x="65.83" y="36.79" width="5.28" height="5.28" transform="translate(107.9 -29.05) rotate(90)"/><rect class="cls-1" x="65.83" y="42.06" width="5.28" height="5.28" transform="translate(113.18 -23.77) rotate(90)"/><rect class="cls-1" x="60.56" y="42.06" width="5.28" height="5.28" transform="translate(107.9 -18.49) rotate(90)"/><line class="cls-1" x1="65.83" y1="47.34" x2="60.56" y2="47.34"/><line class="cls-1" x1="60.56" y1="47.34" x2="55.28" y2="47.34"/><line class="cls-2" x1="55.28" y1="47.34" x2="50" y2="47.34"/><polygon class="cls-1" points="46.51 84.4 11.12 49.48 46.51 13.85 46.51 84.4"/><rect class="cls-2" x="39.43" y="89.58" width="5.32" height="5.28" transform="translate(-50.14 134.31) rotate(-90)"/><rect class="cls-2" x="39.44" y="84.29" width="5.28" height="5.28" transform="translate(-44.84 129.01) rotate(-90)"/><rect class="cls-2" x="34.17" y="84.29" width="5.28" height="5.28" transform="translate(-50.12 123.73) rotate(-90)"/><rect class="cls-2" x="34.17" y="79.01" width="5.28" height="5.28" transform="translate(-44.84 118.45) rotate(-90)"/><rect class="cls-2" x="28.89" y="79.01" width="5.28" height="5.28" transform="translate(-50.12 113.18) rotate(-90)"/><rect class="cls-2" x="28.89" y="73.73" width="5.28" height="5.28" transform="translate(-44.84 107.9) rotate(-90)"/><rect class="cls-2" x="23.61" y="73.73" width="5.28" height="5.28" transform="translate(-50.12 102.62) rotate(-90)"/><rect class="cls-2" x="23.61" y="68.45" width="5.28" height="5.28" transform="translate(-44.84 97.34) rotate(-90)"/><rect class="cls-2" x="18.33" y="68.45" width="5.28" height="5.28" transform="translate(-50.12 92.06) rotate(-90)"/><rect class="cls-2" x="18.33" y="63.18" width="5.28" height="5.28" transform="translate(-44.84 86.79) rotate(-90)"/><rect class="cls-2" x="13.06" y="63.18" width="5.28" height="5.28" transform="translate(-50.12 81.51) rotate(-90)"/><rect class="cls-2" x="13.06" y="57.9" width="5.28" height="5.28" transform="translate(-44.84 76.23) rotate(-90)"/><rect class="cls-2" x="7.78" y="57.9" width="5.28" height="5.28" transform="translate(-50.12 70.95) rotate(-90)"/><rect class="cls-2" x="7.78" y="52.62" width="5.28" height="5.28" transform="translate(-44.84 65.68) rotate(-90)"/><rect class="cls-2" x="2.5" y="52.62" width="5.28" height="5.28" transform="translate(-50.12 60.4) rotate(-90)"/><rect class="cls-1" x="39.44" y="79.01" width="5.28" height="5.28" transform="translate(-39.56 123.73) rotate(-90)"/><rect class="cls-1" x="39.44" y="73.73" width="5.28" height="5.28" transform="translate(-34.29 118.45) rotate(-90)"/><rect class="cls-1" x="34.17" y="73.73" width="5.28" height="5.28" transform="translate(-39.56 113.18) rotate(-90)"/><rect class="cls-1" x="34.17" y="68.45" width="5.28" height="5.28" transform="translate(-34.29 107.9) rotate(-90)"/><rect class="cls-1" x="28.89" y="68.45" width="5.28" height="5.28" transform="translate(-39.56 102.62) rotate(-90)"/><rect class="cls-1" x="28.89" y="63.18" width="5.28" height="5.28" transform="translate(-34.29 97.34) rotate(-90)"/><rect class="cls-1" x="23.61" y="63.18" width="5.28" height="5.28" transform="translate(-39.56 92.06) rotate(-90)"/><rect class="cls-1" x="23.61" y="57.9" width="5.28" height="5.28" transform="translate(-34.29 86.79) rotate(-90)"/><rect class="cls-1" x="18.33" y="57.9" width="5.28" height="5.28" transform="translate(-39.56 81.51) rotate(-90)"/><rect class="cls-1" x="18.33" y="52.62" width="5.28" height="5.28" transform="translate(-34.29 76.23) rotate(-90)"/><rect class="cls-1" x="13.06" y="52.62" width="5.28" height="5.28" transform="translate(-39.56 70.95) rotate(-90)"/><rect class="cls-1" x="13.06" y="47.34" width="5.28" height="5.28" transform="translate(-34.29 65.68) rotate(-90)"/><rect class="cls-1" x="7.78" y="47.34" width="5.28" height="5.28" transform="translate(-39.56 60.4) rotate(-90)"/><rect class="cls-2" x="2.5" y="47.34" width="5.28" height="5.28" transform="translate(-44.84 55.12) rotate(-90)"/><rect class="cls-2" x="2.54" y="47.42" width="89.64" height="5.28" transform="translate(-2.7 97.42) rotate(-90)"/><rect class="cls-2" x="39.44" y="5.12" width="5.28" height="5.28" transform="translate(49.84 -34.32) rotate(90)"/><rect class="cls-2" x="39.44" y="10.4" width="5.28" height="5.28" transform="translate(55.12 -29.05) rotate(90)"/><rect class="cls-2" x="34.17" y="10.4" width="5.28" height="5.28" transform="translate(49.84 -23.77) rotate(90)"/><rect class="cls-2" x="44.72" y="5.12" width="5.28" height="5.28" transform="translate(55.12 -39.6) rotate(90)"/><rect class="cls-2" x="34.17" y="15.68" width="5.28" height="5.28" transform="translate(55.12 -18.49) rotate(90)"/><rect class="cls-2" x="28.89" y="15.68" width="5.28" height="5.28" transform="translate(49.84 -13.21) rotate(90)"/><rect class="cls-2" x="28.89" y="20.95" width="5.28" height="5.28" transform="translate(55.12 -7.94) rotate(90)"/><rect class="cls-2" x="23.61" y="20.95" width="5.28" height="5.28" transform="translate(49.84 -2.66) rotate(90)"/><rect class="cls-2" x="23.61" y="26.23" width="5.28" height="5.28" transform="translate(55.12 2.62) rotate(90)"/><rect class="cls-2" x="18.33" y="26.23" width="5.28" height="5.28" transform="translate(49.84 7.9) rotate(90)"/><rect class="cls-2" x="18.33" y="31.51" width="5.28" height="5.28" transform="translate(55.12 13.18) rotate(90)"/><rect class="cls-2" x="13.06" y="31.51" width="5.28" height="5.28" transform="translate(49.84 18.45) rotate(90)"/><rect class="cls-2" x="13.06" y="36.79" width="5.28" height="5.28" transform="translate(55.12 23.73) rotate(90)"/><rect class="cls-2" x="7.78" y="36.79" width="5.28" height="5.28" transform="translate(49.84 29.01) rotate(90)"/><rect class="cls-2" x="7.78" y="42.06" width="5.28" height="5.28" transform="translate(55.12 34.29) rotate(90)"/><rect class="cls-2" x="2.5" y="42.06" width="5.28" height="5.28" transform="translate(49.84 39.56) rotate(90)"/><rect class="cls-1" x="39.44" y="15.68" width="5.28" height="5.28" transform="translate(60.4 -23.77) rotate(90)"/><rect class="cls-1" x="39.44" y="20.95" width="5.28" height="5.28" transform="translate(65.68 -18.49) rotate(90)"/><rect class="cls-1" x="34.17" y="20.95" width="5.28" height="5.28" transform="translate(60.4 -13.21) rotate(90)"/><rect class="cls-1" x="34.17" y="26.23" width="5.28" height="5.28" transform="translate(65.68 -7.94) rotate(90)"/><rect class="cls-1" x="28.89" y="26.23" width="5.28" height="5.28" transform="translate(60.4 -2.66) rotate(90)"/><rect class="cls-1" x="28.89" y="31.51" width="5.28" height="5.28" transform="translate(65.68 2.62) rotate(90)"/><rect class="cls-1" x="23.61" y="31.51" width="5.28" height="5.28" transform="translate(60.4 7.9) rotate(90)"/><rect class="cls-1" x="23.61" y="36.79" width="5.28" height="5.28" transform="translate(65.68 13.18) rotate(90)"/><rect class="cls-1" x="18.33" y="36.79" width="5.28" height="5.28" transform="translate(60.4 18.45) rotate(90)"/><rect class="cls-1" x="18.33" y="42.06" width="5.28" height="5.28" transform="translate(65.68 23.73) rotate(90)"/><rect class="cls-1" x="13.06" y="42.06" width="5.28" height="5.28" transform="translate(60.4 29.01) rotate(90)"/><line class="cls-1" x1="18.33" y1="47.34" x2="13.06" y2="47.34"/><line class="cls-1" x1="13.06" y1="47.34" x2="7.78" y2="47.34"/><line class="cls-2" x1="7.78" y1="47.34" x2="2.5" y2="47.34"/></g></svg>