<svg xmlns="http://www.w3.org/2000/svg" viewBox="0 0 1920 360" width="1920px" height="360px">
<defs><style>.cls-1{fill:#efefef;}.cls-2{fill:#069;}</style>
</defs><title>box</title><g id="Layer_3" data-name="Layer 3"><polygon class="cls-1" points="1884.5 334 1872.5 346 47.5 346 35.5 334 23.5 322 23.5 39 35.5 27 47.5 15 1872.5 15 1884.5 27 1896.5 39 1896.5 322 1884.5 334"/><rect class="cls-2" x="27.5" y="27" width="8" height="8" transform="translate(63 62) rotate(180)"/><rect class="cls-2" x="19.5" y="35" width="8" height="8" transform="translate(47 78) rotate(180)"/><rect class="cls-2" x="19.5" y="43" width="8" height="275" transform="translate(47 361) rotate(180)"/><rect class="cls-2" x="1892.5" y="43" width="8" height="275" transform="translate(3793 361) rotate(180)"/><rect class="cls-2" x="35.5" y="19" width="8" height="8" transform="translate(79 46) rotate(180)"/><rect class="cls-2" x="43.5" y="11" width="8" height="8" transform="translate(95 30) rotate(180)"/><rect class="cls-2" x="51.5" y="11" width="1825" height="8" transform="translate(1928 30) rotate(180)"/><rect class="cls-2" x="51.5" y="342" width="1825" height="8" transform="translate(1928 692) rotate(180)"/><rect class="cls-2" x="27.5" y="326" width="8" height="8" transform="translate(-298.5 361.5) rotate(-90)"/><rect class="cls-2" x="19.5" y="318" width="8" height="8" transform="translate(-298.5 345.5) rotate(-90)"/><rect class="cls-2" x="35.5" y="334" width="8" height="8" transform="translate(-298.5 377.5) rotate(-90)"/><rect class="cls-2" x="43.5" y="342" width="8" height="8" transform="translate(-298.5 393.5) rotate(-90)"/><rect class="cls-2" x="1884.5" y="326" width="8" height="8"/><rect class="cls-2" x="1892.5" y="318" width="8" height="8"/><rect class="cls-2" x="1876.5" y="334" width="8" height="8"/><rect class="cls-2" x="1868.5" y="342" width="8" height="8"/><rect class="cls-2" x="1884.5" y="27" width="8" height="8" transform="translate(1919.5 -1857.5) rotate(90)"/><rect class="cls-2" x="1892.5" y="35" width="8" height="8" transform="translate(1935.5 -1857.5) rotate(90)"/><rect class="cls-2" x="1876.5" y="19" width="8" height="8" transform="translate(1903.5 -1857.5) rotate(90)"/><rect class="cls-2" x="1868.5" y="11" width="8" height="8" transform="translate(1887.5 -1857.5) rotate(90)"/></g></svg>