<svg id="Layer_1" data-name="Layer 1" xmlns="http://www.w3.org/2000/svg" viewBox="0 0 100 100" width="100px" height="100px">
<defs><style>.cls-1{fill:#9cf;}.cls-2{fill:#2b7fa0;}.cls-3{fill:#69c;}</style></defs><title>down</title><polygon class="cls-1" points="44.45 88 72.21 78.75 76.84 52.83 62.03 3.78 32.41 11.18 24.08 59.31 44.45 88"/><rect class="cls-2" x="90.83" y="55.44" width="5.44" height="5.44" transform="translate(187.11 116.33) rotate(180)"/><rect class="cls-2" x="85.39" y="55.44" width="5.44" height="5.44" transform="translate(176.22 116.33) rotate(180)"/><rect class="cls-2" x="85.39" y="60.89" width="5.44" height="5.44" transform="translate(176.22 127.22) rotate(180)"/><rect class="cls-2" x="90.83" y="44.56" width="5.44" height="5.44" transform="translate(187.11 94.56) rotate(180)"/><rect class="cls-2" x="90.83" y="50" width="5.44" height="5.44" transform="translate(187.11 105.44) rotate(180)"/><rect class="cls-2" x="79.94" y="60.89" width="5.44" height="5.44" transform="translate(165.33 127.22) rotate(180)"/><rect class="cls-2" x="79.94" y="66.33" width="5.44" height="5.44" transform="translate(165.33 138.11) rotate(180)"/><rect class="cls-2" x="74.5" y="66.33" width="5.44" height="5.44" transform="translate(154.44 138.11) rotate(180)"/><rect class="cls-2" x="74.5" y="71.78" width="5.44" height="5.44" transform="translate(154.44 149) rotate(180)"/><rect class="cls-2" x="69.06" y="71.78" width="5.44" height="5.44" transform="translate(143.56 149) rotate(180)"/><rect class="cls-2" x="69.06" y="77.22" width="5.44" height="5.44" transform="translate(143.56 159.89) rotate(180)"/><rect class="cls-2" x="63.61" y="77.22" width="5.44" height="5.44" transform="translate(132.67 159.89) rotate(180)"/><rect class="cls-2" x="63.61" y="82.67" width="5.44" height="5.44" transform="translate(132.67 170.78) rotate(180)"/><rect class="cls-2" x="58.17" y="82.67" width="5.44" height="5.44" transform="translate(121.78 170.78) rotate(180)"/><rect class="cls-2" x="58.17" y="88.11" width="5.44" height="5.44" transform="translate(121.78 181.67) rotate(180)"/><rect class="cls-2" x="52.72" y="88.11" width="5.44" height="5.44" transform="translate(110.89 181.67) rotate(180)"/><rect class="cls-2" x="52.72" y="93.56" width="5.44" height="5.44" transform="translate(110.89 192.56) rotate(180)"/><rect class="cls-3" x="79.94" y="55.44" width="5.44" height="5.44" transform="translate(165.33 116.33) rotate(180)"/><rect class="cls-3" x="74.5" y="55.44" width="5.44" height="5.44" transform="translate(154.44 116.33) rotate(180)"/><rect class="cls-3" x="74.5" y="60.89" width="5.44" height="5.44" transform="translate(154.44 127.22) rotate(180)"/><rect class="cls-3" x="69.06" y="60.89" width="5.44" height="5.44" transform="translate(143.56 127.22) rotate(180)"/><rect class="cls-3" x="69.06" y="66.33" width="5.44" height="5.44" transform="translate(143.56 138.11) rotate(180)"/><rect class="cls-3" x="63.61" y="66.33" width="5.44" height="5.44" transform="translate(132.67 138.11) rotate(180)"/><rect class="cls-3" x="63.61" y="71.78" width="5.44" height="5.44" transform="translate(132.67 149) rotate(180)"/><rect class="cls-3" x="58.17" y="71.78" width="5.44" height="5.44" transform="translate(121.78 149) rotate(180)"/><rect class="cls-3" x="58.17" y="77.22" width="5.44" height="5.44" transform="translate(121.78 159.89) rotate(180)"/><rect class="cls-3" x="52.72" y="77.22" width="5.44" height="5.44" transform="translate(110.89 159.89) rotate(180)"/><rect class="cls-3" x="52.72" y="82.67" width="5.44" height="5.44" transform="translate(110.89 170.78) rotate(180)"/><rect class="cls-3" x="47.28" y="82.67" width="5.44" height="5.44" transform="translate(100 170.78) rotate(180)"/><rect class="cls-3" x="47.28" y="88.11" width="5.44" height="5.44" transform="translate(100 181.67) rotate(180)"/><rect class="cls-2" x="47.28" y="93.56" width="5.44" height="5.44" transform="translate(100 192.56) rotate(180)"/><rect class="cls-2" x="69.06" y="44.56" width="21.78" height="5.44" transform="translate(159.89 94.56) rotate(180)"/><rect class="cls-2" x="69.06" y="1" width="5.44" height="43.56" transform="translate(143.56 45.56) rotate(180)"/><rect class="cls-2" x="50" y="1" width="19.06" height="5.44" transform="translate(119.06 7.44) rotate(180)"/><rect class="cls-3" x="63.61" y="49.46" width="27.22" height="5.99" transform="translate(154.44 104.9) rotate(180)"/><rect class="cls-3" x="63.61" y="6.44" width="5.44" height="43.01" transform="translate(132.67 55.9) rotate(180)"/><rect class="cls-3" x="50" y="6.44" width="13.61" height="5.44" transform="translate(113.61 18.33) rotate(180)"/><rect class="cls-2" x="3.72" y="55.44" width="5.44" height="5.44"/><rect class="cls-2" x="9.17" y="55.44" width="5.44" height="5.44"/><rect class="cls-2" x="9.17" y="60.89" width="5.44" height="5.44"/><rect class="cls-2" x="3.72" y="44.56" width="5.44" height="5.44"/><rect class="cls-2" x="3.72" y="50" width="5.44" height="5.44"/><rect class="cls-2" x="14.61" y="60.89" width="5.44" height="5.44"/><rect class="cls-2" x="14.61" y="66.33" width="5.44" height="5.44"/><rect class="cls-2" x="20.06" y="66.33" width="5.44" height="5.44"/><rect class="cls-2" x="20.06" y="71.78" width="5.44" height="5.44"/><rect class="cls-2" x="25.5" y="71.78" width="5.44" height="5.44"/><rect class="cls-2" x="25.5" y="77.22" width="5.44" height="5.44"/><rect class="cls-2" x="30.94" y="77.22" width="5.44" height="5.44"/><rect class="cls-2" x="30.94" y="82.67" width="5.44" height="5.44"/><rect class="cls-2" x="36.39" y="82.67" width="5.44" height="5.44"/><rect class="cls-2" x="36.39" y="88.11" width="5.44" height="5.44"/><rect class="cls-2" x="41.83" y="88.11" width="5.44" height="5.44"/><rect class="cls-2" x="41.83" y="93.56" width="5.44" height="5.44"/><rect class="cls-3" x="14.61" y="55.44" width="5.44" height="5.44"/><rect class="cls-3" x="20.06" y="55.44" width="5.44" height="5.44"/><rect class="cls-3" x="20.06" y="60.89" width="5.44" height="5.44"/><rect class="cls-3" x="25.5" y="60.89" width="5.44" height="5.44"/><rect class="cls-3" x="25.5" y="66.33" width="5.44" height="5.44"/><rect class="cls-3" x="30.94" y="66.33" width="5.44" height="5.44"/><rect class="cls-3" x="30.94" y="71.78" width="5.44" height="5.44"/><rect class="cls-3" x="36.39" y="71.78" width="5.44" height="5.44"/><rect class="cls-3" x="36.39" y="77.22" width="5.44" height="5.44"/><rect class="cls-3" x="41.83" y="77.22" width="5.44" height="5.44"/><rect class="cls-3" x="41.83" y="82.67" width="5.44" height="5.44"/><line class="cls-3" x1="47.28" y1="82.67" x2="47.28" y2="88.11"/><line class="cls-3" x1="47.28" y1="88.11" x2="47.28" y2="93.56"/><line class="cls-2" x1="47.28" y1="93.56" x2="47.28" y2="99"/><rect class="cls-2" x="9.17" y="44.56" width="21.78" height="5.44"/><rect class="cls-2" x="25.5" y="1" width="5.44" height="43.56"/><rect class="cls-2" x="30.94" y="1" width="19.06" height="5.44"/><rect class="cls-3" x="9.17" y="49.46" width="27.22" height="5.99"/><rect class="cls-3" x="30.94" y="6.44" width="5.44" height="43.01"/><rect class="cls-3" x="36.39" y="6.44" width="13.61" height="5.44"/></svg>