<svg xmlns="http://www.w3.org/2000/svg" viewBox="0 -0.5 100 474" shape-rendering="crispEdges">
<metadata>Made with Pixels to Svg https://codepen.io/shshaw/pen/XbxvNj</metadata>
<path stroke="#7096a9" d="M0 0h100M0 1h100M0 2h100M0 3h100M0 4h100M0 5h100M0 6h91M0 7h91M0 8h91M0 9h91M45 10h46M45 11h46M45 12h55M20 13h80M20 14h80M20 15h80M20 16h80M20 17h80M20 18h80M20 19h80M20 20h80M20 21h80M72 22h28M72 23h28M72 24h28M72 25h28M72 26h28M72 27h28M67 28h33M67 29h33M67 30h33M67 31h33M67 32h33M67 33h33M67 34h33M67 35h33M67 36h33M67 37h33M82 38h18M82 39h18M82 40h18M82 41h18M82 42h18M76 43h24M76 44h24M76 45h24M76 46h24M76 47h24M76 48h24M76 49h24M76 50h24M76 51h24M64 52h36M64 53h36M64 54h36M64 55h36M64 56h36M64 57h36M64 58h36M64 59h36M64 60h36M64 61h36M44 70h35M44 71h35M44 72h35M44 73h35M44 74h35M44 75h35M44 76h35M44 77h35M0 93h24M0 94h24M0 95h24M0 96h24M0 97h24M0 98h24M0 99h24M0 104h16M0 105h16M0 106h16M0 107h16M0 108h16M67 156h33M67 157h33M67 158h33M67 159h33M67 160h33M67 161h33M67 162h33M67 163h33M67 164h33M83 169h17M83 170h17M83 171h17M83 172h17M83 173h17M83 174h17M83 175h17M0 298h17M0 299h17M0 300h17M0 301h17M0 302h17M0 303h17M0 304h17M0 309h33M0 310h33M0 311h33M0 312h33M0 313h33M0 314h33M0 315h33M0 316h33M0 317h33M84 365h16M84 366h16M84 367h16M84 368h16M84 369h16M76 374h24M76 375h24M76 376h24M76 377h24M76 378h24M76 379h24M76 380h24M21 396h35M21 397h35M21 398h35M21 399h35M21 400h35M21 401h35M21 402h35M21 403h35M0 412h36M0 413h36M0 414h36M0 415h36M0 416h36M0 417h36M0 418h36M0 419h36M0 420h36M0 421h36M0 422h24M0 423h24M0 424h24M0 425h24M0 426h24M0 427h24M0 428h24M0 429h24M0 430h24M0 431h18M0 432h18M0 433h18M0 434h18M0 435h18M0 436h33M0 437h33M0 438h33M0 439h33M0 440h33M0 441h33M0 442h33M0 443h33M0 444h33M0 445h33M0 446h28M0 447h28M0 448h28M0 449h28M0 450h28M0 451h28M0 452h80M0 453h80M0 454h80M0 455h80M0 456h80M0 457h80M0 458h80M0 459h80M0 460h80M0 461h55M9 462h46M9 463h46M9 464h91M9 465h91M9 466h91M9 467h91M0 468h100M0 469h100M0 470h100M0 471h100M0 472h100M0 473h100" />
<path stroke="#8eb3c6" d="M91 6h9M91 7h9M91 8h9M91 9h9M0 10h45M91 10h9M0 11h45M91 11h9M0 12h45M0 13h20M0 14h20M0 15h20M0 16h20M0 17h20M0 18h20M0 19h20M0 20h20M0 21h20M0 22h72M0 23h72M0 24h72M0 25h72M0 26h72M0 27h72M0 28h67M0 29h67M0 30h67M0 31h67M0 32h67M0 33h67M0 34h67M0 35h67M0 36h67M0 37h67M0 38h82M0 39h82M0 40h82M0 41h82M0 42h82M0 43h76M0 44h76M0 45h76M0 46h76M0 47h76M0 48h76M0 49h76M0 50h76M0 51h76M0 52h64M0 53h64M0 54h64M0 55h64M0 56h64M0 57h64M0 58h64M0 59h64M40 60h24M40 61h24M40 62h60M40 63h60M40 64h60M40 65h60M40 66h60M40 67h60M40 68h60M0 69h100M0 70h44M79 70h21M0 71h44M79 71h21M0 72h44M79 72h21M0 73h44M79 73h21M0 74h44M79 74h21M0 75h44M79 75h21M0 76h44M79 76h21M0 77h44M79 77h21M0 78h100M0 79h100M0 80h100M0 81h100M0 82h100M0 83h100M0 84h100M0 85h100M0 86h100M0 87h100M0 88h100M0 89h100M0 90h100M0 91h100M0 92h100M24 93h76M24 94h76M24 95h76M24 96h76M24 97h76M24 98h76M24 99h76M0 100h100M0 101h87M0 102h87M0 103h87M16 104h71M16 105h71M16 106h71M16 107h71M16 108h84M0 109h100M0 110h100M0 111h100M0 112h100M0 113h58M72 113h28M0 114h58M72 114h28M0 115h58M72 115h28M0 116h58M72 116h28M0 117h58M72 117h28M0 118h100M0 119h100M0 120h100M0 121h100M0 122h100M0 123h100M0 124h100M0 125h100M0 126h100M0 127h100M0 128h100M0 129h100M0 130h100M0 131h100M0 132h100M0 133h100M0 134h14M56 134h44M0 135h14M56 135h44M0 136h14M56 136h44M0 137h14M56 137h44M0 138h14M56 138h44M0 139h14M56 139h44M0 140h14M56 140h44M0 141h100M0 142h100M0 143h100M0 144h100M0 145h100M0 146h100M0 147h100M0 148h100M0 149h100M0 150h100M0 151h100M0 152h100M0 153h100M0 154h100M0 155h100M0 156h67M0 157h67M0 158h67M0 159h67M0 160h67M0 161h67M0 162h67M0 163h67M0 164h67M0 165h100M0 166h100M0 167h100M0 168h100M0 169h83M15 170h68M15 171h68M15 172h68M15 173h68M15 174h68M15 175h68M0 176h100M0 177h100M0 178h100M0 179h100M21 180h79M21 181h79M21 182h66M21 183h66M21 184h66M21 185h66M21 186h66M30 187h57M30 188h57M30 189h57M30 190h57M30 191h70M30 192h70M0 193h100M0 194h100M0 195h100M0 196h100M0 197h100M0 198h100M0 199h100M0 200h100M0 201h100M0 202h100M0 203h100M0 204h100M0 205h100M0 206h100M0 207h100M0 208h100M0 209h100M0 210h100M0 211h100M0 212h100M0 213h100M0 214h100M0 215h100M0 216h100M0 217h100M0 218h45M74 218h26M0 219h45M74 219h26M0 220h45M74 220h26M0 221h45M74 221h26M0 222h45M74 222h26M0 223h45M74 223h26M0 224h45M74 224h26M0 225h100M0 226h100M0 227h100M0 228h100M0 229h100M0 230h100M0 231h100M0 232h100M0 233h100M0 234h100M0 235h100M0 236h100M0 237h100M0 238h100M0 239h100M0 240h100M0 241h100M0 242h100M0 243h100M0 244h100M0 245h100M0 246h100M0 247h100M0 248h100M0 249h26M55 249h45M0 250h26M55 250h45M0 251h26M55 251h45M0 252h26M55 252h45M0 253h26M55 253h45M0 254h26M55 254h45M0 255h26M55 255h45M0 256h100M0 257h100M0 258h100M0 259h100M0 260h100M0 261h100M0 262h100M0 263h100M0 264h100M0 265h100M0 266h100M0 267h100M0 268h100M0 269h100M0 270h100M0 271h100M0 272h100M0 273h100M0 274h100M0 275h100M0 276h100M0 277h100M0 278h100M0 279h100M0 280h100M0 281h70M0 282h70M13 283h57M13 284h57M13 285h57M13 286h57M13 287h66M13 288h66M13 289h66M13 290h66M13 291h66M0 292h79M0 293h79M0 294h100M0 295h100M0 296h100M0 297h100M17 298h68M17 299h68M17 300h68M17 301h68M17 302h68M17 303h68M17 304h83M0 305h100M0 306h100M0 307h100M0 308h100M33 309h67M33 310h67M33 311h67M33 312h67M33 313h67M33 314h67M33 315h67M33 316h67M33 317h67M0 318h100M0 319h100M0 320h100M0 321h100M0 322h100M0 323h100M0 324h100M0 325h100M0 326h100M0 327h100M0 328h100M0 329h100M0 330h100M0 331h100M0 332h100M0 333h44M86 333h14M0 334h44M86 334h14M0 335h44M86 335h14M0 336h44M86 336h14M0 337h44M86 337h14M0 338h44M86 338h14M0 339h44M86 339h14M0 340h100M0 341h100M0 342h100M0 343h100M0 344h100M0 345h100M0 346h100M0 347h100M0 348h100M0 349h100M0 350h100M0 351h100M0 352h100M0 353h100M0 354h100M0 355h100M0 356h28M42 356h58M0 357h28M42 357h58M0 358h28M42 358h58M0 359h28M42 359h58M0 360h28M42 360h58M0 361h100M0 362h100M0 363h100M0 364h100M0 365h84M13 366h71M13 367h71M13 368h71M13 369h71M13 370h87M13 371h87M13 372h87M0 373h100M0 374h76M0 375h76M0 376h76M0 377h76M0 378h76M0 379h76M0 380h76M0 381h100M0 382h100M0 383h100M0 384h100M0 385h100M0 386h100M0 387h100M0 388h100M0 389h100M0 390h100M0 391h100M0 392h100M0 393h100M0 394h100M0 395h100M0 396h21M56 396h44M0 397h21M56 397h44M0 398h21M56 398h44M0 399h21M56 399h44M0 400h21M56 400h44M0 401h21M56 401h44M0 402h21M56 402h44M0 403h21M56 403h44M0 404h100M0 405h60M0 406h60M0 407h60M0 408h60M0 409h60M0 410h60M0 411h60M36 412h24M36 413h24M36 414h64M36 415h64M36 416h64M36 417h64M36 418h64M36 419h64M36 420h64M36 421h64M24 422h76M24 423h76M24 424h76M24 425h76M24 426h76M24 427h76M24 428h76M24 429h76M24 430h76M18 431h82M18 432h82M18 433h82M18 434h82M18 435h82M33 436h67M33 437h67M33 438h67M33 439h67M33 440h67M33 441h67M33 442h67M33 443h67M33 444h67M33 445h67M28 446h72M28 447h72M28 448h72M28 449h72M28 450h72M28 451h72M80 452h20M80 453h20M80 454h20M80 455h20M80 456h20M80 457h20M80 458h20M80 459h20M80 460h20M55 461h45M0 462h9M55 462h45M0 463h9M55 463h45M0 464h9M0 465h9M0 466h9M0 467h9" />
<path stroke="#a0bfcf" d="M0 60h40M0 61h40M0 62h40M0 63h40M0 64h40M0 65h40M0 66h40M0 67h40M0 68h40M87 101h13M87 102h13M87 103h13M87 104h13M87 105h13M87 106h13M87 107h13M58 113h14M58 114h14M58 115h14M58 116h14M58 117h14M14 134h42M14 135h42M14 136h42M14 137h42M14 138h42M14 139h42M14 140h42M0 170h15M0 171h15M0 172h15M0 173h15M0 174h15M0 175h15M0 180h21M0 181h21M0 182h21M87 182h13M0 183h21M87 183h13M0 184h21M87 184h13M0 185h21M87 185h13M0 186h21M87 186h13M0 187h30M87 187h13M0 188h30M87 188h13M0 189h30M87 189h13M0 190h30M87 190h13M0 191h30M0 192h30M45 218h29M45 219h29M45 220h29M45 221h29M45 222h29M45 223h29M45 224h29M26 249h29M26 250h29M26 251h29M26 252h29M26 253h29M26 254h29M26 255h29M70 281h30M70 282h30M0 283h13M70 283h30M0 284h13M70 284h30M0 285h13M70 285h30M0 286h13M70 286h30M0 287h13M79 287h21M0 288h13M79 288h21M0 289h13M79 289h21M0 290h13M79 290h21M0 291h13M79 291h21M79 292h21M79 293h21M85 298h15M85 299h15M85 300h15M85 301h15M85 302h15M85 303h15M44 333h42M44 334h42M44 335h42M44 336h42M44 337h42M44 338h42M44 339h42M28 356h14M28 357h14M28 358h14M28 359h14M28 360h14M0 366h13M0 367h13M0 368h13M0 369h13M0 370h13M0 371h13M0 372h13M60 405h40M60 406h40M60 407h40M60 408h40M60 409h40M60 410h40M60 411h40M60 412h40M60 413h40" />
</svg>