<svg xmlns="http://www.w3.org/2000/svg" viewBox="0 -0.5 16 16" shape-rendering="crispEdges">
<metadata>Made with Pixels to Svg https://codepen.io/shshaw/pen/XbxvNj</metadata>
<path stroke="#ffffff" d="M5 0h6M3 1h2M11 1h2M2 2h1M13 2h1M1 3h1M14 3h1M1 4h1M6 4h4M14 4h1M0 5h1M5 5h2M9 5h2M15 5h1M0 6h1M5 6h2M9 6h2M15 6h1M0 7h1M9 7h2M15 7h1M0 8h1M8 8h2M15 8h1M0 9h1M7 9h2M15 9h1M0 10h1M15 10h1M1 11h1M7 11h2M14 11h1M1 12h1M7 12h2M14 12h1M2 13h1M13 13h1M3 14h2M11 14h2M5 15h6" />
<path stroke="#a0bfcf" d="M5 1h6M3 2h2M11 2h2M2 3h1M13 3h1M2 4h1M13 4h1M1 5h1M14 5h1M1 6h1M14 6h1M1 7h1M14 7h1M1 8h1M14 8h1M1 9h1M14 9h1M1 10h1M14 10h1M2 11h1M13 11h1M2 12h1M13 12h1M3 13h2M11 13h2M5 14h6" />
<path stroke="#8eb3c6" d="M5 2h6M3 3h10M3 4h3M10 4h3M2 5h3M7 5h2M11 5h3M2 6h3M7 6h2M11 6h3M2 7h7M11 7h3M2 8h6M10 8h4M2 9h5M9 9h5M2 10h12M3 11h4M9 11h4M3 12h4M9 12h4M5 13h6" />
</svg>