<svg xmlns="http://www.w3.org/2000/svg" viewBox="0 -0.5 49 29" shape-rendering="crispEdges">
<metadata>Made with Pixels to Svg https://codepen.io/shshaw/pen/XbxvNj</metadata>
<path stroke="#6c6c6c" d="M20 0h9M19 1h2M28 1h2M18 2h1M20 2h1M28 2h1M30 2h1M17 3h1M20 3h1M22 3h1M26 3h1M28 3h1M31 3h1M17 4h1M20 4h1M22 4h1M24 4h1M26 4h1M28 4h1M31 4h1M17 5h1M20 5h1M22 5h1M24 5h1M26 5h1M28 5h1M31 5h1M17 6h1M20 6h1M23 6h1M25 6h1M28 6h1M31 6h1M17 7h1M20 7h1M28 7h1M31 7h1M17 8h1M20 8h1M28 8h1M31 8h1M17 9h1M20 9h9M31 9h1M17 10h1M19 10h1M29 10h1M31 10h1M17 11h2M30 11h2M17 12h1M31 12h1M18 13h13M3 15h9M20 15h9M37 15h9M2 16h2M11 16h2M19 16h2M28 16h2M36 16h2M45 16h2M1 17h1M3 17h1M7 17h1M11 17h1M13 17h1M18 17h1M20 17h1M23 17h4M28 17h1M30 17h1M35 17h1M37 17h1M39 17h3M45 17h1M47 17h1M0 18h1M3 18h1M6 18h1M8 18h1M11 18h1M14 18h1M17 18h1M20 18h1M22 18h1M28 18h1M31 18h1M34 18h1M37 18h1M39 18h1M42 18h1M45 18h1M48 18h1M0 19h1M3 19h1M5 19h1M9 19h1M11 19h1M14 19h1M17 19h1M20 19h1M23 19h3M28 19h1M31 19h1M34 19h1M37 19h1M39 19h1M43 19h1M45 19h1M48 19h1M0 20h1M3 20h1M5 20h5M11 20h1M14 20h1M17 20h1M20 20h1M26 20h1M28 20h1M31 20h1M34 20h1M37 20h1M39 20h1M43 20h1M45 20h1M48 20h1M0 21h1M3 21h1M5 21h1M9 21h1M11 21h1M14 21h1M17 21h1M20 21h1M22 21h4M28 21h1M31 21h1M34 21h1M37 21h1M39 21h4M45 21h1M48 21h1M0 22h1M3 22h1M11 22h1M14 22h1M17 22h1M20 22h1M28 22h1M31 22h1M34 22h1M37 22h1M45 22h1M48 22h1M0 23h1M3 23h1M11 23h1M14 23h1M17 23h1M20 23h1M28 23h1M31 23h1M34 23h1M37 23h1M45 23h1M48 23h1M0 24h1M3 24h9M14 24h1M17 24h1M20 24h9M31 24h1M34 24h1M37 24h9M48 24h1M0 25h1M2 25h1M12 25h1M14 25h1M17 25h1M19 25h1M29 25h1M31 25h1M34 25h1M36 25h1M46 25h1M48 25h1M0 26h2M13 26h2M17 26h2M30 26h2M34 26h2M47 26h2M0 27h1M14 27h1M17 27h1M31 27h1M34 27h1M48 27h1M1 28h13M18 28h13M35 28h13" />
<path stroke="#d5ecf9" d="M21 1h7M21 2h7M21 3h1M23 3h3M27 3h1M21 4h1M23 4h1M25 4h1M27 4h1M21 5h1M23 5h1M25 5h1M27 5h1M21 6h2M24 6h1M26 6h2M21 7h7M21 8h7M4 16h7M21 16h7M38 16h7M4 17h3M8 17h3M21 17h2M27 17h1M38 17h1M42 17h3M4 18h2M7 18h1M9 18h2M21 18h1M23 18h5M38 18h1M40 18h2M43 18h2M4 19h1M6 19h3M10 19h1M21 19h2M26 19h2M38 19h1M40 19h3M44 19h1M4 20h1M10 20h1M21 20h5M27 20h1M38 20h1M40 20h3M44 20h1M4 21h1M6 21h3M10 21h1M21 21h1M26 21h2M38 21h1M43 21h2M4 22h7M21 22h7M38 22h7M4 23h7M21 23h7M38 23h7" />
<path stroke="#a0bfcf" d="M19 2h1M29 2h1M18 3h2M29 3h2M18 4h2M29 4h2M18 5h2M29 5h2M18 6h2M29 6h2M18 7h2M29 7h2M18 8h2M29 8h2M18 9h2M29 9h2M18 10h1M30 10h1M2 17h1M12 17h1M19 17h1M29 17h1M36 17h1M46 17h1M1 18h2M12 18h2M18 18h2M29 18h2M35 18h2M46 18h2M1 19h2M12 19h2M18 19h2M29 19h2M35 19h2M46 19h2M1 20h2M12 20h2M18 20h2M29 20h2M35 20h2M46 20h2M1 21h2M12 21h2M18 21h2M29 21h2M35 21h2M46 21h2M1 22h2M12 22h2M18 22h2M29 22h2M35 22h2M46 22h2M1 23h2M12 23h2M18 23h2M29 23h2M35 23h2M46 23h2M1 24h2M12 24h2M18 24h2M29 24h2M35 24h2M46 24h2M1 25h1M13 25h1M18 25h1M30 25h1M35 25h1M47 25h1" />
<path stroke="#7096a9" d="M20 10h9M19 11h11M18 12h13M3 25h9M20 25h9M37 25h9M2 26h11M19 26h11M36 26h11M1 27h13M18 27h13M35 27h13" />
</svg>