<svg id="Layer_1" data-name="Layer 1" xmlns="http://www.w3.org/2000/svg" viewBox="0 0 100 100" width="100px" height="100px">
<defs><style>.cls-1{fill:#9cf;}.cls-2{fill:#2b7fa0;}.cls-3{fill:#69c;}</style></defs><title>up</title><polygon class="cls-1" points="55.55 12 27.79 21.25 23.16 47.17 37.97 96.22 67.59 88.82 75.92 40.69 55.55 12"/><rect class="cls-2" x="3.72" y="39.11" width="5.44" height="5.44"/><rect class="cls-2" x="9.17" y="39.11" width="5.44" height="5.44"/><rect class="cls-2" x="9.17" y="33.67" width="5.44" height="5.44"/><rect class="cls-2" x="3.72" y="50" width="5.44" height="5.44"/><rect class="cls-2" x="3.72" y="44.56" width="5.44" height="5.44"/><rect class="cls-2" x="14.61" y="33.67" width="5.44" height="5.44"/><rect class="cls-2" x="14.61" y="28.22" width="5.44" height="5.44"/><rect class="cls-2" x="20.06" y="28.22" width="5.44" height="5.44"/><rect class="cls-2" x="20.06" y="22.78" width="5.44" height="5.44"/><rect class="cls-2" x="25.5" y="22.78" width="5.44" height="5.44"/><rect class="cls-2" x="25.5" y="17.33" width="5.44" height="5.44"/><rect class="cls-2" x="30.94" y="17.33" width="5.44" height="5.44"/><rect class="cls-2" x="30.94" y="11.89" width="5.44" height="5.44"/><rect class="cls-2" x="36.39" y="11.89" width="5.44" height="5.44"/><rect class="cls-2" x="36.39" y="6.44" width="5.44" height="5.44"/><rect class="cls-2" x="41.83" y="6.44" width="5.44" height="5.44"/><rect class="cls-2" x="41.83" y="1" width="5.44" height="5.44"/><rect class="cls-3" x="14.61" y="39.11" width="5.44" height="5.44"/><rect class="cls-3" x="20.06" y="39.11" width="5.44" height="5.44"/><rect class="cls-3" x="20.06" y="33.67" width="5.44" height="5.44"/><rect class="cls-3" x="25.5" y="33.67" width="5.44" height="5.44"/><rect class="cls-3" x="25.5" y="28.22" width="5.44" height="5.44"/><rect class="cls-3" x="30.94" y="28.22" width="5.44" height="5.44"/><rect class="cls-3" x="30.94" y="22.78" width="5.44" height="5.44"/><rect class="cls-3" x="36.39" y="22.78" width="5.44" height="5.44"/><rect class="cls-3" x="36.39" y="17.33" width="5.44" height="5.44"/><rect class="cls-3" x="41.83" y="17.33" width="5.44" height="5.44"/><rect class="cls-3" x="41.83" y="11.89" width="5.44" height="5.44"/><rect class="cls-3" x="47.28" y="11.89" width="5.44" height="5.44"/><rect class="cls-3" x="47.28" y="6.44" width="5.44" height="5.44"/><rect class="cls-2" x="47.28" y="1" width="5.44" height="5.44"/><rect class="cls-2" x="9.17" y="50" width="21.78" height="5.44"/><rect class="cls-2" x="25.5" y="55.44" width="5.44" height="43.56"/><rect class="cls-2" x="30.94" y="93.56" width="19.06" height="5.44"/><rect class="cls-3" x="9.17" y="44.56" width="27.22" height="5.99"/><rect class="cls-3" x="30.94" y="50.54" width="5.44" height="43.01"/><rect class="cls-3" x="36.39" y="88.11" width="13.61" height="5.44"/><rect class="cls-2" x="90.83" y="39.11" width="5.44" height="5.44" transform="translate(187.11 83.67) rotate(-180)"/><rect class="cls-2" x="85.39" y="39.11" width="5.44" height="5.44" transform="translate(176.22 83.67) rotate(-180)"/><rect class="cls-2" x="85.39" y="33.67" width="5.44" height="5.44" transform="translate(176.22 72.78) rotate(-180)"/><rect class="cls-2" x="90.83" y="50" width="5.44" height="5.44" transform="translate(187.11 105.44) rotate(-180)"/><rect class="cls-2" x="90.83" y="44.56" width="5.44" height="5.44" transform="translate(187.11 94.56) rotate(-180)"/><rect class="cls-2" x="79.94" y="33.67" width="5.44" height="5.44" transform="translate(165.33 72.78) rotate(-180)"/><rect class="cls-2" x="79.94" y="28.22" width="5.44" height="5.44" transform="translate(165.33 61.89) rotate(-180)"/><rect class="cls-2" x="74.5" y="28.22" width="5.44" height="5.44" transform="translate(154.44 61.89) rotate(-180)"/><rect class="cls-2" x="74.5" y="22.78" width="5.44" height="5.44" transform="translate(154.44 51) rotate(-180)"/><rect class="cls-2" x="69.06" y="22.78" width="5.44" height="5.44" transform="translate(143.56 51) rotate(-180)"/><rect class="cls-2" x="69.06" y="17.33" width="5.44" height="5.44" transform="translate(143.56 40.11) rotate(-180)"/><rect class="cls-2" x="63.61" y="17.33" width="5.44" height="5.44" transform="translate(132.67 40.11) rotate(-180)"/><rect class="cls-2" x="63.61" y="11.89" width="5.44" height="5.44" transform="translate(132.67 29.22) rotate(-180)"/><rect class="cls-2" x="58.17" y="11.89" width="5.44" height="5.44" transform="translate(121.78 29.22) rotate(-180)"/><rect class="cls-2" x="58.17" y="6.44" width="5.44" height="5.44" transform="translate(121.78 18.33) rotate(-180)"/><rect class="cls-2" x="52.72" y="6.44" width="5.44" height="5.44" transform="translate(110.89 18.33) rotate(-180)"/><rect class="cls-2" x="52.72" y="1" width="5.44" height="5.44" transform="translate(110.89 7.44) rotate(-180)"/><rect class="cls-3" x="79.94" y="39.11" width="5.44" height="5.44" transform="translate(165.33 83.67) rotate(-180)"/><rect class="cls-3" x="74.5" y="39.11" width="5.44" height="5.44" transform="translate(154.44 83.67) rotate(-180)"/><rect class="cls-3" x="74.5" y="33.67" width="5.44" height="5.44" transform="translate(154.44 72.78) rotate(-180)"/><rect class="cls-3" x="69.06" y="33.67" width="5.44" height="5.44" transform="translate(143.56 72.78) rotate(-180)"/><rect class="cls-3" x="69.06" y="28.22" width="5.44" height="5.44" transform="translate(143.56 61.89) rotate(-180)"/><rect class="cls-3" x="63.61" y="28.22" width="5.44" height="5.44" transform="translate(132.67 61.89) rotate(-180)"/><rect class="cls-3" x="63.61" y="22.78" width="5.44" height="5.44" transform="translate(132.67 51) rotate(-180)"/><rect class="cls-3" x="58.17" y="22.78" width="5.44" height="5.44" transform="translate(121.78 51) rotate(-180)"/><rect class="cls-3" x="58.17" y="17.33" width="5.44" height="5.44" transform="translate(121.78 40.11) rotate(-180)"/><rect class="cls-3" x="52.72" y="17.33" width="5.44" height="5.44" transform="translate(110.89 40.11) rotate(-180)"/><rect class="cls-3" x="52.72" y="11.89" width="5.44" height="5.44" transform="translate(110.89 29.22) rotate(-180)"/><line class="cls-3" x1="52.72" y1="17.33" x2="52.72" y2="11.89"/><line class="cls-3" x1="52.72" y1="11.89" x2="52.72" y2="6.44"/><line class="cls-2" x1="52.72" y1="6.44" x2="52.72" y2="1"/><rect class="cls-2" x="69.06" y="50" width="21.78" height="5.44" transform="translate(159.89 105.44) rotate(-180)"/><rect class="cls-2" x="69.06" y="55.44" width="5.44" height="43.56" transform="translate(143.56 154.44) rotate(-180)"/><rect class="cls-2" x="50" y="93.56" width="19.06" height="5.44" transform="translate(119.06 192.56) rotate(-180)"/><rect class="cls-3" x="63.61" y="44.56" width="27.22" height="5.99" transform="translate(154.44 95.1) rotate(-180)"/><rect class="cls-3" x="63.61" y="50.54" width="5.44" height="43.01" transform="translate(132.67 144.1) rotate(-180)"/><rect class="cls-3" x="50" y="88.11" width="13.61" height="5.44" transform="translate(113.61 181.67) rotate(-180)"/></svg>